<svg width="363" height="71" viewBox="0 0 363 71" fill="none" xmlns="http://www.w3.org/2000/svg">
<path d="M0.827998 0.968502C0.64992 1.16439 0.596497 6.61358 0.596497 26.9679V52.7002H5.13749H9.67848V26.9501C9.67848 4.88622 9.64286 1.1822 9.42917 0.950695C9.05521 0.576733 1.14854 0.59454 0.827998 0.968502Z" fill="black"/>
<path d="M42.7119 12.971C40.7353 13.2025 39.3463 13.6477 36.7463 14.8408C36.497 14.9476 36.1943 15.1435 36.0696 15.2504C35.945 15.375 35.7669 15.4819 35.6778 15.4819C35.6066 15.4819 35.2861 15.7134 34.9833 15.9983C34.6628 16.301 34.2532 16.586 34.0573 16.6394C33.8793 16.7106 33.719 16.8353 33.719 16.9243C33.719 17.0133 33.6478 17.0846 33.5409 17.0846C33.4519 17.0846 33.345 16.301 33.3272 15.3394L33.2738 13.612L29.3739 13.5586C26.3644 13.523 25.4384 13.5764 25.3137 13.7367C25.2425 13.8614 25.1712 22.6762 25.1712 33.3253V52.7002H29.4451H33.719V39.8251C33.719 27.1638 33.719 26.9501 34.0751 26.7008C34.271 26.5583 34.4313 26.3446 34.4313 26.2022C34.4313 25.8994 37.3874 22.9611 38.3846 22.2845C39.1326 21.768 40.0764 21.305 41.3763 20.8064C41.7503 20.6639 42.6763 20.5571 43.6914 20.5749C45.205 20.5749 45.4899 20.6283 46.4338 21.0913C47.9474 21.8571 48.9981 23.1927 49.4611 25.009C49.5679 25.4542 49.657 30.7788 49.6926 39.2019L49.746 52.7002H53.9308H58.1157L58.0623 38.3115C58.0266 30.4048 57.9554 23.6913 57.8842 23.4063C57.5636 22.1776 57.3499 21.4119 57.1363 20.9133C56.6733 19.8092 56.2637 18.9544 56.1568 18.8654C56.0856 18.8119 55.9253 18.5804 55.8007 18.3489C55.5157 17.7969 55.4089 17.6544 54.1624 16.3723C53.6103 15.7846 53.0761 15.3038 52.987 15.3038C52.9158 15.3038 52.6843 15.1435 52.4706 14.9654C50.8679 13.4696 46.3981 12.5614 42.7119 12.971Z" fill="black"/>
<path d="M89.9918 12.9888C88.3 13.2203 85.0056 14.1819 85.0056 14.449C85.0056 14.5381 84.8453 14.5915 84.6494 14.5915C84.4535 14.5915 84.2933 14.6627 84.2933 14.7696C84.2933 14.8586 84.133 14.9476 83.9371 14.9476C83.7412 14.9476 83.5809 15.0189 83.5809 15.1257C83.5809 15.2148 83.4741 15.3038 83.3494 15.3038C83.2248 15.3038 82.9399 15.4641 82.7262 15.66C82.5125 15.8558 82.2988 16.0161 82.2275 16.0161C82.1741 16.0161 81.8892 16.2476 81.6221 16.5503C80.8385 17.3873 80.7317 17.2627 80.7317 15.5175C80.7317 14.6627 80.6605 13.8614 80.5892 13.7367C80.4646 13.5764 79.5386 13.523 76.529 13.5586L72.6291 13.6121L72.5757 33.1472L72.5401 52.7002H76.7249H80.9098V40.0032C80.9098 28.161 80.9276 27.2706 81.2303 26.9145C81.3906 26.7186 81.6577 26.3803 81.8002 26.1666C82.1741 25.5967 85.0056 22.7653 85.6466 22.3201C86.3768 21.8036 87.4987 21.2338 88.5137 20.8776C90.1164 20.3256 93.3218 20.5393 94.23 21.2694C95.5122 22.2845 96.0998 23.0858 96.6875 24.5639C96.9902 25.3118 97.008 26.4337 97.0615 39.0238L97.1327 52.7002H101.407H105.68L105.609 38.8457C105.556 27.0926 105.502 24.8132 105.253 23.7269C104.915 22.231 104.202 20.0407 104.024 19.9694C103.935 19.9338 103.882 19.7557 103.882 19.5599C103.882 19.3818 103.811 19.2215 103.704 19.2215C103.615 19.2215 103.526 19.1147 103.526 18.99C103.526 18.8654 103.365 18.5804 103.17 18.3667C102.974 18.153 102.813 17.9037 102.813 17.7969C102.813 17.5832 100.57 15.3038 100.356 15.3038C100.285 15.3038 100.053 15.1613 99.8573 14.9833C98.2368 13.4874 93.4465 12.5258 89.9918 12.9888Z" fill="black"/>
<path d="M133.532 12.9176C131.288 13.1669 127.566 14.4312 126.711 15.2504C126.587 15.375 126.409 15.4819 126.32 15.4819C126.231 15.4819 125.964 15.6778 125.714 15.9271C125.465 16.1764 125.198 16.3723 125.091 16.3723C124.948 16.3723 122.865 18.3846 122.259 19.1325C121.636 19.8626 120.265 22.0886 120.265 22.3379C120.265 22.4804 120.194 22.605 120.087 22.605C119.998 22.605 119.909 22.7653 119.909 22.9612C119.909 23.1571 119.838 23.3173 119.731 23.3173C119.642 23.3173 119.553 23.4776 119.553 23.6557C119.553 23.8516 119.481 24.0653 119.375 24.1187C119.286 24.1721 119.197 24.4214 119.197 24.6707C119.197 24.9022 119.125 25.0981 119.018 25.0981C118.929 25.0981 118.84 25.3296 118.84 25.6323C118.84 25.9173 118.769 26.1666 118.662 26.1666C118.573 26.1666 118.484 26.4871 118.484 26.8789C118.484 27.2707 118.413 27.5912 118.306 27.5912C118.199 27.5912 118.128 28.072 118.128 28.6597C118.128 29.2473 118.057 29.7281 117.95 29.7281C117.843 29.7281 117.772 31.0281 117.772 33.2897C117.772 35.5513 117.843 36.8513 117.95 36.8513C118.057 36.8513 118.128 37.3321 118.128 37.9197C118.128 38.5074 118.199 38.9882 118.306 38.9882C118.413 38.9882 118.484 39.3087 118.484 39.7005C118.484 40.0923 118.573 40.4128 118.662 40.4128C118.769 40.4128 118.84 40.5731 118.84 40.769C118.84 41.2676 119.25 42.5498 119.41 42.5498C119.499 42.5498 119.553 42.6744 119.553 42.8169C119.553 43.3155 120.764 45.5059 121.707 46.7524C122.758 48.1236 124.485 49.851 124.788 49.851C124.895 49.851 125.109 50.0112 125.251 50.2071C125.394 50.403 125.625 50.5633 125.785 50.5633C125.946 50.5633 126.177 50.7235 126.32 50.9194C126.462 51.1153 126.711 51.2756 126.89 51.2756C127.068 51.2756 127.21 51.3468 127.21 51.4537C127.21 51.5427 127.37 51.6317 127.566 51.6317C127.762 51.6317 127.922 51.703 127.922 51.8098C127.922 51.8989 128.1 51.9879 128.332 51.9879C128.563 51.9879 128.813 52.0413 128.884 52.1126C129.062 52.3084 130.291 52.7002 130.683 52.7002C130.896 52.7002 131.128 52.7714 131.217 52.8605C131.822 53.4303 140.78 53.4481 142.08 52.8783C142.275 52.7892 142.756 52.6824 143.148 52.6112C144.626 52.3975 145.018 52.3084 145.018 52.1482C145.018 52.0591 145.285 51.9879 145.623 51.9879C145.962 51.9879 146.3 51.8989 146.353 51.8098C146.407 51.703 146.656 51.6317 146.905 51.6317C147.137 51.6317 147.333 51.5427 147.333 51.4537C147.333 51.3468 147.582 51.2756 147.867 51.2756C148.17 51.2756 148.401 51.1865 148.401 51.0975C148.401 50.9907 148.562 50.9194 148.758 50.9194C148.953 50.9194 149.114 50.8304 149.114 50.7413C149.114 50.6345 149.363 50.5633 149.648 50.5633C150.057 50.5633 150.182 50.492 150.182 50.2071C150.182 50.0112 150.111 49.851 150.004 49.851C149.915 49.851 149.826 49.5304 149.826 49.1386C149.826 48.7469 149.755 48.4263 149.648 48.4263C149.559 48.4263 149.47 48.1948 149.47 47.9099C149.47 47.6072 149.399 47.3223 149.292 47.2688C149.203 47.2154 149.114 46.8949 149.114 46.5565C149.114 46.2182 149.042 45.8976 148.936 45.8442C148.847 45.7908 148.758 45.5593 148.758 45.3456C148.758 44.9182 148.152 43.1196 147.938 42.9237C147.867 42.8703 147.778 42.9237 147.742 43.0306C147.689 43.1552 147.547 43.2621 147.404 43.2621C147.262 43.2621 146.995 43.3333 146.799 43.4401C146.603 43.5292 146.282 43.6895 146.086 43.7963C145.89 43.8853 145.57 43.9744 145.374 43.9744C145.178 43.9744 145.018 44.0456 145.018 44.1525C145.018 44.2415 144.822 44.3305 144.59 44.3305C144.341 44.3305 144.092 44.4018 144.038 44.5086C143.985 44.5977 143.7 44.6867 143.397 44.6867C143.112 44.6867 142.881 44.7401 142.881 44.8292C142.881 45.0072 141.171 45.31 138.732 45.5949C136.007 45.9154 133.781 45.5771 131.306 44.4908C131.021 44.3483 130.772 44.1881 130.772 44.1168C130.772 44.0278 130.647 43.9744 130.504 43.9744C130.362 43.9744 130.237 43.8853 130.237 43.7963C130.237 43.6895 130.148 43.6182 130.059 43.6182C129.792 43.6182 128.279 42.0689 128.279 41.784C128.279 41.6594 128.118 41.4457 127.922 41.3032C127.726 41.1607 127.566 40.9114 127.566 40.7334C127.566 40.5553 127.495 40.4128 127.388 40.4128C127.299 40.4128 127.21 40.1635 127.21 39.8786C127.21 39.5759 127.139 39.3444 127.032 39.3444C126.943 39.3444 126.854 39.095 126.854 38.8101C126.854 38.5074 126.783 38.2759 126.676 38.2759C126.587 38.2759 126.498 37.9197 126.498 37.4745V36.6732H139.195H151.874L152.105 35.9609C152.372 35.0883 152.408 28.0186 152.141 27.8583C152.052 27.8049 151.963 27.3063 151.963 26.772C151.963 26.2378 151.892 25.8104 151.785 25.8104C151.696 25.8104 151.607 25.4899 151.607 25.0981C151.607 24.7063 151.536 24.3858 151.429 24.3858C151.34 24.3858 151.251 24.1899 151.251 23.9406C151.251 23.6913 151.179 23.4954 151.073 23.4954C150.983 23.4954 150.894 23.2995 150.894 23.0502C150.894 22.8009 150.823 22.605 150.716 22.605C150.627 22.605 150.538 22.4447 150.538 22.2667C150.538 22.0708 150.467 21.8571 150.36 21.8037C150.271 21.7502 150.182 21.5365 150.182 21.3407C150.182 21.1626 150.111 21.0023 150.004 21.0023C149.915 21.0023 149.826 20.8777 149.826 20.7352C149.826 20.5927 149.755 20.4681 149.648 20.4681C149.559 20.4681 149.47 20.3434 149.47 20.201C149.47 20.0585 149.399 19.9338 149.292 19.9338C149.203 19.9338 149.114 19.827 149.114 19.7023C149.114 19.2571 146.051 16.0161 145.623 16.0161C145.588 16.0161 145.374 15.8559 145.16 15.66C144.947 15.4641 144.662 15.3038 144.537 15.3038C144.412 15.3038 144.306 15.2326 144.306 15.1613C144.306 15.0189 143.522 14.6271 141.688 13.897C141.189 13.6833 140.192 13.3984 139.497 13.2559C138.18 12.971 134.778 12.7929 133.532 12.9176ZM136.773 20.4859C138.376 20.7174 139.07 20.9311 140.299 21.5722C141.207 22.053 142.525 23.1571 142.525 23.442C142.525 23.531 142.685 23.7091 142.881 23.8516C143.077 23.994 143.237 24.2433 143.237 24.4214C143.237 24.5995 143.326 24.7419 143.415 24.7419C143.522 24.7419 143.593 24.9022 143.593 25.0981C143.593 25.294 143.682 25.4543 143.771 25.4543C143.878 25.4543 143.949 25.7748 143.949 26.1666C143.949 26.5583 144.038 26.8789 144.127 26.8789C144.234 26.8789 144.306 27.4487 144.306 28.2145V29.5501H135.402H126.498V28.3925C126.498 27.7337 126.569 27.235 126.676 27.235C126.783 27.235 126.854 26.9857 126.854 26.7008C126.854 26.3981 126.943 26.1666 127.032 26.1666C127.139 26.1666 127.21 26.0063 127.21 25.8104C127.21 25.6145 127.299 25.4543 127.388 25.4543C127.495 25.4543 127.566 25.294 127.566 25.0981C127.566 24.9022 127.655 24.7419 127.744 24.7419C127.851 24.7419 127.922 24.6173 127.922 24.4748C127.922 23.9228 129.489 22.2845 130.683 21.59C131.947 20.8598 133.14 20.5215 135.17 20.3078C135.295 20.3078 136.007 20.379 136.773 20.4859Z" fill="black"/>
<path d="M181.435 12.9888C180.153 13.2203 177.286 14.1819 177.072 14.4312C177.018 14.5024 176.627 14.7161 176.199 14.9476C175.772 15.1613 175.256 15.4819 175.06 15.6778C174.846 15.8558 174.614 16.0161 174.525 16.0161C174.436 16.0161 174.062 16.3366 173.688 16.7284C173.314 17.1202 172.958 17.4407 172.905 17.4407C172.851 17.4407 172.78 16.586 172.762 15.5175L172.709 13.612L168.809 13.5586C165.8 13.523 164.874 13.5764 164.749 13.7367C164.678 13.8614 164.606 22.6762 164.606 33.3253V52.7002H168.88H173.154V42.0689C173.154 31.9185 173.225 30.1021 173.688 28.9268C173.777 28.7309 173.938 28.1966 174.062 27.7158C174.205 27.2528 174.365 26.8789 174.436 26.8789C174.508 26.8789 174.579 26.7186 174.579 26.5227C174.579 26.3268 174.668 26.1666 174.757 26.1666C174.864 26.1666 174.935 26.0063 174.935 25.8104C174.935 25.6145 175.024 25.4542 175.113 25.4542C175.22 25.4542 175.291 25.3296 175.291 25.2049C175.291 25.0625 175.808 24.4214 176.449 23.7803C178.853 21.3763 182.076 20.5927 185.103 21.679C185.655 21.8749 186.19 21.9817 186.279 21.9105C186.457 21.8036 186.635 21.216 186.813 20.1475C186.866 19.8448 186.973 19.5777 187.062 19.5777C187.151 19.5777 187.222 19.3996 187.222 19.1859C187.222 18.9722 187.383 18.3489 187.561 17.8147C188.184 15.9983 188.861 13.6655 188.772 13.5942C188.291 13.1134 183.091 12.686 181.435 12.9888Z" fill="black"/>
<path d="M215.982 12.9176C214.344 13.1847 212.403 13.808 210.871 14.5381C209.91 14.9833 209.126 15.4285 209.126 15.5175C209.126 15.5887 209.019 15.66 208.912 15.66C208.788 15.66 208.467 15.8381 208.2 16.0695C207.951 16.2832 207.559 16.6038 207.363 16.7641C206.793 17.2449 206.526 17.1558 205.618 16.2298C204.781 15.3929 202.733 14.2353 202.056 14.2353C201.878 14.2353 201.415 14.1285 201.023 13.986C200.632 13.8436 199.617 13.6833 198.762 13.6121L197.213 13.4874L197.017 14.271C196.91 14.6805 196.696 15.4819 196.554 16.0161C196.393 16.5504 196.197 17.2983 196.108 17.6544C195.752 19.1503 195.539 19.8626 195.396 20.2366C195.254 20.6283 195.289 20.6462 196.091 20.6462C197.551 20.6462 199.332 21.4119 199.332 22.0174C199.332 22.142 199.421 22.2489 199.51 22.2489C199.634 22.2489 199.688 30.0487 199.688 45.31V68.3711H204.051H208.414V59.4672C208.414 53.644 208.467 50.5633 208.592 50.5633C208.699 50.5633 208.77 50.6345 208.77 50.7414C208.77 50.8304 208.912 50.9194 209.09 50.9194C209.268 50.9194 209.518 51.0797 209.66 51.2756C209.803 51.4715 210.088 51.6318 210.319 51.6318C210.533 51.6318 210.764 51.703 210.818 51.8098C210.871 51.8989 211.085 51.9879 211.281 51.9879C211.459 51.9879 211.619 52.0591 211.619 52.166C211.619 52.255 211.868 52.3441 212.153 52.3441C212.456 52.3441 212.688 52.4153 212.688 52.5043C212.688 52.5934 212.99 52.718 213.364 52.7715C213.72 52.8427 214.468 52.9673 215.003 53.092C216.783 53.4481 221.396 53.2879 221.859 52.8605C221.948 52.7715 222.197 52.7002 222.428 52.7002C222.642 52.7002 223.105 52.5399 223.461 52.3441C223.817 52.1482 224.245 51.9879 224.441 51.9879C224.637 51.9879 224.797 51.8989 224.797 51.8098C224.797 51.703 224.921 51.6318 225.064 51.6318C225.206 51.6318 225.331 51.5427 225.331 51.4537C225.331 51.3468 225.456 51.2756 225.598 51.2756C225.741 51.2756 225.865 51.1866 225.865 51.0975C225.865 50.9907 226.008 50.9194 226.186 50.9194C226.364 50.9194 226.613 50.7592 226.756 50.5633C226.898 50.3674 227.112 50.2071 227.219 50.2071C227.486 50.2071 229.48 48.2483 230.406 47.0908C230.798 46.5921 231.172 46.1648 231.261 46.1469C231.332 46.1113 231.386 45.9867 231.386 45.862C231.386 45.7374 231.528 45.4881 231.706 45.2922C232.134 44.7936 232.454 44.2059 232.454 43.8854C232.454 43.7429 232.543 43.6182 232.632 43.6182C232.739 43.6182 232.81 43.458 232.81 43.2621C232.81 43.0662 232.899 42.9059 232.988 42.9059C233.095 42.9059 233.167 42.7457 233.167 42.5498C233.167 42.3539 233.256 42.1936 233.345 42.1936C233.451 42.1936 233.523 42.0333 233.523 41.8375C233.523 41.6416 233.612 41.4813 233.701 41.4813C233.808 41.4813 233.879 41.232 233.879 40.9471C233.879 40.6443 233.968 40.4128 234.057 40.4128C234.164 40.4128 234.235 40.0923 234.235 39.7005C234.235 39.3087 234.324 38.9882 234.413 38.9882C234.52 38.9882 234.591 38.632 234.591 38.1869C234.591 37.7417 234.662 37.3855 234.751 37.3855C235.09 37.3855 235.268 32.4349 235.036 29.5857C234.965 28.7843 234.84 28.1254 234.751 28.1254C234.662 28.1254 234.591 27.7693 234.591 27.3241C234.591 26.8789 234.52 26.5227 234.413 26.5227C234.324 26.5227 234.235 26.2734 234.235 25.9885C234.235 25.6858 234.164 25.4543 234.057 25.4543C233.968 25.4543 233.879 25.205 233.879 24.92C233.879 24.6173 233.808 24.3858 233.701 24.3858C233.612 24.3858 233.523 24.1365 233.523 23.8516C233.523 23.5488 233.451 23.3173 233.345 23.3173C233.256 23.3173 233.167 23.1571 233.167 22.9612C233.167 22.7653 233.095 22.605 232.988 22.605C232.899 22.605 232.81 22.4447 232.81 22.2489C232.81 22.053 232.757 21.8927 232.668 21.8927C232.597 21.8927 232.436 21.6256 232.294 21.305C232.151 21.0023 231.991 20.6996 231.92 20.6462C231.867 20.5927 231.617 20.2722 231.386 19.9338C230.887 19.2393 230.691 18.99 229.445 17.6544C228.946 17.1558 228.519 16.7284 228.465 16.7284C228.376 16.7284 228.198 16.586 227.254 15.8024C227.058 15.6244 226.738 15.4463 226.56 15.3929C226.364 15.3216 226.221 15.2148 226.221 15.1435C226.221 15.0189 225.616 14.734 223.604 13.897C223.105 13.7011 222.179 13.3984 221.556 13.2559C220.398 12.971 216.926 12.7751 215.982 12.9176ZM219.633 20.753C220.167 20.9311 220.648 21.1448 220.665 21.216C220.701 21.2872 220.808 21.3585 220.915 21.3585C221.431 21.3585 224.085 23.6379 224.085 24.1009C224.085 24.2077 224.245 24.4214 224.441 24.5639C224.637 24.7063 224.797 24.9557 224.797 25.1337C224.797 25.3118 224.886 25.4543 224.975 25.4543C225.082 25.4543 225.153 25.6145 225.153 25.8104C225.153 26.0063 225.242 26.1666 225.331 26.1666C225.438 26.1666 225.509 26.3269 225.509 26.5227C225.509 26.7186 225.598 26.8789 225.687 26.8789C225.794 26.8789 225.865 27.1638 225.865 27.5022C225.865 27.8405 225.954 28.1254 226.043 28.1254C226.15 28.1254 226.221 28.5172 226.221 29.0158C226.221 29.4966 226.311 29.9062 226.4 29.9062C226.506 29.9062 226.578 31.0281 226.578 32.9335C226.578 34.839 226.506 35.9609 226.4 35.9609C226.311 35.9609 226.221 36.3526 226.221 36.8513C226.221 37.3321 226.15 37.7417 226.043 37.7417C225.954 37.7417 225.865 38.0266 225.865 38.3649C225.865 38.7033 225.794 38.9882 225.687 38.9882C225.598 38.9882 225.509 39.1841 225.509 39.4334C225.509 39.6827 225.438 39.8786 225.331 39.8786C225.242 39.8786 225.153 40.0745 225.153 40.3238C225.153 40.5731 225.082 40.769 224.975 40.769C224.886 40.769 224.797 40.8936 224.797 41.0361C224.797 41.1964 224.601 41.5169 224.352 41.7662C224.102 42.0155 223.906 42.2826 223.906 42.3717C223.906 42.6566 222.428 43.9744 222.126 43.9744C222.019 43.9744 221.948 44.0456 221.948 44.1169C221.948 44.2059 221.609 44.4374 221.2 44.6511C217.976 46.2004 215.109 46.1113 211.405 44.3305C210.925 44.099 210.551 43.8497 210.551 43.7607C210.551 43.6895 210.426 43.6182 210.283 43.6182C210.123 43.6182 209.642 43.2621 209.215 42.8169L208.414 42.0333V33.0938V24.1721L209.464 23.1571C210.568 22.1064 212.545 20.9845 214.041 20.5571C215.27 20.2188 218.368 20.3256 219.633 20.753Z" fill="black"/>
<path d="M261.214 12.9172C258.489 13.309 257.082 13.7186 255.337 14.6268C254.945 14.8405 254.447 15.0898 254.233 15.1966C254.002 15.3035 253.824 15.4459 253.824 15.5172C253.824 15.6062 253.717 15.6596 253.574 15.6596C253.45 15.6596 253.004 15.9802 252.595 16.372C252.203 16.7637 251.776 17.0843 251.687 17.0843C251.491 17.0843 250.618 17.8856 250.618 18.0459C250.618 18.1527 250.262 18.5979 249.425 19.5417C249.104 19.8979 248.837 20.2897 248.837 20.4143C248.837 20.539 248.784 20.6458 248.713 20.6458C248.624 20.6458 248.481 20.8239 248.374 21.0554C248.268 21.2691 247.947 21.8924 247.662 22.4266C246.683 24.2608 245.988 26.3443 245.632 28.3922C245.525 29.0689 245.347 30.0483 245.24 30.5292C245.062 31.3839 245.133 35.2126 245.365 36.7619C246.077 41.7125 247.769 45.5055 250.583 48.3548C250.992 48.7822 251.33 49.2096 251.33 49.3164C251.33 49.4054 251.473 49.4945 251.651 49.4945C251.829 49.4945 252.078 49.6547 252.221 49.8506C252.363 50.0465 252.577 50.2068 252.702 50.2068C252.826 50.2068 252.933 50.278 252.933 50.3849C252.933 50.4739 253.058 50.5629 253.2 50.5629C253.343 50.5629 253.467 50.6342 253.467 50.741C253.467 50.8301 253.592 50.9191 253.735 50.9191C253.877 50.9191 254.002 50.9903 254.002 51.0972C254.002 51.1862 254.162 51.2753 254.358 51.2753C254.554 51.2753 254.714 51.3465 254.714 51.4533C254.714 51.5424 254.839 51.6314 254.981 51.6314C255.124 51.6314 255.391 51.7026 255.569 51.7917C256.726 52.3793 257.759 52.6821 259.967 53.0917C261.374 53.3588 266.342 53.3588 268.159 53.0917C268.942 52.9848 269.94 52.8423 270.385 52.7711C270.83 52.7177 271.257 52.593 271.364 52.504C271.453 52.415 271.756 52.3437 272.023 52.3437C272.29 52.3437 272.522 52.2547 272.522 52.1656C272.522 52.0588 272.789 51.9876 273.127 51.9876C273.466 51.9876 273.804 51.8985 273.857 51.8095C273.911 51.7026 274.196 51.6314 274.498 51.6314C274.783 51.6314 275.015 51.5424 275.015 51.4533C275.015 51.3465 275.175 51.2753 275.371 51.2753C275.567 51.2753 275.727 51.1862 275.727 51.0972C275.727 50.9903 275.976 50.9191 276.261 50.9191C276.564 50.9191 276.796 50.8301 276.796 50.741C276.796 50.6342 276.956 50.5629 277.152 50.5629C277.437 50.5629 277.508 50.4383 277.508 50.0287C277.508 49.726 277.437 49.4945 277.33 49.4945C277.241 49.4945 277.152 49.1739 277.152 48.7822C277.152 48.3904 277.081 48.0699 276.974 48.0699C276.885 48.0699 276.796 47.8027 276.796 47.4644C276.796 47.126 276.724 46.7877 276.618 46.7343C276.529 46.6808 276.439 46.3425 276.439 46.0041C276.439 45.6658 276.368 45.3987 276.261 45.3987C276.172 45.3987 276.083 45.1138 276.083 44.7754C276.083 44.4371 276.012 44.1521 275.905 44.1521C275.816 44.1521 275.727 43.8672 275.727 43.5289C275.727 43.1905 275.656 42.9056 275.549 42.9056C275.46 42.9056 275.371 42.9768 275.371 43.0837C275.371 43.1727 275.14 43.2617 274.837 43.2617C274.552 43.2617 274.303 43.333 274.303 43.4398C274.303 43.5289 274.142 43.6179 273.946 43.6179C273.75 43.6179 273.59 43.6891 273.59 43.796C273.59 43.885 273.359 43.9741 273.056 43.9741C272.771 43.9741 272.522 44.0453 272.522 44.1521C272.522 44.2412 272.361 44.3302 272.166 44.3302C271.97 44.3302 271.667 44.4014 271.489 44.4905C271.329 44.5795 270.83 44.7398 270.385 44.8644C269.94 44.9713 269.352 45.1316 269.049 45.2206C268.764 45.3096 267.571 45.4699 266.431 45.5946C264.74 45.7726 264.027 45.7726 262.692 45.5946C260.893 45.3453 259.7 45.0425 259.7 44.8288C259.7 44.7398 259.54 44.6864 259.344 44.6864C259.148 44.6864 258.988 44.5973 258.988 44.5083C258.988 44.4014 258.828 44.3302 258.632 44.3302C258.436 44.3302 258.276 44.259 258.276 44.1877C258.276 44.0987 258.062 43.9206 257.795 43.7782C256.05 42.87 254.019 39.344 254.002 37.1537V36.6729H266.734H279.467L279.591 36.1742C279.841 35.3017 279.752 28.1429 279.485 26.8786C279.022 24.6526 277.704 21.0376 277.294 20.8595C277.205 20.8239 277.152 20.6814 277.152 20.539C277.152 20.3965 277.081 20.2897 276.974 20.2897C276.885 20.2897 276.796 20.165 276.796 20.0047C276.796 19.8445 276.564 19.4883 276.261 19.2212C275.976 18.9541 275.727 18.6335 275.727 18.5267C275.727 18.2774 274.427 16.9596 273.59 16.372C273.252 16.1404 272.807 15.8021 272.629 15.624C272.433 15.4459 272.183 15.3035 272.059 15.3035C271.934 15.3035 271.809 15.2323 271.774 15.161C271.649 14.8583 269.156 13.8076 267.625 13.4159C266.058 13.0063 262.478 12.7392 261.214 12.9172ZM264.17 20.4856C265.719 20.6814 266.823 20.9842 267.731 21.465C270.082 22.6759 271.97 26.0416 271.774 28.6593L271.72 29.4607H262.817H253.913L253.948 28.6771C254.019 27.3238 254.91 24.8663 255.747 23.8156C256.05 23.406 257.314 22.1595 257.777 21.7855C258.471 21.2335 259.38 20.8951 261.125 20.5568C262.638 20.2541 262.46 20.2541 264.17 20.4856Z" fill="black"/>
<path d="M306 12.9884C304.238 13.2199 300.836 14.1815 300.836 14.4486C300.836 14.5376 300.676 14.5911 300.48 14.5911C300.284 14.5911 300.124 14.6623 300.124 14.7691C300.124 14.8582 299.964 14.9472 299.768 14.9472C299.572 14.9472 299.412 15.0185 299.412 15.1253C299.412 15.2143 299.305 15.3034 299.18 15.3034C299.055 15.3034 298.788 15.4458 298.592 15.6061C298.414 15.7842 298.04 16.0335 297.773 16.176C297.488 16.3184 297.275 16.4965 297.275 16.5855C297.275 16.6568 297.186 16.728 297.097 16.728C296.865 16.728 293.891 19.7019 293.891 19.9334C293.891 20.0224 293.82 20.1115 293.713 20.1115C293.624 20.1115 293.535 20.2361 293.535 20.3786C293.535 20.5211 293.464 20.6457 293.357 20.6457C293.268 20.6457 293.179 20.7704 293.179 20.9128C293.179 21.0553 293.108 21.18 293.001 21.18C292.912 21.18 292.823 21.3046 292.823 21.4471C292.823 21.5895 292.751 21.7142 292.645 21.7142C292.556 21.7142 292.467 21.8745 292.467 22.0703C292.467 22.2662 292.395 22.4265 292.288 22.4265C292.199 22.4265 292.11 22.5512 292.11 22.6936C292.11 22.8361 292.039 22.9607 291.932 22.9607C291.843 22.9607 291.754 23.121 291.754 23.3169C291.754 23.5128 291.683 23.673 291.576 23.673C291.487 23.673 291.398 23.9045 291.398 24.2073C291.398 24.4922 291.345 24.7415 291.273 24.7415C291.149 24.7415 290.543 26.5579 290.152 28.125C289.582 30.3866 289.582 37.0467 290.152 38.3645C290.241 38.5604 290.347 39.0056 290.419 39.3439C290.472 39.6823 290.561 40.2343 290.632 40.537C290.686 40.8576 290.793 41.1247 290.882 41.1247C290.971 41.1247 291.042 41.285 291.042 41.4809C291.042 41.6767 291.131 41.837 291.22 41.837C291.327 41.837 291.398 42.0685 291.398 42.3712C291.398 42.6562 291.487 42.9055 291.576 42.9055C291.683 42.9055 291.754 43.0657 291.754 43.2616C291.754 43.4575 291.843 43.6178 291.932 43.6178C292.039 43.6178 292.11 43.7781 292.11 43.9739C292.11 44.1698 292.199 44.3301 292.288 44.3301C292.395 44.3301 292.467 44.4726 292.467 44.6506C292.467 44.8287 292.627 45.078 292.823 45.2205C293.019 45.363 293.179 45.5588 293.179 45.6657C293.179 45.9506 294.034 46.9657 295.405 48.3369C296.829 49.7437 297.382 50.2067 297.631 50.2067C297.738 50.2067 297.809 50.2779 297.809 50.3848C297.809 50.4738 297.934 50.5628 298.076 50.5628C298.218 50.5628 298.343 50.6341 298.343 50.7409C298.343 50.83 298.468 50.919 298.61 50.919C298.753 50.919 298.877 50.9902 298.877 51.0971C298.877 51.1861 299.073 51.2752 299.323 51.2752C299.572 51.2752 299.768 51.3464 299.768 51.4532C299.768 51.5423 299.928 51.6313 300.124 51.6313C300.32 51.6313 300.48 51.7025 300.48 51.8094C300.48 51.8984 300.64 51.9875 300.836 51.9875C301.032 51.9875 301.192 52.0587 301.192 52.1655C301.192 52.2546 301.388 52.3436 301.62 52.3436C301.869 52.3436 302.101 52.4148 302.154 52.5039C302.207 52.5929 302.564 52.7176 302.92 52.771C303.294 52.8422 304.042 52.9847 304.576 53.0915C305.894 53.3587 310.773 53.3409 312.322 53.0737C313.017 52.9669 313.872 52.8244 314.246 52.771C314.602 52.6998 314.958 52.5929 315.011 52.5039C315.065 52.4148 315.332 52.3436 315.635 52.3436C315.919 52.3436 316.151 52.2546 316.151 52.1655C316.151 52.0587 316.4 51.9875 316.685 51.9875C316.988 51.9875 317.219 51.8984 317.219 51.8094C317.219 51.7025 317.38 51.6313 317.576 51.6313C317.771 51.6313 317.932 51.5423 317.932 51.4532C317.932 51.3464 318.128 51.2752 318.377 51.2752C318.626 51.2752 318.822 51.1861 318.822 51.0971C318.822 50.9902 318.982 50.919 319.178 50.919C319.374 50.919 319.534 50.83 319.534 50.7409C319.534 50.6341 319.695 50.5628 319.873 50.5628C320.318 50.5628 320.46 50.1355 320.211 49.53C320.104 49.2629 319.944 48.8533 319.855 48.604C319.748 48.3547 319.606 48.0163 319.517 47.8561C319.428 47.678 319.356 47.4109 319.356 47.2684C319.356 47.1259 319.285 46.841 319.178 46.6451C318.786 45.8616 318.697 45.6301 318.448 44.8109C318.323 44.3479 318.145 43.9739 318.074 43.9739C318.003 43.9739 317.932 43.8137 317.932 43.6178C317.932 43.3329 317.807 43.2616 317.397 43.2616C317.113 43.2616 316.863 43.3329 316.863 43.4397C316.863 43.5288 316.703 43.6178 316.507 43.6178C316.311 43.6178 316.151 43.689 316.151 43.7959C316.151 43.8849 315.991 43.9739 315.795 43.9739C315.599 43.9739 315.439 44.0452 315.439 44.152C315.439 44.2411 315.278 44.3301 315.1 44.3301C314.904 44.3301 314.691 44.4013 314.637 44.5082C314.584 44.5972 314.352 44.6863 314.121 44.6863C313.907 44.6863 313.658 44.7575 313.569 44.8287C313.355 45.0246 312.287 45.3095 310.88 45.5588C309.259 45.8438 307.568 45.7903 306.09 45.3986C304.896 45.078 304.469 44.9 303.151 44.1164C302.528 43.7603 300.836 42.0507 300.836 41.7836C300.836 41.6589 300.676 41.4452 300.48 41.3028C300.284 41.1603 300.124 40.911 300.124 40.7329C300.124 40.5548 300.07 40.4124 299.981 40.4124C299.91 40.4124 299.75 40.1453 299.625 39.8247C299.483 39.522 299.305 39.059 299.198 38.8097C298.788 37.8481 298.717 37.6344 298.61 37.0289C298.308 35.3194 298.183 32.7906 298.343 31.1879C298.575 28.6414 298.699 28.125 299.251 27.0209C299.34 26.8428 299.412 26.5757 299.412 26.4333C299.412 26.2908 299.501 26.1661 299.59 26.1661C299.697 26.1661 299.768 26.0059 299.768 25.81C299.768 25.6141 299.857 25.4538 299.946 25.4538C300.053 25.4538 300.124 25.3292 300.124 25.1689C300.124 25.0264 300.729 24.2963 301.477 23.5484C302.813 22.2484 304.148 21.4471 306.018 20.8416C306.837 20.5923 311.094 20.5923 312.18 20.8416C313.319 21.1087 314.762 21.6608 316.026 22.284C316.934 22.7292 317.095 22.7648 317.308 22.5333C317.451 22.3909 317.576 22.106 317.576 21.9101C317.576 21.6964 317.665 21.5361 317.754 21.5361C317.86 21.5361 317.932 21.2868 317.932 21.0019C317.932 20.6991 318.021 20.4676 318.11 20.4676C318.217 20.4676 318.288 20.2718 318.288 20.0224C318.288 19.7731 318.377 19.5773 318.466 19.5773C318.573 19.5773 318.644 19.3457 318.644 19.0608C318.644 18.7759 318.697 18.5088 318.786 18.4732C318.965 18.4019 319.713 16.1403 319.713 15.6773C319.713 15.428 319.606 15.3034 319.356 15.3034C319.16 15.3034 319 15.25 319 15.1609C319 15.0897 318.733 14.9472 318.43 14.8226C315.706 13.8609 314.441 13.4692 313.213 13.2377C311.467 12.9171 307.568 12.7747 306 12.9884Z" fill="black"/>
<path d="M343.575 13.0067C342.845 13.0957 341.794 13.2916 341.26 13.4519C339.996 13.8436 337.039 15.2327 336.576 15.6778C336.381 15.8559 336.149 16.0162 336.06 16.0162C335.864 16.0162 332.534 19.3641 332.534 19.56C332.534 19.649 332.463 19.7558 332.392 19.7915C331.982 19.9517 329.685 24.1544 329.685 24.742C329.685 24.8489 329.578 25.1516 329.435 25.4187C329.062 26.131 328.616 28.4104 328.349 30.9213C327.993 34.3582 328.581 39.2732 329.703 42.069C330.255 43.4937 331.163 45.2744 331.519 45.6484C331.679 45.8443 331.822 46.058 331.822 46.147C331.822 46.3607 332.32 46.9306 333.994 48.6401C334.849 49.4949 335.633 50.2072 335.739 50.2072C335.828 50.2072 335.918 50.2784 335.918 50.3853C335.918 50.4743 336.042 50.5634 336.185 50.5634C336.327 50.5634 336.452 50.6346 336.452 50.7414C336.452 50.8305 336.612 50.9195 336.808 50.9195C337.004 50.9195 337.164 50.9907 337.164 51.0976C337.164 51.1866 337.324 51.2757 337.52 51.2757C337.716 51.2757 337.876 51.3469 337.876 51.4537C337.876 51.5428 338.037 51.6318 338.233 51.6318C338.428 51.6318 338.589 51.7031 338.589 51.8099C338.589 51.8989 338.785 51.988 339.034 51.988C339.283 51.988 339.479 52.0592 339.479 52.1482C339.479 52.2373 339.693 52.3619 339.978 52.4154C340.245 52.4866 340.779 52.6291 341.171 52.7181C343.486 53.3236 348.347 53.5016 351.143 53.0921C351.927 52.9852 352.924 52.8428 353.369 52.7715C353.814 52.7181 354.242 52.5934 354.349 52.5044C354.438 52.4154 354.723 52.3441 354.99 52.3441C355.257 52.3441 355.542 52.2551 355.595 52.1661C355.649 52.0592 355.987 51.988 356.325 51.988C356.664 51.988 356.931 51.8989 356.931 51.8099C356.931 51.7031 357.18 51.6318 357.465 51.6318C357.768 51.6318 357.999 51.5428 357.999 51.4537C357.999 51.3469 358.159 51.2757 358.355 51.2757C358.551 51.2757 358.712 51.1866 358.712 51.0976C358.712 50.9907 358.961 50.9195 359.246 50.9195C359.549 50.9195 359.78 50.8305 359.78 50.7414C359.78 50.6346 359.94 50.5634 360.136 50.5634C360.439 50.5634 360.492 50.4387 360.492 49.8688C360.492 49.4771 360.421 49.1031 360.314 49.0497C360.225 48.9963 360.136 48.6579 360.136 48.3196C360.136 47.9812 360.065 47.7141 359.958 47.7141C359.869 47.7141 359.78 47.4292 359.78 47.0908C359.78 46.7525 359.709 46.4676 359.602 46.4676C359.513 46.4676 359.424 46.1826 359.424 45.8443C359.424 45.5059 359.353 45.221 359.246 45.221C359.157 45.221 359.068 44.9005 359.068 44.5087C359.068 44.1169 358.996 43.7964 358.89 43.7964C358.801 43.7964 358.712 43.6005 358.712 43.3512C358.712 43.1019 358.64 42.906 358.533 42.906C358.444 42.906 358.355 42.9772 358.355 43.0841C358.355 43.1731 358.159 43.2621 357.928 43.2621C357.679 43.2621 357.429 43.3334 357.376 43.4402C357.323 43.5293 357.109 43.6183 356.913 43.6183C356.735 43.6183 356.575 43.6895 356.575 43.7964C356.575 43.8854 356.379 43.9745 356.147 43.9745C355.898 43.9745 355.649 44.0457 355.595 44.1525C355.542 44.2416 355.328 44.3306 355.132 44.3306C354.954 44.3306 354.651 44.4018 354.473 44.4909C354.313 44.5799 353.814 44.7402 353.369 44.8649C352.924 44.9717 352.336 45.132 352.034 45.221C351.749 45.31 350.556 45.4703 349.398 45.595C347.724 45.773 346.994 45.773 345.765 45.595C343.931 45.3457 342.685 45.0251 342.685 44.8292C342.685 44.758 342.524 44.6868 342.328 44.6868C342.132 44.6868 341.972 44.5977 341.972 44.5087C341.972 44.4018 341.83 44.3306 341.652 44.3306C341.474 44.3306 341.224 44.1703 341.082 43.9745C340.939 43.7786 340.726 43.6183 340.583 43.6183C340.334 43.6183 339.408 42.7279 338.838 41.9088C337.912 40.6088 337.218 38.828 337.128 37.5636L337.075 36.7623L349.825 36.7089L362.594 36.6733L362.7 35.5514C362.879 33.8774 362.843 28.6954 362.647 27.5913C362.558 27.057 362.416 26.3269 362.362 25.9886C362.237 25.3653 361.668 23.5311 361.383 22.8722C361.311 22.6763 361.133 22.2489 360.991 21.9284C360.866 21.6257 360.706 21.3585 360.635 21.3585C360.546 21.3585 360.492 21.1983 360.492 21.0024C360.492 20.8065 360.421 20.6462 360.314 20.6462C360.225 20.6462 360.136 20.5394 360.136 20.4147C360.136 20.2901 359.976 20.0051 359.78 19.7915C359.584 19.5778 359.424 19.3284 359.424 19.2216C359.424 19.1326 359.353 19.0435 359.246 19.0435C359.157 19.0435 359.068 18.9545 359.068 18.8654C359.068 18.6161 357.02 16.586 356.218 16.0162C355.88 15.7847 355.56 15.5354 355.506 15.4642C355.257 15.1258 351.838 13.7012 350.52 13.3806C348.739 12.9354 345.48 12.7574 343.575 13.0067ZM347.19 20.4681C349.754 20.8421 351.143 21.4476 352.55 22.8544C353.992 24.3146 354.58 25.668 354.883 28.2858C354.954 28.9803 354.918 29.283 354.758 29.3899C354.491 29.5679 337.52 29.6036 337.093 29.4433C336.915 29.3721 336.844 29.194 336.879 28.9447C337.449 26.1488 337.912 24.9023 338.802 23.7804C339.497 22.9078 340.548 21.964 341.242 21.6078C341.598 21.4298 341.919 21.2339 341.972 21.1805C342.186 20.949 344.394 20.4325 345.676 20.3079C345.801 20.3079 346.495 20.3791 347.19 20.4681Z" fill="black"/>
<path d="M186.724 60.8382C186.599 61.319 186.421 61.9423 186.332 62.245C186.225 62.5477 186.154 62.9573 186.154 63.171C186.154 63.3669 186.083 63.5984 185.976 63.6518C185.887 63.7052 185.798 64.0792 185.798 64.471C185.798 64.8449 185.726 65.1655 185.637 65.1655C185.548 65.1655 185.424 65.5038 185.37 65.9134C185.121 67.7654 185.032 68.1928 184.889 68.1928C184.498 68.1928 184.747 69.2969 185.299 69.8845C185.816 70.4544 185.94 70.5078 186.866 70.5078C187.988 70.5078 188.291 70.3119 188.291 69.5996C188.291 69.1366 188.237 69.101 187.454 69.0476L186.599 68.9941L186.617 68.1038C186.635 67.6051 186.724 66.8928 186.831 66.5011C187.81 62.7614 188.398 60.2505 188.344 60.1259C188.309 60.0546 187.97 60.0012 187.614 60.0012C186.973 60.0012 186.937 60.0368 186.724 60.8382Z" fill="black"/>
<path d="M91.5944 60.6957C91.5944 60.8916 91.5232 61.1053 91.4163 61.1587C91.3273 61.2121 91.2382 61.5327 91.2382 61.871C91.2382 62.2094 91.167 62.5299 91.0601 62.5833C90.9711 62.6368 90.8821 62.9929 90.8821 63.3669C90.8821 63.723 90.8108 64.097 90.7396 64.186C90.6506 64.2929 90.4013 65.1655 90.1876 66.1449C89.9739 67.1243 89.6711 68.3353 89.5287 68.8517C89.1725 70.0626 89.2438 70.401 89.867 70.4722C90.5081 70.5434 90.8286 70.2763 90.9355 69.564C90.9889 69.2435 91.1314 68.638 91.2382 68.1928C91.3629 67.7476 91.4875 67.0531 91.541 66.6257C91.5944 66.2161 91.7012 65.8778 91.7903 65.8778C91.8793 65.8778 91.9505 65.5572 91.9505 65.1655C91.9505 64.7737 92.0396 64.4532 92.1286 64.4532C92.2355 64.4532 92.3067 64.2573 92.3067 64.008C92.3067 63.7587 92.3957 63.5628 92.4848 63.5628C92.5916 63.5628 92.6629 63.8833 92.6629 64.2751C92.6629 64.6669 92.7519 64.9874 92.8409 64.9874C92.9478 64.9874 93.019 65.4326 93.019 65.9668C93.019 66.5011 93.108 66.9463 93.1971 66.9463C93.3039 66.9463 93.3752 67.2134 93.3752 67.5517C93.3752 68.8695 94.9066 68.5846 95.6902 67.1243C95.8148 66.8928 95.9929 66.6079 96.082 66.5189C96.171 66.412 96.634 65.7709 97.097 65.112C97.649 64.3285 98.023 63.9723 98.0942 64.097C98.2189 64.2929 98.1477 64.649 97.649 66.323C97.3819 67.1956 96.7586 69.9736 96.7586 70.2407C96.7586 70.5969 97.8983 70.5969 98.1833 70.2407C98.3079 70.0804 98.486 69.653 98.5572 69.2613C98.7175 68.5668 98.86 67.9435 99.2695 66.3586C99.3764 65.949 99.501 65.3079 99.5545 64.934C99.6079 64.5778 99.7147 64.2751 99.8038 64.2751C99.8928 64.2751 99.9641 63.9545 99.9641 63.5806C99.9641 63.1888 100.053 62.8148 100.142 62.7614C100.249 62.708 100.32 62.3875 100.32 62.0491C100.32 61.7108 100.409 61.3902 100.498 61.3368C100.605 61.2834 100.676 61.0341 100.676 60.7847C100.676 60.3752 100.623 60.3574 99.6613 60.3574L98.6285 60.3752L97.2929 62.4053C96.5628 63.5272 95.7792 64.6669 95.5655 64.934C95.334 65.2011 95.1559 65.5394 95.1559 65.6463C95.1559 65.7709 94.9957 65.8778 94.7998 65.8778C94.4971 65.8778 94.4436 65.7531 94.4436 65.0942C94.4436 64.649 94.3724 64.2395 94.2656 64.186C94.1765 64.1326 94.0875 63.634 94.0875 63.0998C94.0875 62.5655 94.0162 62.1381 93.9094 62.1381C93.8204 62.1381 93.7313 61.782 93.7313 61.3546C93.7313 60.4642 93.5889 60.3574 92.3779 60.3574C91.719 60.3574 91.5944 60.4108 91.5944 60.6957Z" fill="black"/>
<path d="M138.465 61.0164C138.358 61.3726 138.304 61.7109 138.358 61.7643C138.411 61.8356 139.034 61.9068 139.729 61.9602C140.886 62.0493 141.011 62.0849 140.958 62.4054C140.762 63.5807 140.708 63.8657 140.584 64.1862C140.495 64.3821 140.334 64.9876 140.228 65.5218C139.996 66.6081 139.782 67.4985 139.48 68.4957C139.373 68.8697 139.284 69.4573 139.266 69.7957C139.23 70.4011 139.248 70.4189 139.943 70.4189C140.601 70.4189 140.655 70.3833 140.797 69.7957C140.869 69.4573 141.029 68.8519 141.118 68.4601C141.225 68.0683 141.349 67.445 141.403 67.0711C141.456 66.7149 141.563 66.3588 141.652 66.3053C141.741 66.2519 141.812 65.8958 141.812 65.504C141.812 65.13 141.901 64.8095 141.99 64.8095C142.097 64.8095 142.169 64.4889 142.169 64.0972C142.169 63.7054 142.258 63.3849 142.347 63.3849C142.453 63.3849 142.525 63.1177 142.525 62.7794C142.525 62.0493 142.703 61.9602 144.181 61.9602C145.427 61.9602 145.623 61.8712 145.784 61.2835C146.015 60.3753 145.944 60.3575 142.186 60.3575H138.66L138.465 61.0164Z" fill="black"/>
<path d="M220.576 60.7491C220.398 61.1409 220.131 62.0491 219.811 63.3847C219.722 63.723 219.579 64.3463 219.472 64.7381C219.365 65.1477 219.276 65.6463 219.276 65.86C219.276 66.0559 219.205 66.2339 219.098 66.2339C219.009 66.2339 218.92 66.5545 218.92 66.9463C218.92 67.338 218.849 67.6586 218.742 67.6586C218.653 67.6586 218.564 67.9791 218.564 68.3709C218.564 68.7626 218.493 69.0832 218.386 69.0832C218.297 69.0832 218.208 69.4037 218.208 69.7955C218.208 70.4544 218.244 70.5078 218.707 70.5078C219.526 70.5078 219.633 70.3475 220.149 68.2284C220.576 66.5189 220.683 66.1093 220.879 65.2545C221.217 63.7943 221.235 63.7765 221.485 64.1504C221.627 64.3107 221.876 65.2367 222.054 66.1983C222.393 68.0147 222.571 68.3709 223.194 68.3709C223.604 68.3709 224.797 67.2846 224.797 66.9106C224.797 66.7682 224.957 66.5545 225.153 66.412C225.349 66.2696 225.509 66.0559 225.509 65.9312C225.509 65.8066 225.598 65.6997 225.687 65.6997C225.794 65.6997 225.865 65.575 225.865 65.4326C225.865 65.2901 225.954 65.1655 226.043 65.1655C226.15 65.1655 226.221 65.0408 226.221 64.8984C226.221 64.7559 226.31 64.6312 226.399 64.6312C226.506 64.6312 226.578 64.5066 226.578 64.3641C226.578 64.2217 226.667 64.097 226.773 64.097C226.898 64.097 226.934 64.3641 226.862 64.8449C226.684 66.3586 226.542 66.9463 226.382 66.9463C226.293 66.9463 226.221 67.338 226.221 67.8366C226.221 68.3175 226.15 68.727 226.043 68.727C225.954 68.727 225.865 69.1188 225.865 69.6174C225.865 70.4366 225.901 70.5078 226.293 70.5078C226.987 70.5078 227.29 70.3119 227.29 69.8845C227.29 69.653 227.361 69.4215 227.45 69.3681C227.539 69.3147 227.646 68.9585 227.699 68.6024C227.753 68.2284 227.878 67.5873 227.984 67.1599C228.091 66.7504 228.251 66.1093 228.341 65.7353C228.43 65.3792 228.714 64.2751 228.964 63.2956C229.213 62.3162 229.427 61.2478 229.427 60.9272C229.427 60.3752 229.409 60.3574 228.625 60.3574C227.753 60.3574 227.254 60.6957 226.773 61.6395C226.631 61.9244 226.453 62.1381 226.364 62.1381C226.293 62.1381 226.221 62.2628 226.221 62.4053C226.221 62.5477 226.15 62.6724 226.043 62.6724C225.954 62.6724 225.865 62.797 225.865 62.9395C225.865 63.082 225.794 63.2066 225.687 63.2066C225.598 63.2066 225.509 63.3313 225.509 63.4737C225.509 63.6162 225.438 63.7408 225.331 63.7408C225.242 63.7408 225.153 63.8477 225.153 63.9723C225.153 64.097 225.01 64.3641 224.85 64.56C224.672 64.7381 224.423 65.112 224.28 65.397C223.817 66.2696 223.515 65.8778 223.194 64.008C222.98 62.708 222.695 61.1943 222.535 60.6601C222.482 60.4286 222.268 60.3574 221.609 60.3574C220.897 60.3574 220.737 60.4286 220.576 60.7491Z" fill="black"/>
<path d="M269.085 60.6779C268.907 60.856 268.782 61.2121 268.782 61.4793C268.782 61.7286 268.711 61.9957 268.604 62.0491C268.515 62.1025 268.426 62.4409 268.426 62.7792C268.426 63.1176 268.355 63.3847 268.248 63.3847C268.159 63.3847 268.07 63.7408 268.07 64.186C268.07 64.6312 267.999 64.9874 267.892 64.9874C267.803 64.9874 267.714 65.3079 267.714 65.6997C267.714 66.0915 267.642 66.412 267.536 66.412C267.446 66.412 267.357 66.7682 267.357 67.2134C267.357 67.6586 267.286 68.0147 267.197 68.0147C267.108 68.0147 267.001 68.2818 266.948 68.5846C266.894 68.9051 266.788 69.4037 266.716 69.6887C266.574 70.2585 266.823 70.5078 267.5 70.5078C268.088 70.5078 268.426 70.0982 268.426 69.3681C268.426 69.0298 268.515 68.6914 268.604 68.638C268.711 68.5846 268.782 68.2818 268.782 67.9969C268.782 67.2312 269.156 66.9463 270.1 66.9463C270.545 66.9463 270.919 66.8572 270.919 66.7682C270.919 66.6613 271.204 66.5901 271.542 66.5901C271.881 66.5901 272.166 66.5011 272.166 66.412C272.166 66.3052 272.326 66.2339 272.522 66.2339C272.718 66.2339 272.878 66.1449 272.878 66.0559C272.878 65.949 272.985 65.8778 273.109 65.8778C273.394 65.8778 274.303 64.9518 274.303 64.6669C274.303 64.5422 274.392 64.4532 274.481 64.4532C274.587 64.4532 274.659 64.2573 274.659 64.0258C274.659 63.7765 274.748 63.5272 274.837 63.4737C274.944 63.4203 275.015 63.1354 275.015 62.8505C275.015 62.5655 274.944 62.2806 274.837 62.2272C274.748 62.1738 274.659 61.9957 274.659 61.8354C274.659 61.4793 273.786 60.7135 273.376 60.7135C273.216 60.7135 273.02 60.6245 272.967 60.5354C272.913 60.4286 272.077 60.3574 271.115 60.3574C269.655 60.3574 269.316 60.4108 269.085 60.6779ZM272.771 62.2094C273.305 62.5477 273.376 63.2956 272.985 64.0792C272.646 64.7203 272.112 65.0586 270.955 65.3435C270.118 65.5572 269.993 65.5572 269.726 65.2901C269.477 65.0408 269.459 64.8984 269.655 64.2395C269.779 63.8121 269.975 63.1532 270.082 62.7614C270.189 62.3696 270.367 61.9779 270.474 61.9066C270.759 61.6751 272.272 61.871 272.771 62.2094Z" fill="black"/>
<path d="M106.517 63.0104C105.146 63.4556 103.526 65.0583 103.526 65.9665C103.526 66.1089 103.454 66.2336 103.348 66.2336C103.241 66.2336 103.17 66.7856 103.17 67.5158C103.17 68.602 103.241 68.8692 103.633 69.3856C103.882 69.7061 104.309 70.0979 104.594 70.2404C105.378 70.6499 106.909 70.5787 107.817 70.0979C108.743 69.6349 109.758 68.6733 109.758 68.2815C109.758 68.139 109.847 68.0144 109.936 68.0144C110.043 68.0144 110.115 67.8541 110.115 67.6582C110.115 67.4623 110.204 67.3021 110.293 67.3021C110.399 67.3021 110.471 66.6788 110.471 65.7884C110.471 64.898 110.399 64.2747 110.293 64.2747C110.204 64.2747 110.115 64.1857 110.115 64.0967C110.115 63.9898 109.901 63.6871 109.652 63.4378C109.278 63.0638 108.993 62.9748 108.102 62.9213C107.497 62.8857 106.785 62.9213 106.517 63.0104ZM108.245 64.4884C108.494 64.5953 108.69 64.7912 108.69 64.9336C108.69 65.0583 108.779 65.1651 108.868 65.1651C108.975 65.1651 109.046 65.5569 109.046 66.0555C109.046 66.5363 108.975 66.9459 108.868 66.9459C108.779 66.9459 108.69 67.1062 108.69 67.3021C108.69 67.498 108.619 67.6582 108.512 67.6582C108.423 67.6582 108.334 67.7651 108.334 67.8897C108.334 68.139 107.711 68.7267 107.443 68.7267C107.337 68.7267 107.265 68.7979 107.265 68.9048C107.265 69.1719 105.68 69.1185 105.413 68.8513C105.271 68.7267 105.039 68.3705 104.879 68.0678C104.612 67.5514 104.63 67.4267 104.897 66.5541C105.467 64.7734 106.909 63.8652 108.245 64.4884Z" fill="black"/>
<path d="M117.594 63.2066C116.828 63.6162 116.703 63.634 116.703 63.2956C116.703 63.0998 116.508 63.0285 116.027 63.0285C115.457 63.0285 115.297 63.1176 115.136 63.4737C115.012 63.723 114.923 64.0614 114.923 64.2217C114.923 64.3819 114.851 64.7559 114.762 65.0586C114.21 66.8394 113.961 67.8723 113.569 69.9202C113.445 70.49 113.462 70.5078 114.103 70.5078C114.691 70.5078 114.798 70.4366 115.029 69.8845C115.154 69.5462 115.279 69.0654 115.279 68.8161C115.279 68.5668 115.368 68.3709 115.457 68.3709C115.564 68.3709 115.635 68.0503 115.635 67.6586C115.635 67.2668 115.724 66.9463 115.813 66.9463C115.92 66.9463 115.991 66.7682 115.991 66.5367C115.991 66.3052 116.151 65.949 116.347 65.7353C116.543 65.5216 116.703 65.2723 116.703 65.1833C116.703 65.0942 116.864 64.9518 117.06 64.8984C117.255 64.8449 117.416 64.7025 117.416 64.6134C117.416 64.5244 117.718 64.4532 118.092 64.4532C118.449 64.4532 118.84 64.3819 118.929 64.3107C119.197 64.1326 119.553 63.4381 119.553 63.1176C119.553 62.7258 118.377 62.7792 117.594 63.2066Z" fill="black"/>
<path d="M123.898 63.171C121.779 64.1682 120.354 67.3558 121.244 69.0832C121.832 70.2407 122.348 70.5078 123.898 70.5078C125.5 70.5078 126.498 70.0448 126.498 69.2791C126.498 68.8695 125.589 68.5133 125.465 68.8695C125.429 68.9941 125.002 69.0832 124.379 69.0832C123.542 69.0832 123.292 69.012 122.972 68.6736C122.758 68.4421 122.58 68.0503 122.58 67.7832V67.3024H125.055H127.531L127.637 66.6257C127.922 64.9696 127.94 64.6669 127.762 64.56C127.655 64.4888 127.566 64.3107 127.566 64.1682C127.566 64.0258 127.37 63.7052 127.103 63.4559C126.48 62.8148 124.931 62.6902 123.898 63.171ZM125.661 64.3107C126.266 64.6312 126.498 64.934 126.498 65.4148V65.8778H124.824C123.88 65.8778 123.079 65.8066 123.025 65.6997C122.972 65.5929 122.99 65.5216 123.096 65.5216C123.185 65.5216 123.328 65.3614 123.381 65.1655C123.488 64.8093 124.574 64.1148 125.037 64.097C125.162 64.097 125.447 64.186 125.661 64.3107Z" fill="black"/>
<path d="M151.072 63.2066C150.307 63.6162 150.182 63.634 150.182 63.2956C150.182 63.0998 149.986 63.0285 149.505 63.0285C148.811 63.0285 148.597 63.2956 148.348 64.4532C147.831 66.7682 147.493 68.264 147.244 69.1366C147.084 69.7065 147.012 70.2407 147.066 70.3297C147.119 70.4366 147.404 70.5078 147.689 70.5078C148.241 70.5078 148.757 69.9736 148.757 69.3681C148.757 69.1722 148.829 68.7805 148.918 68.4777C149.025 68.175 149.22 67.4627 149.399 66.8928C149.773 65.5572 150.752 64.4532 151.571 64.4532C152.283 64.4532 152.675 64.2929 152.675 63.9902C152.675 63.8477 152.764 63.7408 152.853 63.7408C152.96 63.7408 153.031 63.545 153.031 63.2956C153.031 62.9039 152.96 62.8505 152.372 62.8505C151.998 62.8683 151.411 63.0107 151.072 63.2066Z" fill="black"/>
<path d="M157.946 63.0998C157.234 63.3669 155.863 64.7025 155.382 65.6107C155.222 65.9134 155.079 66.7682 155.026 67.6229L154.937 69.101L155.685 69.7955C156.361 70.4544 156.504 70.5078 157.412 70.5078C158.356 70.5078 159.05 70.2941 159.282 69.938C159.353 69.8311 159.709 69.9202 160.119 70.1338C161.009 70.5969 160.956 70.5969 161.401 70.116C161.757 69.7243 161.882 69.0832 161.597 69.0832C161.134 69.0832 161.276 68.0503 162.185 64.7559C162.648 63.082 162.63 63.0107 161.543 63.0107C161.027 63.0285 160.154 62.9929 159.62 62.9395C159.015 62.8861 158.374 62.9395 157.946 63.0998ZM160.119 64.4532C160.671 64.7915 160.885 65.1655 160.511 65.1655C160.422 65.1655 160.332 65.486 160.332 65.8778C160.332 66.2696 160.261 66.5901 160.154 66.5901C160.065 66.5901 159.976 66.9106 159.976 67.3024C159.976 67.6942 159.905 68.0147 159.798 68.0147C159.709 68.0147 159.62 68.1216 159.62 68.264C159.62 68.4065 159.46 68.5846 159.264 68.638C159.068 68.6914 158.908 68.8339 158.908 68.9229C158.908 69.012 158.534 69.0832 158.089 69.0832C157.181 69.0832 156.682 68.7092 156.468 67.8723C156.379 67.4983 156.7 66.0915 156.949 65.8778C157.002 65.8244 157.145 65.575 157.27 65.3257C157.501 64.8805 158.73 64.1326 159.264 64.1148C159.406 64.097 159.798 64.2573 160.119 64.4532Z" fill="black"/>
<path d="M166.423 63.1706C165.906 63.4199 165.835 63.5268 165.942 63.9185C166.013 64.1679 166.102 64.7199 166.138 65.1651C166.191 65.6103 166.298 66.1267 166.387 66.3226C166.476 66.5185 166.583 67.0705 166.637 67.5691C166.85 69.5992 166.975 70.2403 167.171 70.365C167.563 70.6321 168.346 70.5074 168.667 70.1335C168.827 69.9198 169.058 69.6705 169.147 69.5458C169.254 69.439 169.432 69.1362 169.575 68.8513C169.717 68.5842 169.895 68.3705 169.984 68.3705C170.056 68.3705 170.127 68.2458 170.127 68.1034C170.127 67.9431 170.305 67.6226 170.536 67.3911C170.75 67.1596 171.124 66.6431 171.373 66.2336C171.623 65.8062 172.086 65.0761 172.406 64.5774C173.083 63.4912 173.119 63.2418 172.584 63.046C172.015 62.8323 171.854 62.9391 171.356 63.7583C171.124 64.15 170.786 64.6309 170.626 64.8446C170.447 65.0404 170.269 65.361 170.216 65.5391C170.145 65.7349 170.038 65.8774 169.967 65.8774C169.878 65.8774 169.717 66.1089 169.593 66.4116C169.468 66.6966 169.308 66.9459 169.219 66.9459C169.13 66.9459 169.058 67.0705 169.058 67.2308C169.058 67.3733 168.934 67.6226 168.791 67.765C168.328 68.228 167.99 67.676 167.99 66.5185C167.99 65.9664 167.919 65.5212 167.812 65.5212C167.705 65.5212 167.634 65.0404 167.634 64.435C167.634 63.7405 167.545 63.2775 167.384 63.0994C167.082 62.7967 167.153 62.7967 166.423 63.1706Z" fill="black"/>
<path d="M177.944 63.0999C177.214 63.3492 175.647 64.8273 175.647 65.2546C175.647 65.3971 175.576 65.5218 175.469 65.5218C175.38 65.5218 175.291 65.7177 175.291 65.9492C175.291 66.1985 175.22 66.4478 175.113 66.5012C175.024 66.5546 174.935 67.1601 174.935 67.8546C174.935 68.5491 175.006 69.0833 175.113 69.0833C175.22 69.0833 175.291 69.208 175.291 69.3683C175.291 69.7244 175.718 70.1518 176.075 70.1518C176.235 70.1518 176.36 70.223 176.36 70.3299C176.36 70.5792 178.906 70.5436 179.512 70.2943C180.135 70.0093 180.277 69.8313 180.277 69.208C180.277 68.8518 180.188 68.7272 179.939 68.7272C179.743 68.7272 179.529 68.7984 179.476 68.9053C179.423 68.9943 178.888 69.0833 178.301 69.0833C177.41 69.0833 177.161 69.0121 176.805 68.6381C176.288 68.1395 176.253 67.908 176.609 67.5519C176.805 67.356 177.41 67.3025 179.102 67.3025H181.328L181.506 66.6259C182.272 63.8834 180.544 62.1561 177.944 63.0999ZM179.512 64.3108C180.135 64.5958 180.277 64.7738 180.277 65.3793V65.8779H178.675C177.339 65.8779 177.072 65.8245 177.072 65.6108C177.072 65.219 177.784 64.5423 178.425 64.3108C178.71 64.204 178.96 64.1149 178.977 64.1149C178.995 64.0971 179.244 64.204 179.512 64.3108Z" fill="black"/>
<path d="M235.571 63.0107C234.449 63.3669 232.81 64.7025 232.81 65.2545C232.81 65.397 232.757 65.5216 232.668 65.5216C232.223 65.5216 231.92 68.2462 232.294 68.9407C232.846 69.9736 233.736 70.5078 234.876 70.5078C236.639 70.5078 238.17 69.5106 239.096 67.7476C239.666 66.6791 239.648 64.7559 239.061 63.9367C238.829 63.6162 238.366 63.2244 238.046 63.0998C237.44 62.8505 236.194 62.797 235.571 63.0107ZM237.405 64.5956C238.491 65.5394 237.832 67.9613 236.229 68.8517C235.784 69.1188 234.591 69.1544 234.591 68.9229C234.591 68.8339 234.431 68.6914 234.235 68.638C234.003 68.5668 233.879 68.3709 233.879 68.1038C233.879 67.8723 233.772 67.6408 233.665 67.5873C233.487 67.4983 233.487 67.4627 233.665 67.3736C233.772 67.3202 233.879 66.9641 233.879 66.5723C233.879 66.1983 233.968 65.8778 234.057 65.8778C234.164 65.8778 234.235 65.7531 234.235 65.6107C234.235 65.4682 234.324 65.3435 234.413 65.3435C234.52 65.3435 234.591 65.2367 234.591 65.0942C234.591 64.7915 235.731 64.2929 236.479 64.2929C236.781 64.2751 237.191 64.4175 237.405 64.5956Z" fill="black"/>
<path d="M246.879 62.9751C246.736 63.0285 246.398 63.2244 246.131 63.4203C245.668 63.7408 245.65 63.7408 245.543 63.3847C245.472 63.1532 245.276 63.0285 245.009 63.0285C244.296 63.0285 244.029 63.2244 244.029 63.7408C244.029 64.0258 243.958 64.3107 243.851 64.3641C243.762 64.4175 243.673 64.7381 243.673 65.0764C243.673 65.4148 243.602 65.7353 243.495 65.7887C243.406 65.8422 243.317 66.2161 243.317 66.6079C243.317 66.9819 243.246 67.3024 243.139 67.3024C243.05 67.3024 242.961 67.6229 242.961 68.0147C242.961 68.4065 242.89 68.727 242.783 68.727C242.694 68.727 242.605 69.1188 242.605 69.6174C242.605 70.4722 242.622 70.5078 243.103 70.5078C243.709 70.5078 244.029 70.2229 244.029 69.6887C244.029 69.4572 244.118 69.2257 244.207 69.1722C244.314 69.1188 244.385 68.8873 244.385 68.6914C244.385 68.4777 244.457 68.0681 244.563 67.7654C244.653 67.4627 244.777 67.0175 244.813 66.7682C244.955 66.1093 245.81 64.8627 246.291 64.649C246.522 64.5422 246.985 64.4532 247.306 64.4532C247.965 64.4532 248.481 63.9011 248.481 63.2066C248.481 62.9039 248.374 62.8505 247.822 62.8683C247.448 62.8683 247.021 62.9217 246.879 62.9751Z" fill="black"/>
<path d="M252.844 63.1711C251.972 63.5807 250.974 64.4889 250.974 64.8807C250.974 65.0409 250.903 65.1656 250.796 65.1656C250.707 65.1656 250.618 65.3259 250.618 65.5217C250.618 65.7176 250.565 65.8779 250.476 65.8779C250.28 65.8779 249.906 67.2135 249.906 67.908C249.906 68.5847 250.226 69.4395 250.476 69.4395C250.547 69.4395 250.618 69.5463 250.618 69.6888C250.618 69.8312 250.778 70.0093 250.974 70.0627C251.17 70.1162 251.33 70.2586 251.33 70.3477C251.33 70.6504 254.037 70.5257 254.696 70.1874C255.034 70.0271 255.284 69.8312 255.266 69.7422C255.266 69.671 255.248 69.4217 255.248 69.1724C255.248 68.8518 255.159 68.7272 254.91 68.7272C254.714 68.7272 254.5 68.7984 254.447 68.9052C254.269 69.1902 252.239 69.1189 251.936 68.834C251.793 68.6915 251.687 68.282 251.687 67.9436V67.3025H254.055H256.406L256.637 66.5902C257.065 65.219 256.833 64.0971 255.996 63.3314C255.444 62.8328 253.752 62.7437 252.844 63.1711ZM254.607 64.3464C255.195 64.5957 255.569 65.3081 255.337 65.6998C255.159 65.9848 252.043 65.9313 252.043 65.6464C252.061 65.2724 252.506 64.8094 253.218 64.4533C254.055 64.0437 253.895 64.0437 254.607 64.3464Z" fill="black"/>
<path d="M279.716 63.0463C279.057 63.2244 277.508 64.56 277.508 64.9162C277.508 65.0586 277.437 65.1655 277.33 65.1655C277.241 65.1655 277.152 65.3257 277.152 65.5216C277.152 65.7175 277.081 65.8778 276.974 65.8778C276.885 65.8778 276.796 66.1983 276.796 66.5901C276.796 66.9819 276.724 67.3024 276.618 67.3024C276.172 67.3024 276.635 69.101 277.259 69.7243C277.864 70.3475 278.309 70.5078 279.485 70.5078C281.354 70.5078 282.263 69.938 281.889 68.9941C281.782 68.6914 281.141 68.638 280.98 68.9051C280.927 68.9941 280.428 69.0832 279.912 69.0832C278.719 69.0832 278.22 68.727 278.22 67.8901V67.3024H280.589C282.975 67.3024 282.975 67.3024 283.171 66.8572C283.438 66.2874 283.456 64.097 283.206 64.097C283.117 64.097 283.028 64.008 283.028 63.9011C283.028 63.0998 281.194 62.619 279.716 63.0463ZM281.39 64.4532C281.835 64.7203 281.96 64.934 281.96 65.3435V65.8778H280.268C279.324 65.8778 278.576 65.8066 278.576 65.7175C278.576 65.3614 279.431 64.56 280.019 64.3463C280.82 64.0614 280.713 64.0436 281.39 64.4532Z" fill="black"/>
<path d="M289.439 63.117C286.483 64.4526 285.415 69.047 287.783 70.2935C288.389 70.6319 289.724 70.5429 290.525 70.1511C291.167 69.8127 291.256 69.8127 291.505 70.062C291.932 70.4716 292.591 70.5785 292.912 70.2757C293.214 69.973 293.286 69.0826 293.001 69.0826C292.912 69.0826 292.823 68.7621 292.823 68.3703C292.823 67.9785 292.912 67.658 293.001 67.658C293.108 67.658 293.179 67.3374 293.179 66.9457C293.179 66.5539 293.268 66.2334 293.357 66.2334C293.464 66.2334 293.535 65.9128 293.535 65.5389C293.535 65.1471 293.624 64.7731 293.713 64.7197C293.82 64.6663 293.891 64.2567 293.891 63.8115C293.891 63.0458 293.873 63.028 293.303 63.028C292.965 63.028 292.11 62.9923 291.38 62.9389C290.401 62.8677 289.902 62.9033 289.439 63.117ZM291.719 64.3992C292.039 64.4704 292.11 64.6129 292.11 65.1827C292.11 65.5745 292.039 65.8772 291.95 65.8772C291.861 65.8772 291.754 66.1443 291.701 66.4471C291.362 68.3525 291.184 68.7265 290.614 68.7265C290.454 68.7265 290.33 68.7977 290.33 68.9045C290.33 69.1717 288.923 69.1182 288.656 68.8511C287.926 68.1388 287.872 67.0169 288.495 65.806C289.012 64.7909 290.33 63.9718 291.042 64.2211C291.184 64.2745 291.487 64.3635 291.719 64.3992Z" fill="black"/>
<path d="M300.818 63.0105C299.768 63.331 298.343 64.4351 298.343 64.9337C298.343 65.0584 298.272 65.1652 298.183 65.1652C298.005 65.1652 297.738 65.8241 297.453 66.8926C297.114 68.246 297.702 69.7062 298.842 70.3117C299.305 70.561 301.548 70.5788 301.548 70.3295C301.548 70.2226 301.709 70.1514 301.905 70.1514C302.207 70.1514 302.261 70.0268 302.261 69.4391C302.261 68.8514 302.207 68.7268 301.905 68.7268C301.709 68.7268 301.548 68.798 301.548 68.9049C301.548 68.9939 301.192 69.0829 300.747 69.0829C299.554 69.0829 299.055 68.5309 299.055 67.2131C299.055 66.6789 299.144 66.2337 299.233 66.2337C299.34 66.2337 299.412 66.109 299.412 65.9488C299.412 65.7885 299.696 65.3789 300.07 65.005C300.694 64.3817 300.747 64.3639 301.958 64.3817C303.311 64.4173 303.685 64.2214 303.685 63.5625C303.685 62.9393 302.1 62.6365 300.818 63.0105Z" fill="black"/>
<path d="M309.259 62.975C309.028 63.0106 308.85 63.1174 308.85 63.2065C308.85 63.2955 308.689 63.4202 308.476 63.4736C307.959 63.6517 307.194 64.4886 306.748 65.379C305.644 67.6228 305.894 69.457 307.425 70.2406C308.048 70.5611 309.669 70.5789 310.63 70.294C311.289 70.0803 311.343 70.0269 311.343 69.4036C311.343 68.8516 311.272 68.7269 310.987 68.7269C310.791 68.7269 310.63 68.7981 310.63 68.905C310.63 69.0118 310.114 69.0831 309.455 69.0831C308.102 69.0831 307.781 68.8694 307.781 67.9434V67.3023H310.025C311.645 67.3023 312.322 67.2311 312.5 67.0708C312.625 66.9283 312.785 66.3941 312.856 65.8598C313.141 63.5983 311.735 62.4942 309.259 62.975ZM310.702 64.3462C311.289 64.5955 311.663 65.3078 311.432 65.6996C311.254 65.9845 308.137 65.9311 308.137 65.6462C308.137 65.3078 308.885 64.5599 309.473 64.3284C309.776 64.2215 310.025 64.1325 310.061 64.1147C310.078 64.0969 310.381 64.2037 310.702 64.3462Z" fill="black"/>
</svg>
