<svg width="363" height="71" viewBox="0 0 363 71" fill="none" xmlns="http://www.w3.org/2000/svg">
<path d="M0.82799 0.968167C0.649912 1.16405 0.596489 6.61324 0.596489 26.9676V52.6999H5.13748H9.67847V26.9498C9.67847 4.88589 9.64286 1.18186 9.42916 0.950359C9.0552 0.576395 1.14853 0.594203 0.82799 0.968167Z" fill="#0F5B92"/>
<path d="M42.7119 12.9706C40.7353 13.2021 39.3463 13.6473 36.7463 14.8405C36.497 14.9473 36.1943 15.1432 36.0696 15.25C35.945 15.3747 35.7669 15.4815 35.6779 15.4815C35.6066 15.4815 35.2861 15.713 34.9834 15.998C34.6628 16.3007 34.2532 16.5856 34.0573 16.639C33.8793 16.7103 33.719 16.8349 33.719 16.924C33.719 17.013 33.6478 17.0842 33.5409 17.0842C33.4519 17.0842 33.345 16.3007 33.3272 15.3391L33.2738 13.6117L29.3739 13.5583C26.3644 13.5227 25.4384 13.5761 25.3137 13.7364C25.2425 13.861 25.1712 22.6759 25.1712 33.325V52.6999H29.4451H33.719V39.8248C33.719 27.1635 33.719 26.9498 34.0752 26.7005C34.271 26.558 34.4313 26.3443 34.4313 26.2018C34.4313 25.8991 37.3874 22.9608 38.3846 22.2841C39.1326 21.7677 40.0764 21.3047 41.3764 20.8061C41.7503 20.6636 42.6763 20.5568 43.6914 20.5746C45.205 20.5746 45.49 20.628 46.4338 21.091C47.9474 21.8567 48.9981 23.1923 49.4611 25.0087C49.568 25.4539 49.657 30.7784 49.6926 39.2015L49.746 52.6999H53.9309H58.1157L58.0623 38.3111C58.0267 30.4045 57.9554 23.6909 57.8842 23.406C57.5637 22.1773 57.35 21.4115 57.1363 20.9129C56.6733 19.8088 56.2637 18.9541 56.1568 18.865C56.0856 18.8116 55.9253 18.5801 55.8007 18.3486C55.5158 17.7965 55.4089 17.6541 54.1624 16.3719C53.6103 15.7843 53.0761 15.3035 52.9871 15.3035C52.9158 15.3035 52.6843 15.1432 52.4706 14.9651C50.8679 13.4693 46.3982 12.5611 42.7119 12.9706Z" fill="#0F5B92"/>
<path d="M89.9918 12.9884C88.3 13.2199 85.0056 14.1816 85.0056 14.4487C85.0056 14.5377 84.8453 14.5911 84.6494 14.5911C84.4535 14.5911 84.2933 14.6624 84.2933 14.7692C84.2933 14.8583 84.133 14.9473 83.9371 14.9473C83.7412 14.9473 83.5809 15.0185 83.5809 15.1254C83.5809 15.2144 83.4741 15.3035 83.3494 15.3035C83.2248 15.3035 82.9399 15.4637 82.7262 15.6596C82.5125 15.8555 82.2988 16.0158 82.2275 16.0158C82.1741 16.0158 81.8892 16.2473 81.6221 16.55C80.8385 17.387 80.7317 17.2623 80.7317 15.5172C80.7317 14.6624 80.6605 13.861 80.5892 13.7364C80.4646 13.5761 79.5386 13.5227 76.529 13.5583L72.6291 13.6117L72.5757 33.1469L72.5401 52.6999H76.7249H80.9098V40.0029C80.9098 28.1607 80.9276 27.2703 81.2303 26.9142C81.3906 26.7183 81.6577 26.3799 81.8002 26.1662C82.1741 25.5964 85.0056 22.7649 85.6466 22.3197C86.3768 21.8033 87.4987 21.2335 88.5137 20.8773C90.1164 20.3253 93.3218 20.539 94.23 21.2691C95.5122 22.2841 96.0998 23.0855 96.6875 24.5635C96.9902 25.3114 97.008 26.4333 97.0615 39.0235L97.1327 52.6999H101.407H105.68L105.609 38.8454C105.556 27.0922 105.502 24.8128 105.253 23.7266C104.915 22.2307 104.202 20.0403 104.024 19.9691C103.935 19.9335 103.882 19.7554 103.882 19.5595C103.882 19.3814 103.811 19.2212 103.704 19.2212C103.615 19.2212 103.526 19.1143 103.526 18.9897C103.526 18.865 103.365 18.5801 103.17 18.3664C102.974 18.1527 102.813 17.9034 102.813 17.7966C102.813 17.5829 100.57 15.3035 100.356 15.3035C100.285 15.3035 100.053 15.161 99.8573 14.9829C98.2368 13.4871 93.4465 12.5254 89.9918 12.9884Z" fill="#0F5B92"/>
<path d="M133.532 12.9173C131.288 13.1666 127.566 14.431 126.711 15.2501C126.587 15.3748 126.409 15.4816 126.32 15.4816C126.231 15.4816 125.963 15.6775 125.714 15.9268C125.465 16.1761 125.198 16.372 125.091 16.372C124.948 16.372 122.865 18.3843 122.259 19.1322C121.636 19.8623 120.265 22.0883 120.265 22.3376C120.265 22.4801 120.194 22.6047 120.087 22.6047C119.998 22.6047 119.909 22.765 119.909 22.9609C119.909 23.1568 119.838 23.3171 119.731 23.3171C119.642 23.3171 119.553 23.4773 119.553 23.6554C119.553 23.8513 119.481 24.065 119.375 24.1184C119.286 24.1718 119.197 24.4211 119.197 24.6704C119.197 24.902 119.125 25.0978 119.018 25.0978C118.929 25.0978 118.84 25.3293 118.84 25.6321C118.84 25.917 118.769 26.1663 118.662 26.1663C118.573 26.1663 118.484 26.4868 118.484 26.8786C118.484 27.2704 118.413 27.5909 118.306 27.5909C118.199 27.5909 118.128 28.0717 118.128 28.6594C118.128 29.2471 118.057 29.7279 117.95 29.7279C117.843 29.7279 117.772 31.0278 117.772 33.2894C117.772 35.551 117.843 36.851 117.95 36.851C118.057 36.851 118.128 37.3318 118.128 37.9195C118.128 38.5071 118.199 38.9879 118.306 38.9879C118.413 38.9879 118.484 39.3085 118.484 39.7002C118.484 40.092 118.573 40.4126 118.662 40.4126C118.769 40.4126 118.84 40.5728 118.84 40.7687C118.84 41.2673 119.25 42.5495 119.41 42.5495C119.499 42.5495 119.553 42.6741 119.553 42.8166C119.553 43.3152 120.764 45.5056 121.707 46.7521C122.758 48.1233 124.485 49.8507 124.788 49.8507C124.895 49.8507 125.109 50.011 125.251 50.2068C125.394 50.4027 125.625 50.563 125.785 50.563C125.946 50.563 126.177 50.7233 126.32 50.9192C126.462 51.115 126.711 51.2753 126.89 51.2753C127.068 51.2753 127.21 51.3465 127.21 51.4534C127.21 51.5424 127.37 51.6315 127.566 51.6315C127.762 51.6315 127.922 51.7027 127.922 51.8096C127.922 51.8986 128.1 51.9876 128.332 51.9876C128.563 51.9876 128.813 52.0411 128.884 52.1123C129.062 52.3082 130.291 52.6999 130.683 52.6999C130.896 52.6999 131.128 52.7712 131.217 52.8602C131.822 53.4301 140.78 53.4479 142.08 52.878C142.275 52.789 142.756 52.6821 143.148 52.6109C144.626 52.3972 145.018 52.3082 145.018 52.1479C145.018 52.0589 145.285 51.9876 145.623 51.9876C145.962 51.9876 146.3 51.8986 146.353 51.8096C146.407 51.7027 146.656 51.6315 146.905 51.6315C147.137 51.6315 147.333 51.5424 147.333 51.4534C147.333 51.3465 147.582 51.2753 147.867 51.2753C148.17 51.2753 148.401 51.1863 148.401 51.0972C148.401 50.9904 148.562 50.9192 148.757 50.9192C148.953 50.9192 149.114 50.8301 149.114 50.7411C149.114 50.6342 149.363 50.563 149.648 50.563C150.057 50.563 150.182 50.4918 150.182 50.2068C150.182 50.011 150.111 49.8507 150.004 49.8507C149.915 49.8507 149.826 49.5302 149.826 49.1384C149.826 48.7466 149.755 48.4261 149.648 48.4261C149.559 48.4261 149.47 48.1946 149.47 47.9096C149.47 47.6069 149.399 47.322 149.292 47.2686C149.203 47.2151 149.114 46.8946 149.114 46.5562C149.114 46.2179 149.042 45.8974 148.936 45.8439C148.847 45.7905 148.757 45.559 148.757 45.3453C148.757 44.9179 148.152 43.1193 147.938 42.9235C147.867 42.87 147.778 42.9235 147.742 43.0303C147.689 43.155 147.547 43.2618 147.404 43.2618C147.262 43.2618 146.995 43.333 146.799 43.4399C146.603 43.5289 146.282 43.6892 146.086 43.796C145.89 43.8851 145.57 43.9741 145.374 43.9741C145.178 43.9741 145.018 44.0453 145.018 44.1522C145.018 44.2412 144.822 44.3303 144.59 44.3303C144.341 44.3303 144.092 44.4015 144.038 44.5083C143.985 44.5974 143.7 44.6864 143.397 44.6864C143.112 44.6864 142.881 44.7399 142.881 44.8289C142.881 45.007 141.171 45.3097 138.732 45.5946C136.007 45.9152 133.781 45.5768 131.306 44.4905C131.021 44.3481 130.772 44.1878 130.772 44.1166C130.772 44.0275 130.647 43.9741 130.504 43.9741C130.362 43.9741 130.237 43.8851 130.237 43.796C130.237 43.6892 130.148 43.618 130.059 43.618C129.792 43.618 128.279 42.0687 128.279 41.7838C128.279 41.6591 128.118 41.4454 127.922 41.3029C127.726 41.1605 127.566 40.9112 127.566 40.7331C127.566 40.555 127.495 40.4126 127.388 40.4126C127.299 40.4126 127.21 40.1632 127.21 39.8783C127.21 39.5756 127.139 39.3441 127.032 39.3441C126.943 39.3441 126.854 39.0948 126.854 38.8099C126.854 38.5071 126.783 38.2756 126.676 38.2756C126.587 38.2756 126.498 37.9195 126.498 37.4743V36.6729H139.195H151.874L152.105 35.9606C152.372 35.088 152.408 28.0183 152.141 27.858C152.052 27.8046 151.963 27.306 151.963 26.7718C151.963 26.2375 151.892 25.8101 151.785 25.8101C151.696 25.8101 151.607 25.4896 151.607 25.0978C151.607 24.7061 151.536 24.3855 151.429 24.3855C151.34 24.3855 151.251 24.1896 151.251 23.9403C151.251 23.691 151.179 23.4951 151.073 23.4951C150.983 23.4951 150.894 23.2992 150.894 23.0499C150.894 22.8006 150.823 22.6047 150.716 22.6047C150.627 22.6047 150.538 22.4445 150.538 22.2664C150.538 22.0705 150.467 21.8568 150.36 21.8034C150.271 21.75 150.182 21.5363 150.182 21.3404C150.182 21.1623 150.111 21.002 150.004 21.002C149.915 21.002 149.826 20.8774 149.826 20.7349C149.826 20.5925 149.755 20.4678 149.648 20.4678C149.559 20.4678 149.47 20.3432 149.47 20.2007C149.47 20.0582 149.399 19.9336 149.292 19.9336C149.203 19.9336 149.114 19.8267 149.114 19.7021C149.114 19.2569 146.051 16.0159 145.623 16.0159C145.588 16.0159 145.374 15.8556 145.16 15.6597C144.947 15.4638 144.662 15.3035 144.537 15.3035C144.412 15.3035 144.306 15.2323 144.306 15.1611C144.306 15.0186 143.522 14.6268 141.688 13.8967C141.189 13.683 140.192 13.3981 139.497 13.2556C138.18 12.9707 134.778 12.7926 133.532 12.9173ZM136.773 20.4856C138.376 20.7171 139.07 20.9308 140.299 21.5719C141.207 22.0527 142.525 23.1568 142.525 23.4417C142.525 23.5307 142.685 23.7088 142.881 23.8513C143.077 23.9938 143.237 24.2431 143.237 24.4211C143.237 24.5992 143.326 24.7417 143.415 24.7417C143.522 24.7417 143.593 24.902 143.593 25.0978C143.593 25.2937 143.682 25.454 143.771 25.454C143.878 25.454 143.949 25.7745 143.949 26.1663C143.949 26.5581 144.038 26.8786 144.127 26.8786C144.234 26.8786 144.306 27.4485 144.306 28.2142V29.5498H135.402H126.498V28.3923C126.498 27.7334 126.569 27.2348 126.676 27.2348C126.783 27.2348 126.854 26.9855 126.854 26.7005C126.854 26.3978 126.943 26.1663 127.032 26.1663C127.139 26.1663 127.21 26.006 127.21 25.8101C127.21 25.6143 127.299 25.454 127.388 25.454C127.495 25.454 127.566 25.2937 127.566 25.0978C127.566 24.902 127.655 24.7417 127.744 24.7417C127.851 24.7417 127.922 24.617 127.922 24.4746C127.922 23.9225 129.489 22.2842 130.683 21.5897C131.947 20.8596 133.14 20.5212 135.17 20.3075C135.295 20.3075 136.007 20.3788 136.773 20.4856Z" fill="#0F5B92"/>
<path d="M181.435 12.9884C180.153 13.2199 177.286 14.1816 177.072 14.4309C177.018 14.5021 176.627 14.7158 176.199 14.9473C175.772 15.161 175.256 15.4815 175.06 15.6774C174.846 15.8555 174.614 16.0158 174.525 16.0158C174.436 16.0158 174.062 16.3363 173.688 16.7281C173.314 17.1199 172.958 17.4404 172.905 17.4404C172.851 17.4404 172.78 16.5856 172.762 15.5171L172.709 13.6117L168.809 13.5583C165.8 13.5227 164.874 13.5761 164.749 13.7364C164.678 13.861 164.606 22.6759 164.606 33.325V52.6999H168.88H173.154V42.0686C173.154 31.9181 173.225 30.1017 173.688 28.9264C173.777 28.7305 173.938 28.1963 174.062 27.7155C174.205 27.2525 174.365 26.8785 174.436 26.8785C174.508 26.8785 174.579 26.7183 174.579 26.5224C174.579 26.3265 174.668 26.1662 174.757 26.1662C174.864 26.1662 174.935 26.006 174.935 25.8101C174.935 25.6142 175.024 25.4539 175.113 25.4539C175.22 25.4539 175.291 25.3293 175.291 25.2046C175.291 25.0621 175.808 24.4211 176.449 23.78C178.853 21.3759 182.076 20.5924 185.103 21.6787C185.655 21.8745 186.19 21.9814 186.279 21.9102C186.457 21.8033 186.635 21.2156 186.813 20.1472C186.866 19.8444 186.973 19.5773 187.062 19.5773C187.151 19.5773 187.222 19.3993 187.222 19.1856C187.222 18.9719 187.383 18.3486 187.561 17.8144C188.184 15.998 188.861 13.6651 188.772 13.5939C188.291 13.1131 183.091 12.6857 181.435 12.9884Z" fill="#0F5B92"/>
<path d="M215.982 12.9172C214.344 13.1843 212.403 13.8075 210.871 14.5377C209.91 14.9829 209.126 15.4281 209.126 15.5171C209.126 15.5883 209.019 15.6596 208.912 15.6596C208.788 15.6596 208.467 15.8376 208.2 16.0691C207.951 16.2828 207.559 16.6034 207.363 16.7636C206.793 17.2445 206.526 17.1554 205.618 16.2294C204.781 15.3924 202.733 14.2349 202.056 14.2349C201.878 14.2349 201.415 14.1281 201.023 13.9856C200.632 13.8432 199.617 13.6829 198.762 13.6117L197.213 13.487L197.017 14.2706C196.91 14.6801 196.696 15.4815 196.554 16.0157C196.393 16.55 196.197 17.2979 196.108 17.654C195.752 19.1499 195.539 19.8622 195.396 20.2362C195.254 20.6279 195.289 20.6457 196.091 20.6457C197.551 20.6457 199.332 21.4115 199.332 22.0169C199.332 22.1416 199.421 22.2484 199.51 22.2484C199.634 22.2484 199.688 30.0483 199.688 45.3096V68.3707H204.051H208.414V59.4668C208.414 53.6436 208.467 50.5629 208.592 50.5629C208.699 50.5629 208.77 50.6341 208.77 50.7409C208.77 50.83 208.912 50.919 209.09 50.919C209.268 50.919 209.518 51.0793 209.66 51.2752C209.803 51.4711 210.088 51.6313 210.319 51.6313C210.533 51.6313 210.764 51.7026 210.818 51.8094C210.871 51.8985 211.085 51.9875 211.281 51.9875C211.459 51.9875 211.619 52.0587 211.619 52.1656C211.619 52.2546 211.868 52.3437 212.153 52.3437C212.456 52.3437 212.688 52.4149 212.688 52.5039C212.688 52.593 212.99 52.7176 213.364 52.771C213.72 52.8423 214.468 52.9669 215.003 53.0916C216.783 53.4477 221.396 53.2875 221.859 52.8601C221.948 52.771 222.197 52.6998 222.428 52.6998C222.642 52.6998 223.105 52.5395 223.461 52.3437C223.817 52.1478 224.245 51.9875 224.441 51.9875C224.637 51.9875 224.797 51.8985 224.797 51.8094C224.797 51.7026 224.921 51.6313 225.064 51.6313C225.206 51.6313 225.331 51.5423 225.331 51.4533C225.331 51.3464 225.456 51.2752 225.598 51.2752C225.741 51.2752 225.865 51.1861 225.865 51.0971C225.865 50.9903 226.008 50.919 226.186 50.919C226.364 50.919 226.613 50.7588 226.756 50.5629C226.898 50.367 227.112 50.2067 227.219 50.2067C227.486 50.2067 229.48 48.2479 230.406 47.0903C230.798 46.5917 231.172 46.1643 231.261 46.1465C231.332 46.1109 231.386 45.9863 231.386 45.8616C231.386 45.737 231.528 45.4876 231.706 45.2918C232.134 44.7931 232.454 44.2055 232.454 43.8849C232.454 43.7425 232.543 43.6178 232.632 43.6178C232.739 43.6178 232.81 43.4576 232.81 43.2617C232.81 43.0658 232.899 42.9055 232.988 42.9055C233.095 42.9055 233.167 42.7452 233.167 42.5494C233.167 42.3535 233.256 42.1932 233.345 42.1932C233.451 42.1932 233.523 42.0329 233.523 41.837C233.523 41.6412 233.612 41.4809 233.701 41.4809C233.808 41.4809 233.879 41.2316 233.879 40.9467C233.879 40.6439 233.968 40.4124 234.057 40.4124C234.164 40.4124 234.235 40.0919 234.235 39.7001C234.235 39.3083 234.324 38.9878 234.413 38.9878C234.52 38.9878 234.591 38.6316 234.591 38.1864C234.591 37.7412 234.662 37.3851 234.751 37.3851C235.09 37.3851 235.268 32.4345 235.036 29.5853C234.965 28.7839 234.84 28.125 234.751 28.125C234.662 28.125 234.591 27.7689 234.591 27.3237C234.591 26.8785 234.52 26.5223 234.413 26.5223C234.324 26.5223 234.235 26.273 234.235 25.9881C234.235 25.6854 234.164 25.4539 234.057 25.4539C233.968 25.4539 233.879 25.2045 233.879 24.9196C233.879 24.6169 233.808 24.3854 233.701 24.3854C233.612 24.3854 233.523 24.1361 233.523 23.8512C233.523 23.5484 233.451 23.3169 233.345 23.3169C233.256 23.3169 233.167 23.1566 233.167 22.9608C233.167 22.7649 233.095 22.6046 232.988 22.6046C232.899 22.6046 232.81 22.4443 232.81 22.2484C232.81 22.0526 232.757 21.8923 232.668 21.8923C232.597 21.8923 232.436 21.6252 232.294 21.3046C232.151 21.0019 231.991 20.6992 231.92 20.6457C231.867 20.5923 231.617 20.2718 231.386 19.9334C230.887 19.2389 230.691 18.9896 229.445 17.654C228.946 17.1554 228.519 16.728 228.465 16.728C228.376 16.728 228.198 16.5856 227.254 15.802C227.058 15.6239 226.738 15.4459 226.56 15.3924C226.364 15.3212 226.221 15.2144 226.221 15.1431C226.221 15.0185 225.616 14.7336 223.604 13.8966C223.105 13.7007 222.179 13.398 221.556 13.2555C220.398 12.9706 216.926 12.7747 215.982 12.9172ZM219.633 20.7526C220.167 20.9307 220.648 21.1444 220.665 21.2156C220.701 21.2868 220.808 21.3581 220.915 21.3581C221.431 21.3581 224.085 23.6375 224.085 24.1005C224.085 24.2073 224.245 24.421 224.441 24.5635C224.637 24.7059 224.797 24.9552 224.797 25.1333C224.797 25.3114 224.886 25.4539 224.975 25.4539C225.082 25.4539 225.153 25.6141 225.153 25.81C225.153 26.0059 225.242 26.1662 225.331 26.1662C225.438 26.1662 225.509 26.3264 225.509 26.5223C225.509 26.7182 225.598 26.8785 225.687 26.8785C225.794 26.8785 225.865 27.1634 225.865 27.5018C225.865 27.8401 225.954 28.125 226.043 28.125C226.15 28.125 226.221 28.5168 226.221 29.0154C226.221 29.4962 226.311 29.9058 226.4 29.9058C226.506 29.9058 226.578 31.0277 226.578 32.9331C226.578 34.8386 226.506 35.9605 226.4 35.9605C226.311 35.9605 226.221 36.3522 226.221 36.8509C226.221 37.3317 226.15 37.7412 226.043 37.7412C225.954 37.7412 225.865 38.0262 225.865 38.3645C225.865 38.7029 225.794 38.9878 225.687 38.9878C225.598 38.9878 225.509 39.1837 225.509 39.433C225.509 39.6823 225.438 39.8782 225.331 39.8782C225.242 39.8782 225.153 40.0741 225.153 40.3234C225.153 40.5727 225.082 40.7686 224.975 40.7686C224.886 40.7686 224.797 40.8932 224.797 41.0357C224.797 41.196 224.601 41.5165 224.352 41.7658C224.102 42.0151 223.906 42.2822 223.906 42.3713C223.906 42.6562 222.428 43.974 222.126 43.974C222.019 43.974 221.948 44.0452 221.948 44.1164C221.948 44.2055 221.609 44.437 221.2 44.6507C217.976 46.2 215.109 46.1109 211.405 44.3301C210.925 44.0986 210.551 43.8493 210.551 43.7603C210.551 43.6891 210.426 43.6178 210.283 43.6178C210.123 43.6178 209.642 43.2617 209.215 42.8165L208.414 42.0329V33.0934V24.1717L209.464 23.1566C210.568 22.106 212.545 20.9841 214.041 20.5567C215.27 20.2184 218.368 20.3252 219.633 20.7526Z" fill="#0F5B92"/>
<path d="M261.214 12.9173C258.489 13.3091 257.082 13.7187 255.337 14.6269C254.945 14.8406 254.447 15.0899 254.233 15.1967C254.002 15.3036 253.824 15.446 253.824 15.5173C253.824 15.6063 253.717 15.6597 253.574 15.6597C253.45 15.6597 253.004 15.9803 252.595 16.372C252.203 16.7638 251.776 17.0843 251.687 17.0843C251.491 17.0843 250.618 17.8857 250.618 18.046C250.618 18.1528 250.262 18.598 249.425 19.5418C249.104 19.898 248.837 20.2898 248.837 20.4144C248.837 20.5391 248.784 20.6459 248.713 20.6459C248.624 20.6459 248.481 20.824 248.374 21.0555C248.268 21.2692 247.947 21.8925 247.662 22.4267C246.683 24.2609 245.988 26.3444 245.632 28.3923C245.525 29.069 245.347 30.0484 245.24 30.5292C245.062 31.384 245.133 35.2127 245.365 36.762C246.077 41.7125 247.769 45.5056 250.583 48.3549C250.992 48.7822 251.33 49.2096 251.33 49.3165C251.33 49.4055 251.473 49.4946 251.651 49.4946C251.829 49.4946 252.078 49.6548 252.221 49.8507C252.363 50.0466 252.577 50.2069 252.702 50.2069C252.826 50.2069 252.933 50.2781 252.933 50.385C252.933 50.474 253.058 50.563 253.2 50.563C253.343 50.563 253.467 50.6343 253.467 50.7411C253.467 50.8301 253.592 50.9192 253.735 50.9192C253.877 50.9192 254.002 50.9904 254.002 51.0973C254.002 51.1863 254.162 51.2753 254.358 51.2753C254.554 51.2753 254.714 51.3466 254.714 51.4534C254.714 51.5425 254.839 51.6315 254.981 51.6315C255.124 51.6315 255.391 51.7027 255.569 51.7918C256.726 52.3794 257.759 52.6822 259.967 53.0917C261.374 53.3589 266.342 53.3589 268.159 53.0917C268.942 52.9849 269.94 52.8424 270.385 52.7712C270.83 52.7178 271.257 52.5931 271.364 52.5041C271.453 52.415 271.756 52.3438 272.023 52.3438C272.29 52.3438 272.522 52.2548 272.522 52.1657C272.522 52.0589 272.789 51.9877 273.127 51.9877C273.466 51.9877 273.804 51.8986 273.857 51.8096C273.911 51.7027 274.196 51.6315 274.498 51.6315C274.783 51.6315 275.015 51.5425 275.015 51.4534C275.015 51.3466 275.175 51.2753 275.371 51.2753C275.567 51.2753 275.727 51.1863 275.727 51.0973C275.727 50.9904 275.976 50.9192 276.261 50.9192C276.564 50.9192 276.796 50.8301 276.796 50.7411C276.796 50.6343 276.956 50.563 277.152 50.563C277.437 50.563 277.508 50.4384 277.508 50.0288C277.508 49.7261 277.437 49.4946 277.33 49.4946C277.241 49.4946 277.152 49.174 277.152 48.7822C277.152 48.3905 277.081 48.0699 276.974 48.0699C276.885 48.0699 276.796 47.8028 276.796 47.4645C276.796 47.1261 276.724 46.7878 276.618 46.7344C276.529 46.6809 276.439 46.3426 276.439 46.0042C276.439 45.6659 276.368 45.3988 276.261 45.3988C276.172 45.3988 276.083 45.1138 276.083 44.7755C276.083 44.4371 276.012 44.1522 275.905 44.1522C275.816 44.1522 275.727 43.8673 275.727 43.5289C275.727 43.1906 275.656 42.9057 275.549 42.9057C275.46 42.9057 275.371 42.9769 275.371 43.0837C275.371 43.1728 275.14 43.2618 274.837 43.2618C274.552 43.2618 274.303 43.3331 274.303 43.4399C274.303 43.5289 274.142 43.618 273.946 43.618C273.751 43.618 273.59 43.6892 273.59 43.7961C273.59 43.8851 273.359 43.9741 273.056 43.9741C272.771 43.9741 272.522 44.0454 272.522 44.1522C272.522 44.2413 272.361 44.3303 272.166 44.3303C271.97 44.3303 271.667 44.4015 271.489 44.4906C271.329 44.5796 270.83 44.7399 270.385 44.8645C269.94 44.9714 269.352 45.1316 269.049 45.2207C268.764 45.3097 267.571 45.47 266.431 45.5947C264.74 45.7727 264.027 45.7727 262.692 45.5947C260.893 45.3453 259.7 45.0426 259.7 44.8289C259.7 44.7399 259.54 44.6865 259.344 44.6865C259.148 44.6865 258.988 44.5974 258.988 44.5084C258.988 44.4015 258.828 44.3303 258.632 44.3303C258.436 44.3303 258.276 44.2591 258.276 44.1878C258.276 44.0988 258.062 43.9207 257.795 43.7783C256.05 42.8701 254.019 39.3441 254.002 37.1537V36.6729H266.734H279.467L279.591 36.1743C279.841 35.3017 279.752 28.143 279.485 26.8786C279.022 24.6527 277.704 21.0377 277.294 20.8596C277.205 20.824 277.152 20.6815 277.152 20.5391C277.152 20.3966 277.081 20.2898 276.974 20.2898C276.885 20.2898 276.796 20.1651 276.796 20.0048C276.796 19.8446 276.564 19.4884 276.261 19.2213C275.976 18.9542 275.727 18.6336 275.727 18.5268C275.727 18.2775 274.427 16.9597 273.59 16.372C273.252 16.1405 272.807 15.8022 272.629 15.6241C272.433 15.446 272.183 15.3036 272.059 15.3036C271.934 15.3036 271.809 15.2323 271.774 15.1611C271.649 14.8584 269.156 13.8077 267.625 13.4159C266.058 13.0064 262.478 12.7392 261.214 12.9173ZM264.17 20.4856C265.719 20.6815 266.823 20.9843 267.731 21.4651C270.082 22.676 271.97 26.0417 271.774 28.6594L271.72 29.4608H262.817H253.913L253.948 28.6772C254.019 27.3238 254.91 24.8664 255.747 23.8157C256.05 23.4061 257.314 22.1596 257.777 21.7856C258.471 21.2336 259.38 20.8952 261.125 20.5569C262.638 20.2541 262.46 20.2541 264.17 20.4856Z" fill="#0F5B92"/>
<path d="M306 12.9885C304.238 13.22 300.836 14.1817 300.836 14.4488C300.836 14.5378 300.676 14.5912 300.48 14.5912C300.284 14.5912 300.124 14.6625 300.124 14.7693C300.124 14.8583 299.964 14.9474 299.768 14.9474C299.572 14.9474 299.412 15.0186 299.412 15.1255C299.412 15.2145 299.305 15.3035 299.18 15.3035C299.055 15.3035 298.788 15.446 298.592 15.6063C298.414 15.7844 298.04 16.0337 297.773 16.1761C297.488 16.3186 297.275 16.4967 297.275 16.5857C297.275 16.6569 297.186 16.7282 297.097 16.7282C296.865 16.7282 293.891 19.7021 293.891 19.9336C293.891 20.0226 293.82 20.1117 293.713 20.1117C293.624 20.1117 293.535 20.2363 293.535 20.3788C293.535 20.5212 293.464 20.6459 293.357 20.6459C293.268 20.6459 293.179 20.7705 293.179 20.913C293.179 21.0555 293.108 21.1801 293.001 21.1801C292.912 21.1801 292.823 21.3048 292.823 21.4472C292.823 21.5897 292.751 21.7144 292.645 21.7144C292.556 21.7144 292.467 21.8746 292.467 22.0705C292.467 22.2664 292.395 22.4267 292.288 22.4267C292.199 22.4267 292.11 22.5513 292.11 22.6938C292.11 22.8362 292.039 22.9609 291.932 22.9609C291.843 22.9609 291.754 23.1212 291.754 23.3171C291.754 23.5129 291.683 23.6732 291.576 23.6732C291.487 23.6732 291.398 23.9047 291.398 24.2074C291.398 24.4924 291.345 24.7417 291.273 24.7417C291.149 24.7417 290.543 26.5581 290.152 28.1252C289.582 30.3868 289.582 37.0469 290.152 38.3647C290.241 38.5605 290.347 39.0057 290.419 39.3441C290.472 39.6824 290.561 40.2345 290.632 40.5372C290.686 40.8577 290.793 41.1249 290.882 41.1249C290.971 41.1249 291.042 41.2851 291.042 41.481C291.042 41.6769 291.131 41.8372 291.22 41.8372C291.327 41.8372 291.398 42.0687 291.398 42.3714C291.398 42.6563 291.487 42.9056 291.576 42.9056C291.683 42.9056 291.754 43.0659 291.754 43.2618C291.754 43.4577 291.843 43.618 291.932 43.618C292.039 43.618 292.11 43.7782 292.11 43.9741C292.11 44.17 292.199 44.3303 292.288 44.3303C292.395 44.3303 292.467 44.4727 292.467 44.6508C292.467 44.8289 292.627 45.0782 292.823 45.2207C293.019 45.3631 293.179 45.559 293.179 45.6659C293.179 45.9508 294.034 46.9658 295.405 48.337C296.829 49.7438 297.382 50.2068 297.631 50.2068C297.738 50.2068 297.809 50.2781 297.809 50.3849C297.809 50.474 297.934 50.563 298.076 50.563C298.218 50.563 298.343 50.6342 298.343 50.7411C298.343 50.8301 298.468 50.9192 298.61 50.9192C298.753 50.9192 298.877 50.9904 298.877 51.0972C298.877 51.1863 299.073 51.2753 299.323 51.2753C299.572 51.2753 299.768 51.3465 299.768 51.4534C299.768 51.5424 299.928 51.6315 300.124 51.6315C300.32 51.6315 300.48 51.7027 300.48 51.8096C300.48 51.8986 300.64 51.9876 300.836 51.9876C301.032 51.9876 301.192 52.0589 301.192 52.1657C301.192 52.2547 301.388 52.3438 301.62 52.3438C301.869 52.3438 302.101 52.415 302.154 52.5041C302.207 52.5931 302.564 52.7178 302.92 52.7712C303.294 52.8424 304.042 52.9849 304.576 53.0917C305.894 53.3588 310.773 53.341 312.322 53.0739C313.017 52.9671 313.872 52.8246 314.246 52.7712C314.602 52.6999 314.958 52.5931 315.011 52.5041C315.065 52.415 315.332 52.3438 315.635 52.3438C315.919 52.3438 316.151 52.2547 316.151 52.1657C316.151 52.0589 316.4 51.9876 316.685 51.9876C316.988 51.9876 317.219 51.8986 317.219 51.8096C317.219 51.7027 317.38 51.6315 317.576 51.6315C317.771 51.6315 317.932 51.5424 317.932 51.4534C317.932 51.3465 318.128 51.2753 318.377 51.2753C318.626 51.2753 318.822 51.1863 318.822 51.0972C318.822 50.9904 318.982 50.9192 319.178 50.9192C319.374 50.9192 319.534 50.8301 319.534 50.7411C319.534 50.6342 319.695 50.563 319.873 50.563C320.318 50.563 320.46 50.1356 320.211 49.5302C320.104 49.263 319.944 48.8535 319.855 48.6041C319.748 48.3548 319.606 48.0165 319.517 47.8562C319.428 47.6781 319.356 47.411 319.356 47.2686C319.356 47.1261 319.285 46.8412 319.178 46.6453C318.786 45.8617 318.697 45.6302 318.448 44.8111C318.323 44.3481 318.145 43.9741 318.074 43.9741C318.003 43.9741 317.932 43.8138 317.932 43.618C317.932 43.333 317.807 43.2618 317.397 43.2618C317.113 43.2618 316.863 43.333 316.863 43.4399C316.863 43.5289 316.703 43.618 316.507 43.618C316.311 43.618 316.151 43.6892 316.151 43.796C316.151 43.8851 315.991 43.9741 315.795 43.9741C315.599 43.9741 315.439 44.0453 315.439 44.1522C315.439 44.2412 315.278 44.3303 315.1 44.3303C314.904 44.3303 314.691 44.4015 314.637 44.5084C314.584 44.5974 314.352 44.6864 314.121 44.6864C313.907 44.6864 313.658 44.7577 313.569 44.8289C313.355 45.0248 312.287 45.3097 310.88 45.559C309.259 45.8439 307.568 45.7905 306.09 45.3987C304.896 45.0782 304.469 44.9001 303.151 44.1166C302.528 43.7604 300.836 42.0509 300.836 41.7838C300.836 41.6591 300.676 41.4454 300.48 41.3029C300.284 41.1605 300.124 40.9112 300.124 40.7331C300.124 40.555 300.07 40.4126 299.981 40.4126C299.91 40.4126 299.75 40.1454 299.625 39.8249C299.483 39.5222 299.305 39.0592 299.198 38.8099C298.788 37.8482 298.717 37.6345 298.61 37.0291C298.308 35.3195 298.183 32.7908 298.343 31.1881C298.575 28.6416 298.699 28.1252 299.251 27.0211C299.34 26.843 299.412 26.5759 299.412 26.4334C299.412 26.291 299.501 26.1663 299.59 26.1663C299.697 26.1663 299.768 26.006 299.768 25.8102C299.768 25.6143 299.857 25.454 299.946 25.454C300.053 25.454 300.124 25.3293 300.124 25.1691C300.124 25.0266 300.729 24.2965 301.477 23.5486C302.813 22.2486 304.148 21.4472 306.018 20.8418C306.837 20.5925 311.094 20.5925 312.18 20.8418C313.319 21.1089 314.762 21.6609 316.026 22.2842C316.934 22.7294 317.095 22.765 317.308 22.5335C317.451 22.3911 317.576 22.1061 317.576 21.9102C317.576 21.6965 317.665 21.5363 317.754 21.5363C317.86 21.5363 317.932 21.287 317.932 21.002C317.932 20.6993 318.021 20.4678 318.11 20.4678C318.217 20.4678 318.288 20.2719 318.288 20.0226C318.288 19.7733 318.377 19.5774 318.466 19.5774C318.573 19.5774 318.644 19.3459 318.644 19.061C318.644 18.7761 318.697 18.5089 318.786 18.4733C318.965 18.4021 319.713 16.1405 319.713 15.6775C319.713 15.4282 319.606 15.3035 319.356 15.3035C319.16 15.3035 319 15.2501 319 15.1611C319 15.0898 318.733 14.9474 318.43 14.8227C315.706 13.8611 314.441 13.4693 313.213 13.2378C311.467 12.9173 307.568 12.7748 306 12.9885Z" fill="#0F5B92"/>
<path d="M343.575 13.0065C342.845 13.0956 341.794 13.2915 341.26 13.4517C339.996 13.8435 337.039 15.2325 336.576 15.6777C336.381 15.8558 336.149 16.016 336.06 16.016C335.864 16.016 332.534 19.3639 332.534 19.5598C332.534 19.6488 332.463 19.7557 332.392 19.7913C331.982 19.9516 329.685 24.1542 329.685 24.7419C329.685 24.8487 329.578 25.1515 329.435 25.4186C329.062 26.1309 328.616 28.4103 328.349 30.9212C327.993 34.3581 328.581 39.273 329.703 42.0689C330.255 43.4935 331.163 45.2743 331.519 45.6482C331.679 45.8441 331.822 46.0578 331.822 46.1469C331.822 46.3606 332.32 46.9304 333.994 48.64C334.849 49.4947 335.633 50.207 335.739 50.207C335.828 50.207 335.918 50.2783 335.918 50.3851C335.918 50.4742 336.042 50.5632 336.185 50.5632C336.327 50.5632 336.452 50.6344 336.452 50.7413C336.452 50.8303 336.612 50.9194 336.808 50.9194C337.004 50.9194 337.164 50.9906 337.164 51.0974C337.164 51.1865 337.324 51.2755 337.52 51.2755C337.716 51.2755 337.876 51.3467 337.876 51.4536C337.876 51.5426 338.037 51.6317 338.233 51.6317C338.428 51.6317 338.589 51.7029 338.589 51.8097C338.589 51.8988 338.785 51.9878 339.034 51.9878C339.283 51.9878 339.479 52.0591 339.479 52.1481C339.479 52.2371 339.693 52.3618 339.978 52.4152C340.245 52.4864 340.779 52.6289 341.171 52.7179C343.486 53.3234 348.347 53.5015 351.143 53.0919C351.927 52.9851 352.924 52.8426 353.369 52.7714C353.814 52.7179 354.242 52.5933 354.349 52.5042C354.438 52.4152 354.723 52.344 354.99 52.344C355.257 52.344 355.542 52.2549 355.595 52.1659C355.649 52.0591 355.987 51.9878 356.325 51.9878C356.664 51.9878 356.931 51.8988 356.931 51.8097C356.931 51.7029 357.18 51.6317 357.465 51.6317C357.768 51.6317 357.999 51.5426 357.999 51.4536C357.999 51.3467 358.159 51.2755 358.355 51.2755C358.551 51.2755 358.712 51.1865 358.712 51.0974C358.712 50.9906 358.961 50.9194 359.246 50.9194C359.549 50.9194 359.78 50.8303 359.78 50.7413C359.78 50.6344 359.94 50.5632 360.136 50.5632C360.439 50.5632 360.492 50.4385 360.492 49.8687C360.492 49.4769 360.421 49.103 360.314 49.0495C360.225 48.9961 360.136 48.6578 360.136 48.3194C360.136 47.9811 360.065 47.7139 359.958 47.7139C359.869 47.7139 359.78 47.429 359.78 47.0907C359.78 46.7523 359.709 46.4674 359.602 46.4674C359.513 46.4674 359.424 46.1825 359.424 45.8441C359.424 45.5058 359.353 45.2209 359.246 45.2209C359.157 45.2209 359.068 44.9003 359.068 44.5085C359.068 44.1168 358.996 43.7962 358.89 43.7962C358.801 43.7962 358.712 43.6003 358.712 43.351C358.712 43.1017 358.64 42.9058 358.533 42.9058C358.444 42.9058 358.355 42.9771 358.355 43.0839C358.355 43.173 358.159 43.262 357.928 43.262C357.679 43.262 357.429 43.3332 357.376 43.4401C357.323 43.5291 357.109 43.6182 356.913 43.6182C356.735 43.6182 356.575 43.6894 356.575 43.7962C356.575 43.8853 356.379 43.9743 356.147 43.9743C355.898 43.9743 355.649 44.0455 355.595 44.1524C355.542 44.2414 355.328 44.3305 355.132 44.3305C354.954 44.3305 354.651 44.4017 354.473 44.4907C354.313 44.5798 353.814 44.74 353.369 44.8647C352.924 44.9715 352.336 45.1318 352.034 45.2209C351.749 45.3099 350.556 45.4702 349.398 45.5948C347.724 45.7729 346.994 45.7729 345.765 45.5948C343.931 45.3455 342.685 45.025 342.685 44.8291C342.685 44.7579 342.524 44.6866 342.328 44.6866C342.132 44.6866 341.972 44.5976 341.972 44.5085C341.972 44.4017 341.83 44.3305 341.652 44.3305C341.474 44.3305 341.224 44.1702 341.082 43.9743C340.939 43.7784 340.726 43.6182 340.583 43.6182C340.334 43.6182 339.408 42.7278 338.838 41.9086C337.912 40.6086 337.218 38.8279 337.128 37.5635L337.075 36.7621L349.825 36.7087L362.594 36.6731L362.7 35.5512C362.879 33.8773 362.843 28.6952 362.647 27.5911C362.558 27.0569 362.416 26.3268 362.362 25.9884C362.237 25.3651 361.668 23.5309 361.383 22.8721C361.311 22.6762 361.133 22.2488 360.991 21.9282C360.866 21.6255 360.706 21.3584 360.635 21.3584C360.546 21.3584 360.492 21.1981 360.492 21.0022C360.492 20.8063 360.421 20.6461 360.314 20.6461C360.225 20.6461 360.136 20.5392 360.136 20.4146C360.136 20.2899 359.976 20.005 359.78 19.7913C359.584 19.5776 359.424 19.3283 359.424 19.2214C359.424 19.1324 359.353 19.0434 359.246 19.0434C359.157 19.0434 359.068 18.9543 359.068 18.8653C359.068 18.616 357.02 16.5859 356.218 16.016C355.88 15.7845 355.56 15.5352 355.506 15.464C355.257 15.1257 351.838 13.701 350.52 13.3805C348.739 12.9353 345.48 12.7572 343.575 13.0065ZM347.19 20.468C349.754 20.842 351.143 21.4474 352.55 22.8542C353.992 24.3145 354.58 25.6679 354.883 28.2856C354.954 28.9801 354.918 29.2829 354.758 29.3897C354.491 29.5678 337.52 29.6034 337.093 29.4431C336.915 29.3719 336.844 29.1938 336.879 28.9445C337.449 26.1487 337.912 24.9021 338.802 23.7802C339.497 22.9077 340.548 21.9639 341.242 21.6077C341.598 21.4296 341.919 21.2337 341.972 21.1803C342.186 20.9488 344.394 20.4324 345.676 20.3077C345.801 20.3077 346.495 20.379 347.19 20.468Z" fill="#0F5B92"/>
<path d="M186.724 60.8383C186.599 61.3191 186.421 61.9423 186.332 62.2451C186.225 62.5478 186.154 62.9574 186.154 63.1711C186.154 63.367 186.083 63.5985 185.976 63.6519C185.887 63.7053 185.798 64.0793 185.798 64.471C185.798 64.845 185.726 65.1656 185.637 65.1656C185.548 65.1656 185.424 65.5039 185.37 65.9135C185.121 67.7655 185.032 68.1929 184.889 68.1929C184.498 68.1929 184.747 69.297 185.299 69.8846C185.816 70.4545 185.94 70.5079 186.866 70.5079C187.988 70.5079 188.291 70.312 188.291 69.5997C188.291 69.1367 188.237 69.1011 187.454 69.0477L186.599 68.9942L186.617 68.1038C186.635 67.6052 186.724 66.8929 186.831 66.5011C187.81 62.7615 188.398 60.2506 188.344 60.1259C188.309 60.0547 187.97 60.0013 187.614 60.0013C186.973 60.0013 186.937 60.0369 186.724 60.8383Z" fill="#0F5B92"/>
<path d="M91.5944 60.6958C91.5944 60.8917 91.5232 61.1054 91.4163 61.1588C91.3273 61.2122 91.2382 61.5328 91.2382 61.8711C91.2382 62.2095 91.167 62.53 91.0602 62.5834C90.9711 62.6368 90.8821 62.993 90.8821 63.367C90.8821 63.7231 90.8108 64.0971 90.7396 64.1861C90.6506 64.293 90.4013 65.1656 90.1876 66.145C89.9739 67.1244 89.6711 68.3353 89.5287 68.8518C89.1725 70.0627 89.2438 70.401 89.867 70.4723C90.5081 70.5435 90.8287 70.2764 90.9355 69.5641C90.9889 69.2435 91.1314 68.6381 91.2382 68.1929C91.3629 67.7477 91.4875 67.0532 91.541 66.6258C91.5944 66.2162 91.7012 65.8779 91.7903 65.8779C91.8793 65.8779 91.9505 65.5573 91.9505 65.1656C91.9505 64.7738 92.0396 64.4532 92.1286 64.4532C92.2355 64.4532 92.3067 64.2574 92.3067 64.008C92.3067 63.7587 92.3957 63.5629 92.4848 63.5629C92.5916 63.5629 92.6629 63.8834 92.6629 64.2752C92.6629 64.6669 92.7519 64.9875 92.8409 64.9875C92.9478 64.9875 93.019 65.4327 93.019 65.9669C93.019 66.5011 93.1081 66.9463 93.1971 66.9463C93.3039 66.9463 93.3752 67.2135 93.3752 67.5518C93.3752 68.8696 94.9066 68.5847 95.6902 67.1244C95.8148 66.8929 95.9929 66.608 96.082 66.5189C96.171 66.4121 96.634 65.771 97.097 65.1121C97.649 64.3286 98.023 63.9724 98.0942 64.0971C98.2189 64.293 98.1477 64.6491 97.649 66.3231C97.3819 67.1956 96.7587 69.9737 96.7587 70.2408C96.7587 70.5969 97.8984 70.5969 98.1833 70.2408C98.3079 70.0805 98.486 69.6531 98.5572 69.2613C98.7175 68.5668 98.86 67.9436 99.2696 66.3587C99.3764 65.9491 99.5011 65.308 99.5545 64.9341C99.6079 64.5779 99.7148 64.2752 99.8038 64.2752C99.8928 64.2752 99.9641 63.9546 99.9641 63.5807C99.9641 63.1889 100.053 62.8149 100.142 62.7615C100.249 62.7081 100.32 62.3875 100.32 62.0492C100.32 61.7108 100.409 61.3903 100.498 61.3369C100.605 61.2835 100.676 61.0341 100.676 60.7848C100.676 60.3753 100.623 60.3574 99.6613 60.3574L98.6285 60.3753L97.2929 62.4053C96.5628 63.5272 95.7792 64.6669 95.5655 64.9341C95.334 65.2012 95.156 65.5395 95.156 65.6464C95.156 65.771 94.9957 65.8779 94.7998 65.8779C94.4971 65.8779 94.4436 65.7532 94.4436 65.0943C94.4436 64.6491 94.3724 64.2395 94.2656 64.1861C94.1765 64.1327 94.0875 63.6341 94.0875 63.0998C94.0875 62.5656 94.0163 62.1382 93.9094 62.1382C93.8204 62.1382 93.7313 61.7821 93.7313 61.3547C93.7313 60.4643 93.5889 60.3574 92.3779 60.3574C91.719 60.3574 91.5944 60.4109 91.5944 60.6958Z" fill="#0F5B92"/>
<path d="M138.465 61.0162C138.358 61.3723 138.304 61.7107 138.358 61.7641C138.411 61.8354 139.034 61.9066 139.729 61.96C140.886 62.049 141.011 62.0847 140.958 62.4052C140.762 63.5805 140.708 63.8654 140.584 64.186C140.495 64.3819 140.334 64.9873 140.228 65.5216C139.996 66.6078 139.782 67.4982 139.48 68.4955C139.373 68.8694 139.284 69.4571 139.266 69.7954C139.23 70.4009 139.248 70.4187 139.943 70.4187C140.601 70.4187 140.655 70.3831 140.797 69.7954C140.869 69.4571 141.029 68.8516 141.118 68.4599C141.225 68.0681 141.349 67.4448 141.403 67.0708C141.456 66.7147 141.563 66.3585 141.652 66.3051C141.741 66.2517 141.812 65.8955 141.812 65.5038C141.812 65.1298 141.901 64.8093 141.99 64.8093C142.097 64.8093 142.169 64.4887 142.169 64.0969C142.169 63.7052 142.258 63.3846 142.347 63.3846C142.453 63.3846 142.525 63.1175 142.525 62.7792C142.525 62.049 142.703 61.96 144.181 61.96C145.427 61.96 145.623 61.871 145.784 61.2833C146.015 60.3751 145.944 60.3573 142.186 60.3573H138.66L138.465 61.0162Z" fill="#0F5B92"/>
<path d="M220.576 60.7492C220.398 61.141 220.131 62.0492 219.811 63.3848C219.722 63.7231 219.579 64.3464 219.472 64.7382C219.365 65.1477 219.276 65.6464 219.276 65.8601C219.276 66.0559 219.205 66.234 219.098 66.234C219.009 66.234 218.92 66.5546 218.92 66.9463C218.92 67.3381 218.849 67.6586 218.742 67.6586C218.653 67.6586 218.564 67.9792 218.564 68.371C218.564 68.7627 218.493 69.0833 218.386 69.0833C218.297 69.0833 218.208 69.4038 218.208 69.7956C218.208 70.4545 218.244 70.5079 218.707 70.5079C219.526 70.5079 219.633 70.3476 220.149 68.2285C220.576 66.5189 220.683 66.1094 220.879 65.2546C221.217 63.7944 221.235 63.7765 221.485 64.1505C221.627 64.3108 221.876 65.2368 222.054 66.1984C222.393 68.0148 222.571 68.371 223.194 68.371C223.604 68.371 224.797 67.2847 224.797 66.9107C224.797 66.7683 224.957 66.5546 225.153 66.4121C225.349 66.2696 225.509 66.0559 225.509 65.9313C225.509 65.8066 225.598 65.6998 225.687 65.6998C225.794 65.6998 225.865 65.5751 225.865 65.4327C225.865 65.2902 225.954 65.1656 226.043 65.1656C226.15 65.1656 226.221 65.0409 226.221 64.8984C226.221 64.756 226.31 64.6313 226.399 64.6313C226.506 64.6313 226.578 64.5067 226.578 64.3642C226.578 64.2217 226.667 64.0971 226.773 64.0971C226.898 64.0971 226.934 64.3642 226.862 64.845C226.684 66.3587 226.542 66.9463 226.382 66.9463C226.293 66.9463 226.221 67.3381 226.221 67.8367C226.221 68.3175 226.15 68.7271 226.043 68.7271C225.954 68.7271 225.865 69.1189 225.865 69.6175C225.865 70.4367 225.901 70.5079 226.293 70.5079C226.987 70.5079 227.29 70.312 227.29 69.8846C227.29 69.6531 227.361 69.4216 227.45 69.3682C227.539 69.3148 227.646 68.9586 227.699 68.6025C227.753 68.2285 227.878 67.5874 227.984 67.16C228.091 66.7504 228.251 66.1094 228.341 65.7354C228.43 65.3792 228.714 64.2752 228.964 63.2957C229.213 62.3163 229.427 61.2478 229.427 60.9273C229.427 60.3753 229.409 60.3574 228.625 60.3574C227.753 60.3574 227.254 60.6958 226.773 61.6396C226.631 61.9245 226.453 62.1382 226.364 62.1382C226.293 62.1382 226.221 62.2629 226.221 62.4053C226.221 62.5478 226.15 62.6725 226.043 62.6725C225.954 62.6725 225.865 62.7971 225.865 62.9396C225.865 63.082 225.794 63.2067 225.687 63.2067C225.598 63.2067 225.509 63.3313 225.509 63.4738C225.509 63.6163 225.438 63.7409 225.331 63.7409C225.242 63.7409 225.153 63.8478 225.153 63.9724C225.153 64.0971 225.01 64.3642 224.85 64.5601C224.672 64.7382 224.423 65.1121 224.28 65.3971C223.817 66.2696 223.515 65.8779 223.194 64.008C222.98 62.7081 222.695 61.1944 222.535 60.6602C222.482 60.4287 222.268 60.3574 221.609 60.3574C220.897 60.3574 220.737 60.4287 220.576 60.7492Z" fill="#0F5B92"/>
<path d="M269.085 60.678C268.907 60.8561 268.782 61.2122 268.782 61.4793C268.782 61.7286 268.711 61.9958 268.604 62.0492C268.515 62.1026 268.426 62.441 268.426 62.7793C268.426 63.1177 268.355 63.3848 268.248 63.3848C268.159 63.3848 268.07 63.7409 268.07 64.1861C268.07 64.6313 267.999 64.9875 267.892 64.9875C267.803 64.9875 267.714 65.308 267.714 65.6998C267.714 66.0916 267.642 66.4121 267.536 66.4121C267.446 66.4121 267.357 66.7683 267.357 67.2135C267.357 67.6586 267.286 68.0148 267.197 68.0148C267.108 68.0148 267.001 68.2819 266.948 68.5847C266.894 68.9052 266.788 69.4038 266.716 69.6887C266.574 70.2586 266.823 70.5079 267.5 70.5079C268.088 70.5079 268.426 70.0983 268.426 69.3682C268.426 69.0298 268.515 68.6915 268.604 68.6381C268.711 68.5847 268.782 68.2819 268.782 67.997C268.782 67.2313 269.156 66.9463 270.1 66.9463C270.545 66.9463 270.919 66.8573 270.919 66.7683C270.919 66.6614 271.204 66.5902 271.542 66.5902C271.881 66.5902 272.166 66.5011 272.166 66.4121C272.166 66.3053 272.326 66.234 272.522 66.234C272.718 66.234 272.878 66.145 272.878 66.0559C272.878 65.9491 272.985 65.8779 273.109 65.8779C273.394 65.8779 274.303 64.9519 274.303 64.6669C274.303 64.5423 274.392 64.4532 274.481 64.4532C274.587 64.4532 274.659 64.2574 274.659 64.0259C274.659 63.7765 274.748 63.5272 274.837 63.4738C274.944 63.4204 275.015 63.1355 275.015 62.8505C275.015 62.5656 274.944 62.2807 274.837 62.2273C274.748 62.1738 274.659 61.9958 274.659 61.8355C274.659 61.4793 273.786 60.7136 273.376 60.7136C273.216 60.7136 273.02 60.6246 272.967 60.5355C272.913 60.4287 272.077 60.3574 271.115 60.3574C269.655 60.3574 269.316 60.4109 269.085 60.678ZM272.771 62.2095C273.305 62.5478 273.376 63.2957 272.985 64.0793C272.646 64.7204 272.112 65.0587 270.955 65.3436C270.118 65.5573 269.993 65.5573 269.726 65.2902C269.477 65.0409 269.459 64.8984 269.655 64.2395C269.779 63.8122 269.975 63.1533 270.082 62.7615C270.189 62.3697 270.367 61.978 270.474 61.9067C270.759 61.6752 272.272 61.8711 272.771 62.2095Z" fill="#0F5B92"/>
<path d="M106.517 63.0108C105.146 63.456 103.526 65.0587 103.526 65.9669C103.526 66.1094 103.454 66.234 103.348 66.234C103.241 66.234 103.17 66.7861 103.17 67.5162C103.17 68.6025 103.241 68.8696 103.633 69.386C103.882 69.7066 104.309 70.0983 104.594 70.2408C105.378 70.6504 106.909 70.5791 107.817 70.0983C108.743 69.6353 109.758 68.6737 109.758 68.2819C109.758 68.1395 109.847 68.0148 109.936 68.0148C110.043 68.0148 110.115 67.8545 110.115 67.6587C110.115 67.4628 110.204 67.3025 110.293 67.3025C110.399 67.3025 110.471 66.6792 110.471 65.7888C110.471 64.8984 110.399 64.2752 110.293 64.2752C110.204 64.2752 110.115 64.1861 110.115 64.0971C110.115 63.9902 109.901 63.6875 109.652 63.4382C109.278 63.0642 108.993 62.9752 108.102 62.9218C107.497 62.8862 106.785 62.9218 106.517 63.0108ZM108.245 64.4889C108.494 64.5957 108.69 64.7916 108.69 64.9341C108.69 65.0587 108.779 65.1656 108.868 65.1656C108.975 65.1656 109.046 65.5573 109.046 66.056C109.046 66.5368 108.975 66.9463 108.868 66.9463C108.779 66.9463 108.69 67.1066 108.69 67.3025C108.69 67.4984 108.619 67.6587 108.512 67.6587C108.423 67.6587 108.334 67.7655 108.334 67.8902C108.334 68.1395 107.711 68.7271 107.443 68.7271C107.337 68.7271 107.265 68.7984 107.265 68.9052C107.265 69.1723 105.68 69.1189 105.413 68.8518C105.271 68.7271 105.039 68.371 104.879 68.0682C104.612 67.5518 104.63 67.4272 104.897 66.5546C105.467 64.7738 106.909 63.8656 108.245 64.4889Z" fill="#0F5B92"/>
<path d="M117.594 63.2067C116.828 63.6163 116.703 63.6341 116.703 63.2957C116.703 63.0998 116.508 63.0286 116.027 63.0286C115.457 63.0286 115.297 63.1177 115.136 63.4738C115.012 63.7231 114.923 64.0615 114.923 64.2217C114.923 64.382 114.851 64.756 114.762 65.0587C114.21 66.8395 113.961 67.8723 113.569 69.9202C113.445 70.4901 113.462 70.5079 114.103 70.5079C114.691 70.5079 114.798 70.4367 115.029 69.8846C115.154 69.5463 115.279 69.0655 115.279 68.8162C115.279 68.5668 115.368 68.371 115.457 68.371C115.564 68.371 115.635 68.0504 115.635 67.6586C115.635 67.2669 115.724 66.9463 115.813 66.9463C115.92 66.9463 115.991 66.7683 115.991 66.5368C115.991 66.3053 116.151 65.9491 116.347 65.7354C116.543 65.5217 116.703 65.2724 116.703 65.1834C116.703 65.0943 116.864 64.9519 117.06 64.8984C117.255 64.845 117.416 64.7025 117.416 64.6135C117.416 64.5245 117.718 64.4532 118.092 64.4532C118.449 64.4532 118.84 64.382 118.929 64.3108C119.197 64.1327 119.553 63.4382 119.553 63.1177C119.553 62.7259 118.377 62.7793 117.594 63.2067Z" fill="#0F5B92"/>
<path d="M123.898 63.1711C121.779 64.1683 120.354 67.3559 121.244 69.0833C121.832 70.2408 122.348 70.5079 123.898 70.5079C125.5 70.5079 126.498 70.0449 126.498 69.2792C126.498 68.8696 125.59 68.5134 125.465 68.8696C125.429 68.9942 125.002 69.0833 124.379 69.0833C123.542 69.0833 123.292 69.012 122.972 68.6737C122.758 68.4422 122.58 68.0504 122.58 67.7833V67.3025H125.055H127.531L127.637 66.6258C127.922 64.9697 127.94 64.6669 127.762 64.5601C127.655 64.4889 127.566 64.3108 127.566 64.1683C127.566 64.0259 127.37 63.7053 127.103 63.456C126.48 62.8149 124.931 62.6903 123.898 63.1711ZM125.661 64.3108C126.266 64.6313 126.498 64.9341 126.498 65.4149V65.8779H124.824C123.88 65.8779 123.079 65.8066 123.025 65.6998C122.972 65.5929 122.99 65.5217 123.096 65.5217C123.185 65.5217 123.328 65.3614 123.381 65.1656C123.488 64.8094 124.574 64.1149 125.037 64.0971C125.162 64.0971 125.447 64.1861 125.661 64.3108Z" fill="#0F5B92"/>
<path d="M151.072 63.2067C150.307 63.6163 150.182 63.6341 150.182 63.2957C150.182 63.0998 149.986 63.0286 149.505 63.0286C148.811 63.0286 148.597 63.2957 148.348 64.4532C147.831 66.7683 147.493 68.2641 147.244 69.1367C147.084 69.7065 147.012 70.2408 147.066 70.3298C147.119 70.4367 147.404 70.5079 147.689 70.5079C148.241 70.5079 148.757 69.9737 148.757 69.3682C148.757 69.1723 148.829 68.7805 148.918 68.4778C149.025 68.1751 149.22 67.4628 149.399 66.8929C149.773 65.5573 150.752 64.4532 151.571 64.4532C152.283 64.4532 152.675 64.293 152.675 63.9902C152.675 63.8478 152.764 63.7409 152.853 63.7409C152.96 63.7409 153.031 63.545 153.031 63.2957C153.031 62.904 152.96 62.8505 152.372 62.8505C151.998 62.8683 151.411 63.0108 151.072 63.2067Z" fill="#0F5B92"/>
<path d="M157.946 63.0998C157.234 63.367 155.863 64.7026 155.382 65.6107C155.222 65.9135 155.079 66.7683 155.026 67.623L154.937 69.1011L155.685 69.7956C156.361 70.4545 156.504 70.5079 157.412 70.5079C158.356 70.5079 159.05 70.2942 159.282 69.938C159.353 69.8312 159.709 69.9202 160.119 70.1339C161.009 70.5969 160.956 70.5969 161.401 70.1161C161.757 69.7244 161.882 69.0833 161.597 69.0833C161.134 69.0833 161.276 68.0504 162.185 64.756C162.648 63.082 162.63 63.0108 161.543 63.0108C161.027 63.0286 160.154 62.993 159.62 62.9396C159.015 62.8862 158.374 62.9396 157.946 63.0998ZM160.119 64.4532C160.671 64.7916 160.885 65.1656 160.511 65.1656C160.422 65.1656 160.332 65.4861 160.332 65.8779C160.332 66.2696 160.261 66.5902 160.154 66.5902C160.065 66.5902 159.976 66.9107 159.976 67.3025C159.976 67.6943 159.905 68.0148 159.798 68.0148C159.709 68.0148 159.62 68.1216 159.62 68.2641C159.62 68.4066 159.46 68.5847 159.264 68.6381C159.068 68.6915 158.908 68.834 158.908 68.923C158.908 69.012 158.534 69.0833 158.089 69.0833C157.181 69.0833 156.682 68.7093 156.468 67.8723C156.379 67.4984 156.7 66.0916 156.949 65.8779C157.002 65.8244 157.145 65.5751 157.27 65.3258C157.501 64.8806 158.73 64.1327 159.264 64.1149C159.406 64.0971 159.798 64.2574 160.119 64.4532Z" fill="#0F5B92"/>
<path d="M166.423 63.1711C165.906 63.4204 165.835 63.5272 165.942 63.919C166.013 64.1683 166.102 64.7203 166.138 65.1655C166.191 65.6107 166.298 66.1271 166.387 66.323C166.476 66.5189 166.583 67.071 166.637 67.5696C166.85 69.5997 166.975 70.2408 167.171 70.3654C167.563 70.6325 168.346 70.5079 168.667 70.1339C168.827 69.9202 169.058 69.6709 169.147 69.5462C169.254 69.4394 169.432 69.1367 169.575 68.8517C169.717 68.5846 169.895 68.3709 169.984 68.3709C170.056 68.3709 170.127 68.2463 170.127 68.1038C170.127 67.9435 170.305 67.623 170.536 67.3915C170.75 67.16 171.124 66.6436 171.373 66.234C171.623 65.8066 172.086 65.0765 172.406 64.5779C173.083 63.4916 173.119 63.2423 172.584 63.0464C172.015 62.8327 171.854 62.9396 171.356 63.7587C171.124 64.1505 170.786 64.6313 170.626 64.845C170.447 65.0409 170.269 65.3614 170.216 65.5395C170.145 65.7354 170.038 65.8778 169.967 65.8778C169.878 65.8778 169.717 66.1093 169.593 66.4121C169.468 66.697 169.308 66.9463 169.219 66.9463C169.13 66.9463 169.058 67.071 169.058 67.2312C169.058 67.3737 168.934 67.623 168.791 67.7655C168.328 68.2285 167.99 67.6764 167.99 66.5189C167.99 65.9669 167.919 65.5217 167.812 65.5217C167.705 65.5217 167.634 65.0409 167.634 64.4354C167.634 63.7409 167.545 63.2779 167.384 63.0998C167.082 62.7971 167.153 62.7971 166.423 63.1711Z" fill="#0F5B92"/>
<path d="M177.944 63.0998C177.214 63.3491 175.647 64.8271 175.647 65.2545C175.647 65.397 175.576 65.5217 175.469 65.5217C175.38 65.5217 175.291 65.7175 175.291 65.949C175.291 66.1983 175.22 66.4477 175.113 66.5011C175.024 66.5545 174.935 67.16 174.935 67.8545C174.935 68.549 175.006 69.0832 175.113 69.0832C175.22 69.0832 175.291 69.2079 175.291 69.3681C175.291 69.7243 175.718 70.1517 176.075 70.1517C176.235 70.1517 176.36 70.2229 176.36 70.3298C176.36 70.5791 178.906 70.5435 179.512 70.2941C180.135 70.0092 180.277 69.8311 180.277 69.2079C180.277 68.8517 180.188 68.7271 179.939 68.7271C179.743 68.7271 179.529 68.7983 179.476 68.9051C179.423 68.9942 178.888 69.0832 178.301 69.0832C177.41 69.0832 177.161 69.012 176.805 68.638C176.288 68.1394 176.253 67.9079 176.609 67.5517C176.805 67.3559 177.41 67.3024 179.102 67.3024H181.328L181.506 66.6257C182.272 63.8833 180.544 62.156 177.944 63.0998ZM179.512 64.3107C180.135 64.5956 180.277 64.7737 180.277 65.3792V65.8778H178.675C177.339 65.8778 177.072 65.8244 177.072 65.6107C177.072 65.2189 177.784 64.5422 178.425 64.3107C178.71 64.2039 178.96 64.1148 178.977 64.1148C178.995 64.097 179.244 64.2039 179.512 64.3107Z" fill="#0F5B92"/>
<path d="M235.571 63.0108C234.449 63.367 232.81 64.7026 232.81 65.2546C232.81 65.3971 232.757 65.5217 232.668 65.5217C232.223 65.5217 231.92 68.2463 232.294 68.9408C232.846 69.9737 233.736 70.5079 234.876 70.5079C236.639 70.5079 238.17 69.5107 239.096 67.7477C239.666 66.6792 239.648 64.756 239.061 63.9368C238.829 63.6163 238.366 63.2245 238.046 63.0998C237.44 62.8505 236.194 62.7971 235.571 63.0108ZM237.405 64.5957C238.491 65.5395 237.832 67.9614 236.229 68.8518C235.784 69.1189 234.591 69.1545 234.591 68.923C234.591 68.834 234.431 68.6915 234.235 68.6381C234.003 68.5668 233.879 68.371 233.879 68.1038C233.879 67.8723 233.772 67.6408 233.665 67.5874C233.487 67.4984 233.487 67.4628 233.665 67.3737C233.772 67.3203 233.879 66.9641 233.879 66.5724C233.879 66.1984 233.968 65.8779 234.057 65.8779C234.164 65.8779 234.235 65.7532 234.235 65.6107C234.235 65.4683 234.324 65.3436 234.413 65.3436C234.52 65.3436 234.591 65.2368 234.591 65.0943C234.591 64.7916 235.731 64.293 236.479 64.293C236.781 64.2752 237.191 64.4176 237.405 64.5957Z" fill="#0F5B92"/>
<path d="M246.879 62.9752C246.736 63.0286 246.398 63.2245 246.131 63.4204C245.668 63.7409 245.65 63.7409 245.543 63.3848C245.472 63.1533 245.276 63.0286 245.009 63.0286C244.296 63.0286 244.029 63.2245 244.029 63.7409C244.029 64.0259 243.958 64.3108 243.851 64.3642C243.762 64.4176 243.673 64.7382 243.673 65.0765C243.673 65.4149 243.602 65.7354 243.495 65.7888C243.406 65.8422 243.317 66.2162 243.317 66.608C243.317 66.9819 243.246 67.3025 243.139 67.3025C243.05 67.3025 242.961 67.623 242.961 68.0148C242.961 68.4066 242.89 68.7271 242.783 68.7271C242.694 68.7271 242.605 69.1189 242.605 69.6175C242.605 70.4723 242.622 70.5079 243.103 70.5079C243.709 70.5079 244.029 70.223 244.029 69.6887C244.029 69.4572 244.118 69.2257 244.207 69.1723C244.314 69.1189 244.385 68.8874 244.385 68.6915C244.385 68.4778 244.457 68.0682 244.563 67.7655C244.653 67.4628 244.777 67.0176 244.813 66.7683C244.955 66.1094 245.81 64.8628 246.291 64.6491C246.522 64.5423 246.985 64.4532 247.306 64.4532C247.965 64.4532 248.481 63.9012 248.481 63.2067C248.481 62.904 248.374 62.8505 247.822 62.8683C247.448 62.8683 247.021 62.9218 246.879 62.9752Z" fill="#0F5B92"/>
<path d="M252.844 63.171C251.972 63.5806 250.974 64.4888 250.974 64.8805C250.974 65.0408 250.903 65.1655 250.796 65.1655C250.707 65.1655 250.618 65.3257 250.618 65.5216C250.618 65.7175 250.565 65.8778 250.476 65.8778C250.28 65.8778 249.906 67.2134 249.906 67.9079C249.906 68.5846 250.226 69.4393 250.476 69.4393C250.547 69.4393 250.618 69.5462 250.618 69.6886C250.618 69.8311 250.778 70.0092 250.974 70.0626C251.17 70.116 251.33 70.2585 251.33 70.3475C251.33 70.6503 254.037 70.5256 254.696 70.1873C255.034 70.027 255.284 69.8311 255.266 69.7421C255.266 69.6708 255.248 69.4215 255.248 69.1722C255.248 68.8517 255.159 68.727 254.91 68.727C254.714 68.727 254.5 68.7983 254.447 68.9051C254.269 69.19 252.239 69.1188 251.936 68.8339C251.793 68.6914 251.687 68.2818 251.687 67.9435V67.3024H254.055H256.406L256.637 66.5901C257.065 65.2189 256.833 64.097 255.996 63.3313C255.444 62.8326 253.752 62.7436 252.844 63.171ZM254.607 64.3463C255.195 64.5956 255.569 65.3079 255.337 65.6997C255.159 65.9846 252.043 65.9312 252.043 65.6463C252.061 65.2723 252.506 64.8093 253.218 64.4531C254.055 64.0436 253.895 64.0436 254.607 64.3463Z" fill="#0F5B92"/>
<path d="M279.716 63.0464C279.057 63.2245 277.508 64.5601 277.508 64.9162C277.508 65.0587 277.437 65.1656 277.33 65.1656C277.241 65.1656 277.152 65.3258 277.152 65.5217C277.152 65.7176 277.081 65.8779 276.974 65.8779C276.885 65.8779 276.796 66.1984 276.796 66.5902C276.796 66.982 276.724 67.3025 276.618 67.3025C276.172 67.3025 276.635 69.1011 277.259 69.7244C277.864 70.3476 278.309 70.5079 279.485 70.5079C281.354 70.5079 282.263 69.938 281.889 68.9942C281.782 68.6915 281.141 68.6381 280.98 68.9052C280.927 68.9942 280.428 69.0833 279.912 69.0833C278.719 69.0833 278.22 68.7271 278.22 67.8901V67.3025H280.589C282.975 67.3025 282.975 67.3025 283.171 66.8573C283.438 66.2874 283.456 64.0971 283.206 64.0971C283.117 64.0971 283.028 64.008 283.028 63.9012C283.028 63.0998 281.194 62.619 279.716 63.0464ZM281.39 64.4532C281.835 64.7204 281.96 64.9341 281.96 65.3436V65.8779H280.268C279.324 65.8779 278.576 65.8066 278.576 65.7176C278.576 65.3614 279.431 64.5601 280.019 64.3464C280.82 64.0615 280.713 64.0437 281.39 64.4532Z" fill="#0F5B92"/>
<path d="M289.439 63.1174C286.483 64.453 285.415 69.0474 287.783 70.294C288.389 70.6323 289.724 70.5433 290.525 70.1515C291.167 69.8132 291.256 69.8132 291.505 70.0625C291.932 70.4721 292.591 70.5789 292.912 70.2762C293.214 69.9734 293.286 69.0831 293.001 69.0831C292.912 69.0831 292.823 68.7625 292.823 68.3707C292.823 67.979 292.912 67.6584 293.001 67.6584C293.108 67.6584 293.179 67.3379 293.179 66.9461C293.179 66.5543 293.268 66.2338 293.357 66.2338C293.464 66.2338 293.535 65.9133 293.535 65.5393C293.535 65.1475 293.624 64.7736 293.713 64.7201C293.82 64.6667 293.891 64.2571 293.891 63.8119C293.891 63.0462 293.873 63.0284 293.303 63.0284C292.965 63.0284 292.11 62.9928 291.38 62.9394C290.401 62.8681 289.902 62.9037 289.439 63.1174ZM291.719 64.3996C292.039 64.4708 292.11 64.6133 292.11 65.1831C292.11 65.5749 292.039 65.8776 291.95 65.8776C291.861 65.8776 291.754 66.1448 291.701 66.4475C291.362 68.3529 291.184 68.7269 290.614 68.7269C290.454 68.7269 290.33 68.7981 290.33 68.905C290.33 69.1721 288.923 69.1187 288.656 68.8516C287.926 68.1392 287.872 67.0173 288.495 65.8064C289.012 64.7914 290.33 63.9722 291.042 64.2215C291.184 64.2749 291.487 64.364 291.719 64.3996Z" fill="#0F5B92"/>
<path d="M300.818 63.0106C299.768 63.3311 298.343 64.4352 298.343 64.9338C298.343 65.0585 298.272 65.1653 298.183 65.1653C298.005 65.1653 297.738 65.8242 297.453 66.8927C297.114 68.2461 297.702 69.7063 298.842 70.3118C299.305 70.5611 301.548 70.5789 301.548 70.3296C301.548 70.2227 301.709 70.1515 301.905 70.1515C302.207 70.1515 302.261 70.0268 302.261 69.4392C302.261 68.8515 302.207 68.7269 301.905 68.7269C301.709 68.7269 301.548 68.7981 301.548 68.905C301.548 68.994 301.192 69.083 300.747 69.083C299.554 69.083 299.055 68.531 299.055 67.2132C299.055 66.679 299.144 66.2338 299.233 66.2338C299.34 66.2338 299.412 66.1091 299.412 65.9489C299.412 65.7886 299.696 65.379 300.07 65.005C300.694 64.3818 300.747 64.364 301.958 64.3818C303.311 64.4174 303.685 64.2215 303.685 63.5626C303.685 62.9393 302.1 62.6366 300.818 63.0106Z" fill="#0F5B92"/>
<path d="M309.259 62.9752C309.028 63.0108 308.85 63.1177 308.85 63.2067C308.85 63.2958 308.689 63.4204 308.476 63.4738C307.959 63.6519 307.194 64.4889 306.748 65.3793C305.644 67.6231 305.894 69.4573 307.425 70.2408C308.048 70.5614 309.669 70.5792 310.63 70.2942C311.289 70.0805 311.343 70.0271 311.343 69.4038C311.343 68.8518 311.272 68.7271 310.987 68.7271C310.791 68.7271 310.63 68.7984 310.63 68.9052C310.63 69.0121 310.114 69.0833 309.455 69.0833C308.102 69.0833 307.781 68.8696 307.781 67.9436V67.3025H310.025C311.645 67.3025 312.322 67.2313 312.5 67.071C312.625 66.9286 312.785 66.3943 312.856 65.8601C313.141 63.5985 311.735 62.4944 309.259 62.9752ZM310.702 64.3464C311.289 64.5957 311.663 65.308 311.432 65.6998C311.254 65.9847 308.137 65.9313 308.137 65.6464C308.137 65.308 308.885 64.5601 309.473 64.3286C309.776 64.2218 310.025 64.1327 310.061 64.1149C310.078 64.0971 310.381 64.204 310.702 64.3464Z" fill="#0F5B92"/>
</svg>
