<svg width="20" height="21" viewBox="0 0 20 21" fill="none" xmlns="http://www.w3.org/2000/svg">
<path fill-rule="evenodd" clip-rule="evenodd" d="M17.3567 1.92331H16.4411V1.00776C16.4411 0.504217 16.0291 0.0922241 15.5256 0.0922241C15.0221 0.0922241 14.6101 0.504217 14.6101 1.00776V1.92331H5.45466V1.00776C5.45466 0.504217 5.04266 0.0922241 4.53912 0.0922241C4.03557 0.0922241 3.62357 0.504217 3.62357 1.00776V1.92331H2.70803C1.70094 1.92331 0.876953 2.74729 0.876953 3.75439V18.403C0.876953 19.4101 1.70094 20.2341 2.70803 20.2341H17.3567C18.3638 20.2341 19.1878 19.4101 19.1878 18.403V3.75439C19.1878 2.74729 18.3638 1.92331 17.3567 1.92331ZM16.4412 18.403H3.6236C3.12005 18.403 2.70806 17.991 2.70806 17.4875V6.50101H17.3567V17.4875C17.3567 17.991 16.9447 18.403 16.4412 18.403Z" fill="#11142D"/>
</svg>
