<svg width="101" height="73" viewBox="0 0 101 73" fill="none" xmlns="http://www.w3.org/2000/svg">
<path d="M35.8776 1.65267C29.1446 2.80061 19.7028 7.53587 14.2854 12.4864C8.86799 17.4369 6.00451 21.5982 3.06363 28.7011C1.28363 33.1493 1.12884 34.4408 0.896668 49.2205C0.587102 64.1438 0.664493 65.1482 2.13493 67.3723C5.38538 72.1076 7.16538 72.5381 23.0306 72.5381C36.1098 72.5381 37.4255 72.3946 39.902 71.0314C44.3907 68.4485 44.7776 67.0136 44.7776 52.0186C44.7776 39.8217 44.6229 38.3868 43.2298 36.3062C40.7533 32.5754 37.6576 31.6427 27.8289 31.6427H19.1611L20.0898 29.9925C24.0367 22.9613 32.3176 17.6521 42.6881 15.5715L44.7776 15.141V7.96635V0.791718L42.3011 0.863464C40.9081 0.935204 38.0446 1.22219 35.8776 1.65267Z" fill="#0F5B92"/>
<path d="M90.1289 1.9388C74.4958 5.45438 61.5715 17.2925 57.5471 32.0005C56.6958 35.0856 56.3862 40.1079 56.3862 50.8698C56.3862 72.609 56.541 72.7525 79.6037 72.3937C93.9211 72.1785 94.2307 72.1785 96.2428 70.3848C100.19 66.941 100.499 65.7213 100.499 51.946C100.499 40.4666 100.345 38.9599 98.9515 36.8075C96.1655 32.5745 93.4568 31.6418 83.7054 31.6418C78.9072 31.6418 74.9602 31.4983 74.9602 31.2831C74.9602 30.0634 79.2167 25.0411 82.235 22.53C86.4141 19.1579 90.6707 17.149 96.475 15.8576L100.499 14.9966V7.89375V0.790863L97.6359 0.86261C96.0107 0.86261 92.6054 1.36483 90.1289 1.9388Z" fill="#0F5B92"/>
</svg>
