<svg width="363" height="71" viewBox="0 0 363 71" fill="none" xmlns="http://www.w3.org/2000/svg">
<path d="M0.82799 0.610379C0.649912 0.806265 0.596489 6.25546 0.596489 26.6098V52.3421H5.13748H9.67847V26.592C9.67847 4.5281 9.64286 0.824073 9.42916 0.592571C9.0552 0.218607 1.14853 0.236415 0.82799 0.610379Z" fill="white"/>
<path d="M42.7119 12.6128C40.7353 12.8443 39.3463 13.2895 36.7463 14.4827C36.497 14.5895 36.1943 14.7854 36.0696 14.8922C35.945 15.0169 35.7669 15.1237 35.6779 15.1237C35.6066 15.1237 35.2861 15.3552 34.9834 15.6402C34.6628 15.9429 34.2532 16.2278 34.0573 16.2813C33.8793 16.3525 33.719 16.4771 33.719 16.5662C33.719 16.6552 33.6478 16.7264 33.5409 16.7264C33.4519 16.7264 33.345 15.9429 33.3272 14.9813L33.2738 13.2539L29.3739 13.2005C26.3644 13.1649 25.4384 13.2183 25.3137 13.3786C25.2425 13.5032 25.1712 22.3181 25.1712 32.9672V52.3421H29.4451H33.719V39.467C33.719 26.8057 33.719 26.592 34.0752 26.3427C34.271 26.2002 34.4313 25.9865 34.4313 25.844C34.4313 25.5413 37.3874 22.603 38.3846 21.9263C39.1326 21.4099 40.0764 20.9469 41.3764 20.4483C41.7503 20.3058 42.6763 20.199 43.6914 20.2168C45.205 20.2168 45.49 20.2702 46.4338 20.7332C47.9474 21.4989 48.9981 22.8345 49.4611 24.6509C49.568 25.0961 49.657 30.4207 49.6926 38.8438L49.746 52.3421H53.9309H58.1157L58.0623 37.9534C58.0267 30.0467 57.9554 23.3331 57.8842 23.0482C57.5637 21.8195 57.35 21.0537 57.1363 20.5551C56.6733 19.451 56.2637 18.5963 56.1568 18.5072C56.0856 18.4538 55.9253 18.2223 55.8007 17.9908C55.5158 17.4388 55.4089 17.2963 54.1624 16.0141C53.6103 15.4265 53.0761 14.9457 52.9871 14.9457C52.9158 14.9457 52.6843 14.7854 52.4706 14.6073C50.8679 13.1115 46.3982 12.2033 42.7119 12.6128Z" fill="white"/>
<path d="M89.9918 12.6307C88.3 12.8622 85.0056 13.8238 85.0056 14.0909C85.0056 14.1799 84.8453 14.2334 84.6494 14.2334C84.4535 14.2334 84.2933 14.3046 84.2933 14.4114C84.2933 14.5005 84.133 14.5895 83.9371 14.5895C83.7412 14.5895 83.5809 14.6607 83.5809 14.7676C83.5809 14.8566 83.4741 14.9457 83.3494 14.9457C83.2248 14.9457 82.9399 15.1059 82.7262 15.3018C82.5125 15.4977 82.2988 15.658 82.2275 15.658C82.1741 15.658 81.8892 15.8895 81.6221 16.1922C80.8385 17.0292 80.7317 16.9045 80.7317 15.1594C80.7317 14.3046 80.6605 13.5032 80.5892 13.3786C80.4646 13.2183 79.5386 13.1649 76.529 13.2005L72.6291 13.2539L72.5757 32.7891L72.5401 52.3421H76.7249H80.9098V39.6451C80.9098 27.8029 80.9276 26.9125 81.2303 26.5564C81.3906 26.3605 81.6577 26.0221 81.8002 25.8084C82.1741 25.2386 85.0056 22.4071 85.6466 21.9619C86.3768 21.4455 87.4987 20.8757 88.5137 20.5195C90.1164 19.9675 93.3218 20.1812 94.23 20.9113C95.5122 21.9263 96.0998 22.7277 96.6875 24.2057C96.9902 24.9537 97.008 26.0756 97.0615 38.6657L97.1327 52.3421H101.407H105.68L105.609 38.4876C105.556 26.7344 105.502 24.455 105.253 23.3688C104.915 21.8729 104.202 19.6825 104.024 19.6113C103.935 19.5757 103.882 19.3976 103.882 19.2017C103.882 19.0237 103.811 18.8634 103.704 18.8634C103.615 18.8634 103.526 18.7565 103.526 18.6319C103.526 18.5072 103.365 18.2223 103.17 18.0086C102.974 17.7949 102.813 17.5456 102.813 17.4388C102.813 17.2251 100.57 14.9457 100.356 14.9457C100.285 14.9457 100.053 14.8032 99.8573 14.6251C98.2368 13.1293 93.4465 12.1677 89.9918 12.6307Z" fill="white"/>
<path d="M133.532 12.5595C131.288 12.8088 127.566 14.0732 126.711 14.8923C126.587 15.017 126.409 15.1238 126.32 15.1238C126.231 15.1238 125.963 15.3197 125.714 15.569C125.465 15.8183 125.198 16.0142 125.091 16.0142C124.948 16.0142 122.865 18.0265 122.259 18.7744C121.636 19.5045 120.265 21.7305 120.265 21.9798C120.265 22.1223 120.194 22.2469 120.087 22.2469C119.998 22.2469 119.909 22.4072 119.909 22.6031C119.909 22.799 119.838 22.9593 119.731 22.9593C119.642 22.9593 119.553 23.1195 119.553 23.2976C119.553 23.4935 119.481 23.7072 119.375 23.7606C119.286 23.814 119.197 24.0633 119.197 24.3127C119.197 24.5442 119.125 24.74 119.018 24.74C118.929 24.74 118.84 24.9715 118.84 25.2743C118.84 25.5592 118.769 25.8085 118.662 25.8085C118.573 25.8085 118.484 26.1291 118.484 26.5208C118.484 26.9126 118.413 27.2331 118.306 27.2331C118.199 27.2331 118.128 27.7139 118.128 28.3016C118.128 28.8893 118.057 29.3701 117.95 29.3701C117.843 29.3701 117.772 30.67 117.772 32.9316C117.772 35.1932 117.843 36.4932 117.95 36.4932C118.057 36.4932 118.128 36.974 118.128 37.5617C118.128 38.1493 118.199 38.6301 118.306 38.6301C118.413 38.6301 118.484 38.9507 118.484 39.3424C118.484 39.7342 118.573 40.0548 118.662 40.0548C118.769 40.0548 118.84 40.215 118.84 40.4109C118.84 40.9095 119.25 42.1917 119.41 42.1917C119.499 42.1917 119.553 42.3163 119.553 42.4588C119.553 42.9574 120.764 45.1478 121.707 46.3943C122.758 47.7655 124.485 49.4929 124.788 49.4929C124.895 49.4929 125.109 49.6532 125.251 49.8491C125.394 50.0449 125.625 50.2052 125.785 50.2052C125.946 50.2052 126.177 50.3655 126.32 50.5614C126.462 50.7573 126.711 50.9175 126.89 50.9175C127.068 50.9175 127.21 50.9888 127.21 51.0956C127.21 51.1846 127.37 51.2737 127.566 51.2737C127.762 51.2737 127.922 51.3449 127.922 51.4518C127.922 51.5408 128.1 51.6298 128.332 51.6298C128.563 51.6298 128.813 51.6833 128.884 51.7545C129.062 51.9504 130.291 52.3421 130.683 52.3421C130.896 52.3421 131.128 52.4134 131.217 52.5024C131.822 53.0723 140.78 53.0901 142.08 52.5202C142.275 52.4312 142.756 52.3243 143.148 52.2531C144.626 52.0394 145.018 51.9504 145.018 51.7901C145.018 51.7011 145.285 51.6298 145.623 51.6298C145.962 51.6298 146.3 51.5408 146.353 51.4518C146.407 51.3449 146.656 51.2737 146.905 51.2737C147.137 51.2737 147.333 51.1846 147.333 51.0956C147.333 50.9888 147.582 50.9175 147.867 50.9175C148.17 50.9175 148.401 50.8285 148.401 50.7394C148.401 50.6326 148.562 50.5614 148.757 50.5614C148.953 50.5614 149.114 50.4723 149.114 50.3833C149.114 50.2764 149.363 50.2052 149.648 50.2052C150.057 50.2052 150.182 50.134 150.182 49.8491C150.182 49.6532 150.111 49.4929 150.004 49.4929C149.915 49.4929 149.826 49.1724 149.826 48.7806C149.826 48.3888 149.755 48.0683 149.648 48.0683C149.559 48.0683 149.47 47.8368 149.47 47.5518C149.47 47.2491 149.399 46.9642 149.292 46.9108C149.203 46.8573 149.114 46.5368 149.114 46.1985C149.114 45.8601 149.042 45.5396 148.936 45.4861C148.847 45.4327 148.757 45.2012 148.757 44.9875C148.757 44.5601 148.152 42.7615 147.938 42.5657C147.867 42.5122 147.778 42.5657 147.742 42.6725C147.689 42.7972 147.547 42.904 147.404 42.904C147.262 42.904 146.995 42.9752 146.799 43.0821C146.603 43.1711 146.282 43.3314 146.086 43.4382C145.89 43.5273 145.57 43.6163 145.374 43.6163C145.178 43.6163 145.018 43.6876 145.018 43.7944C145.018 43.8834 144.822 43.9725 144.59 43.9725C144.341 43.9725 144.092 44.0437 144.038 44.1506C143.985 44.2396 143.7 44.3286 143.397 44.3286C143.112 44.3286 142.881 44.3821 142.881 44.4711C142.881 44.6492 141.171 44.9519 138.732 45.2368C136.007 45.5574 133.781 45.219 131.306 44.1327C131.021 43.9903 130.772 43.83 130.772 43.7588C130.772 43.6697 130.647 43.6163 130.504 43.6163C130.362 43.6163 130.237 43.5273 130.237 43.4382C130.237 43.3314 130.148 43.2602 130.059 43.2602C129.792 43.2602 128.279 41.7109 128.279 41.426C128.279 41.3013 128.118 41.0876 127.922 40.9451C127.726 40.8027 127.566 40.5534 127.566 40.3753C127.566 40.1972 127.495 40.0548 127.388 40.0548C127.299 40.0548 127.21 39.8054 127.21 39.5205C127.21 39.2178 127.139 38.9863 127.032 38.9863C126.943 38.9863 126.854 38.737 126.854 38.4521C126.854 38.1493 126.783 37.9178 126.676 37.9178C126.587 37.9178 126.498 37.5617 126.498 37.1165V36.3151H139.195H151.874L152.105 35.6028C152.372 34.7302 152.408 27.6605 152.141 27.5003C152.052 27.4468 151.963 26.9482 151.963 26.414C151.963 25.8797 151.892 25.4524 151.785 25.4524C151.696 25.4524 151.607 25.1318 151.607 24.74C151.607 24.3483 151.536 24.0277 151.429 24.0277C151.34 24.0277 151.251 23.8318 151.251 23.5825C151.251 23.3332 151.179 23.1373 151.073 23.1373C150.983 23.1373 150.894 22.9415 150.894 22.6921C150.894 22.4428 150.823 22.2469 150.716 22.2469C150.627 22.2469 150.538 22.0867 150.538 21.9086C150.538 21.7127 150.467 21.499 150.36 21.4456C150.271 21.3922 150.182 21.1785 150.182 20.9826C150.182 20.8045 150.111 20.6442 150.004 20.6442C149.915 20.6442 149.826 20.5196 149.826 20.3771C149.826 20.2347 149.755 20.11 149.648 20.11C149.559 20.11 149.47 19.9854 149.47 19.8429C149.47 19.7004 149.399 19.5758 149.292 19.5758C149.203 19.5758 149.114 19.4689 149.114 19.3443C149.114 18.8991 146.051 15.6581 145.623 15.6581C145.588 15.6581 145.374 15.4978 145.16 15.3019C144.947 15.106 144.662 14.9457 144.537 14.9457C144.412 14.9457 144.306 14.8745 144.306 14.8033C144.306 14.6608 143.522 14.269 141.688 13.5389C141.189 13.3252 140.192 13.0403 139.497 12.8978C138.18 12.6129 134.778 12.4348 133.532 12.5595ZM136.773 20.1278C138.376 20.3593 139.07 20.573 140.299 21.2141C141.207 21.6949 142.525 22.799 142.525 23.0839C142.525 23.173 142.685 23.351 142.881 23.4935C143.077 23.636 143.237 23.8853 143.237 24.0633C143.237 24.2414 143.326 24.3839 143.415 24.3839C143.522 24.3839 143.593 24.5442 143.593 24.74C143.593 24.9359 143.682 25.0962 143.771 25.0962C143.878 25.0962 143.949 25.4167 143.949 25.8085C143.949 26.2003 144.038 26.5208 144.127 26.5208C144.234 26.5208 144.306 27.0907 144.306 27.8564V29.192H135.402H126.498V28.0345C126.498 27.3756 126.569 26.877 126.676 26.877C126.783 26.877 126.854 26.6277 126.854 26.3427C126.854 26.04 126.943 25.8085 127.032 25.8085C127.139 25.8085 127.21 25.6482 127.21 25.4524C127.21 25.2565 127.299 25.0962 127.388 25.0962C127.495 25.0962 127.566 24.9359 127.566 24.74C127.566 24.5442 127.655 24.3839 127.744 24.3839C127.851 24.3839 127.922 24.2592 127.922 24.1168C127.922 23.5647 129.489 21.9264 130.683 21.2319C131.947 20.5018 133.14 20.1634 135.17 19.9497C135.295 19.9497 136.007 20.021 136.773 20.1278Z" fill="white"/>
<path d="M181.435 12.6307C180.153 12.8622 177.286 13.8238 177.072 14.0731C177.018 14.1443 176.627 14.358 176.199 14.5895C175.772 14.8032 175.256 15.1237 175.06 15.3196C174.846 15.4977 174.614 15.658 174.525 15.658C174.436 15.658 174.062 15.9785 173.688 16.3703C173.314 16.7621 172.958 17.0826 172.905 17.0826C172.851 17.0826 172.78 16.2278 172.762 15.1594L172.709 13.2539L168.809 13.2005C165.8 13.1649 164.874 13.2183 164.749 13.3786C164.678 13.5032 164.606 22.3181 164.606 32.9672V52.3421H168.88H173.154V41.7108C173.154 31.5604 173.225 29.744 173.688 28.5686C173.777 28.3728 173.938 27.8385 174.062 27.3577C174.205 26.8947 174.365 26.5207 174.436 26.5207C174.508 26.5207 174.579 26.3605 174.579 26.1646C174.579 25.9687 174.668 25.8084 174.757 25.8084C174.864 25.8084 174.935 25.6482 174.935 25.4523C174.935 25.2564 175.024 25.0961 175.113 25.0961C175.22 25.0961 175.291 24.9715 175.291 24.8468C175.291 24.7043 175.808 24.0633 176.449 23.4222C178.853 21.0181 182.076 20.2346 185.103 21.3209C185.655 21.5167 186.19 21.6236 186.279 21.5524C186.457 21.4455 186.635 20.8579 186.813 19.7894C186.866 19.4867 186.973 19.2195 187.062 19.2195C187.151 19.2195 187.222 19.0415 187.222 18.8278C187.222 18.6141 187.383 17.9908 187.561 17.4566C188.184 15.6402 188.861 13.3073 188.772 13.2361C188.291 12.7553 183.091 12.3279 181.435 12.6307Z" fill="white"/>
<path d="M215.982 12.5594C214.344 12.8265 212.403 13.4498 210.871 14.1799C209.91 14.6251 209.126 15.0703 209.126 15.1593C209.126 15.2306 209.019 15.3018 208.912 15.3018C208.788 15.3018 208.467 15.4799 208.2 15.7114C207.951 15.9251 207.559 16.2456 207.363 16.4059C206.793 16.8867 206.526 16.7976 205.618 15.8716C204.781 15.0347 202.733 13.8772 202.056 13.8772C201.878 13.8772 201.415 13.7703 201.023 13.6279C200.632 13.4854 199.617 13.3251 198.762 13.2539L197.213 13.1292L197.017 13.9128C196.91 14.3224 196.696 15.1237 196.554 15.6579C196.393 16.1922 196.197 16.9401 196.108 17.2963C195.752 18.7921 195.539 19.5044 195.396 19.8784C195.254 20.2702 195.289 20.288 196.091 20.288C197.551 20.288 199.332 21.0537 199.332 21.6592C199.332 21.7838 199.421 21.8907 199.51 21.8907C199.634 21.8907 199.688 29.6905 199.688 44.9518V68.0129H204.051H208.414V59.109C208.414 53.2858 208.467 50.2051 208.592 50.2051C208.699 50.2051 208.77 50.2763 208.77 50.3832C208.77 50.4722 208.912 50.5613 209.09 50.5613C209.268 50.5613 209.518 50.7215 209.66 50.9174C209.803 51.1133 210.088 51.2736 210.319 51.2736C210.533 51.2736 210.764 51.3448 210.818 51.4516C210.871 51.5407 211.085 51.6297 211.281 51.6297C211.459 51.6297 211.619 51.701 211.619 51.8078C211.619 51.8968 211.868 51.9859 212.153 51.9859C212.456 51.9859 212.688 52.0571 212.688 52.1461C212.688 52.2352 212.99 52.3598 213.364 52.4133C213.72 52.4845 214.468 52.6092 215.003 52.7338C216.783 53.09 221.396 52.9297 221.859 52.5023C221.948 52.4133 222.197 52.342 222.428 52.342C222.642 52.342 223.105 52.1818 223.461 51.9859C223.817 51.79 224.245 51.6297 224.441 51.6297C224.637 51.6297 224.797 51.5407 224.797 51.4516C224.797 51.3448 224.921 51.2736 225.064 51.2736C225.206 51.2736 225.331 51.1845 225.331 51.0955C225.331 50.9886 225.456 50.9174 225.598 50.9174C225.741 50.9174 225.865 50.8284 225.865 50.7393C225.865 50.6325 226.008 50.5613 226.186 50.5613C226.364 50.5613 226.613 50.401 226.756 50.2051C226.898 50.0092 227.112 49.8489 227.219 49.8489C227.486 49.8489 229.48 47.8901 230.406 46.7326C230.798 46.234 231.172 45.8066 231.261 45.7888C231.332 45.7531 231.386 45.6285 231.386 45.5038C231.386 45.3792 231.528 45.1299 231.706 44.934C232.134 44.4354 232.454 43.8477 232.454 43.5272C232.454 43.3847 232.543 43.2601 232.632 43.2601C232.739 43.2601 232.81 43.0998 232.81 42.9039C232.81 42.708 232.899 42.5477 232.988 42.5477C233.095 42.5477 233.167 42.3875 233.167 42.1916C233.167 41.9957 233.256 41.8354 233.345 41.8354C233.451 41.8354 233.523 41.6752 233.523 41.4793C233.523 41.2834 233.612 41.1231 233.701 41.1231C233.808 41.1231 233.879 40.8738 233.879 40.5889C233.879 40.2861 233.968 40.0546 234.057 40.0546C234.164 40.0546 234.235 39.7341 234.235 39.3423C234.235 38.9506 234.324 38.63 234.413 38.63C234.52 38.63 234.591 38.2739 234.591 37.8287C234.591 37.3835 234.662 37.0273 234.751 37.0273C235.09 37.0273 235.268 32.0767 235.036 29.2275C234.965 28.4261 234.84 27.7673 234.751 27.7673C234.662 27.7673 234.591 27.4111 234.591 26.9659C234.591 26.5207 234.52 26.1646 234.413 26.1646C234.324 26.1646 234.235 25.9152 234.235 25.6303C234.235 25.3276 234.164 25.0961 234.057 25.0961C233.968 25.0961 233.879 24.8468 233.879 24.5618C233.879 24.2591 233.808 24.0276 233.701 24.0276C233.612 24.0276 233.523 23.7783 233.523 23.4934C233.523 23.1906 233.451 22.9591 233.345 22.9591C233.256 22.9591 233.167 22.7989 233.167 22.603C233.167 22.4071 233.095 22.2468 232.988 22.2468C232.899 22.2468 232.81 22.0866 232.81 21.8907C232.81 21.6948 232.757 21.5345 232.668 21.5345C232.597 21.5345 232.436 21.2674 232.294 20.9469C232.151 20.6441 231.991 20.3414 231.92 20.288C231.867 20.2346 231.617 19.914 231.386 19.5757C230.887 18.8812 230.691 18.6318 229.445 17.2963C228.946 16.7976 228.519 16.3703 228.465 16.3703C228.376 16.3703 228.198 16.2278 227.254 15.4442C227.058 15.2662 226.738 15.0881 226.56 15.0347C226.364 14.9634 226.221 14.8566 226.221 14.7854C226.221 14.6607 225.616 14.3758 223.604 13.5388C223.105 13.3429 222.179 13.0402 221.556 12.8977C220.398 12.6128 216.926 12.4169 215.982 12.5594ZM219.633 20.3948C220.167 20.5729 220.648 20.7866 220.665 20.8578C220.701 20.9291 220.808 21.0003 220.915 21.0003C221.431 21.0003 224.085 23.2797 224.085 23.7427C224.085 23.8495 224.245 24.0632 224.441 24.2057C224.637 24.3482 224.797 24.5975 224.797 24.7755C224.797 24.9536 224.886 25.0961 224.975 25.0961C225.082 25.0961 225.153 25.2564 225.153 25.4522C225.153 25.6481 225.242 25.8084 225.331 25.8084C225.438 25.8084 225.509 25.9687 225.509 26.1646C225.509 26.3604 225.598 26.5207 225.687 26.5207C225.794 26.5207 225.865 26.8056 225.865 27.144C225.865 27.4823 225.954 27.7673 226.043 27.7673C226.15 27.7673 226.221 28.159 226.221 28.6576C226.221 29.1385 226.311 29.548 226.4 29.548C226.506 29.548 226.578 30.6699 226.578 32.5754C226.578 34.4808 226.506 35.6027 226.4 35.6027C226.311 35.6027 226.221 35.9945 226.221 36.4931C226.221 36.9739 226.15 37.3835 226.043 37.3835C225.954 37.3835 225.865 37.6684 225.865 38.0067C225.865 38.3451 225.794 38.63 225.687 38.63C225.598 38.63 225.509 38.8259 225.509 39.0752C225.509 39.3245 225.438 39.5204 225.331 39.5204C225.242 39.5204 225.153 39.7163 225.153 39.9656C225.153 40.2149 225.082 40.4108 224.975 40.4108C224.886 40.4108 224.797 40.5355 224.797 40.6779C224.797 40.8382 224.601 41.1587 224.352 41.408C224.102 41.6573 223.906 41.9245 223.906 42.0135C223.906 42.2984 222.428 43.6162 222.126 43.6162C222.019 43.6162 221.948 43.6874 221.948 43.7587C221.948 43.8477 221.609 44.0792 221.2 44.2929C217.976 45.8422 215.109 45.7531 211.405 43.9724C210.925 43.7409 210.551 43.4916 210.551 43.4025C210.551 43.3313 210.426 43.2601 210.283 43.2601C210.123 43.2601 209.642 42.9039 209.215 42.4587L208.414 41.6752V32.7356V23.8139L209.464 22.7989C210.568 21.7482 212.545 20.6263 214.041 20.1989C215.27 19.8606 218.368 19.9674 219.633 20.3948Z" fill="white"/>
<path d="M261.214 12.5595C258.489 12.9513 257.082 13.3609 255.337 14.2691C254.945 14.4828 254.447 14.7321 254.233 14.8389C254.002 14.9458 253.824 15.0882 253.824 15.1595C253.824 15.2485 253.717 15.3019 253.574 15.3019C253.45 15.3019 253.004 15.6225 252.595 16.0143C252.203 16.406 251.776 16.7266 251.687 16.7266C251.491 16.7266 250.618 17.5279 250.618 17.6882C250.618 17.795 250.262 18.2402 249.425 19.184C249.104 19.5402 248.837 19.932 248.837 20.0566C248.837 20.1813 248.784 20.2881 248.713 20.2881C248.624 20.2881 248.481 20.4662 248.374 20.6977C248.268 20.9114 247.947 21.5347 247.662 22.0689C246.683 23.9031 245.988 25.9866 245.632 28.0345C245.525 28.7112 245.347 29.6907 245.24 30.1715C245.062 31.0262 245.133 34.8549 245.365 36.4042C246.077 41.3548 247.769 45.1478 250.583 47.9971C250.992 48.4245 251.33 48.8519 251.33 48.9587C251.33 49.0477 251.473 49.1368 251.651 49.1368C251.829 49.1368 252.078 49.2971 252.221 49.4929C252.363 49.6888 252.577 49.8491 252.702 49.8491C252.826 49.8491 252.933 49.9203 252.933 50.0272C252.933 50.1162 253.058 50.2052 253.2 50.2052C253.343 50.2052 253.467 50.2765 253.467 50.3833C253.467 50.4724 253.592 50.5614 253.735 50.5614C253.877 50.5614 254.002 50.6326 254.002 50.7395C254.002 50.8285 254.162 50.9176 254.358 50.9176C254.554 50.9176 254.714 50.9888 254.714 51.0956C254.714 51.1847 254.839 51.2737 254.981 51.2737C255.124 51.2737 255.391 51.3449 255.569 51.434C256.726 52.0216 257.759 52.3244 259.967 52.734C261.374 53.0011 266.342 53.0011 268.159 52.734C268.942 52.6271 269.94 52.4846 270.385 52.4134C270.83 52.36 271.257 52.2353 271.364 52.1463C271.453 52.0573 271.756 51.986 272.023 51.986C272.29 51.986 272.522 51.897 272.522 51.808C272.522 51.7011 272.789 51.6299 273.127 51.6299C273.466 51.6299 273.804 51.5408 273.857 51.4518C273.911 51.3449 274.196 51.2737 274.498 51.2737C274.783 51.2737 275.015 51.1847 275.015 51.0956C275.015 50.9888 275.175 50.9176 275.371 50.9176C275.567 50.9176 275.727 50.8285 275.727 50.7395C275.727 50.6326 275.976 50.5614 276.261 50.5614C276.564 50.5614 276.796 50.4724 276.796 50.3833C276.796 50.2765 276.956 50.2052 277.152 50.2052C277.437 50.2052 277.508 50.0806 277.508 49.671C277.508 49.3683 277.437 49.1368 277.33 49.1368C277.241 49.1368 277.152 48.8162 277.152 48.4245C277.152 48.0327 277.081 47.7122 276.974 47.7122C276.885 47.7122 276.796 47.445 276.796 47.1067C276.796 46.7683 276.724 46.43 276.618 46.3766C276.529 46.3231 276.439 45.9848 276.439 45.6464C276.439 45.3081 276.368 45.041 276.261 45.041C276.172 45.041 276.083 44.7561 276.083 44.4177C276.083 44.0794 276.012 43.7944 275.905 43.7944C275.816 43.7944 275.727 43.5095 275.727 43.1712C275.727 42.8328 275.656 42.5479 275.549 42.5479C275.46 42.5479 275.371 42.6191 275.371 42.726C275.371 42.815 275.14 42.904 274.837 42.904C274.552 42.904 274.303 42.9753 274.303 43.0821C274.303 43.1712 274.142 43.2602 273.946 43.2602C273.751 43.2602 273.59 43.3314 273.59 43.4383C273.59 43.5273 273.359 43.6164 273.056 43.6164C272.771 43.6164 272.522 43.6876 272.522 43.7944C272.522 43.8835 272.361 43.9725 272.166 43.9725C271.97 43.9725 271.667 44.0437 271.489 44.1328C271.329 44.2218 270.83 44.3821 270.385 44.5067C269.94 44.6136 269.352 44.7739 269.049 44.8629C268.764 44.9519 267.571 45.1122 266.431 45.2369C264.74 45.4149 264.027 45.4149 262.692 45.2369C260.893 44.9876 259.7 44.6848 259.7 44.4711C259.7 44.3821 259.54 44.3287 259.344 44.3287C259.148 44.3287 258.988 44.2396 258.988 44.1506C258.988 44.0437 258.828 43.9725 258.632 43.9725C258.436 43.9725 258.276 43.9013 258.276 43.8301C258.276 43.741 258.062 43.5629 257.795 43.4205C256.05 42.5123 254.019 38.9863 254.002 36.796V36.3152H266.734H279.467L279.591 35.8165C279.841 34.944 279.752 27.7852 279.485 26.5209C279.022 24.2949 277.704 20.6799 277.294 20.5018C277.205 20.4662 277.152 20.3237 277.152 20.1813C277.152 20.0388 277.081 19.932 276.974 19.932C276.885 19.932 276.796 19.8073 276.796 19.647C276.796 19.4868 276.564 19.1306 276.261 18.8635C275.976 18.5964 275.727 18.2758 275.727 18.169C275.727 17.9197 274.427 16.6019 273.59 16.0143C273.252 15.7828 272.807 15.4444 272.629 15.2663C272.433 15.0882 272.183 14.9458 272.059 14.9458C271.934 14.9458 271.809 14.8746 271.774 14.8033C271.649 14.5006 269.156 13.4499 267.625 13.0582C266.058 12.6486 262.478 12.3815 261.214 12.5595ZM264.17 20.1279C265.719 20.3237 266.823 20.6265 267.731 21.1073C270.082 22.3182 271.97 25.6839 271.774 28.3016L271.72 29.103H262.817H253.913L253.948 28.3195C254.019 26.9661 254.91 24.5086 255.747 23.4579C256.05 23.0483 257.314 21.8018 257.777 21.4278C258.471 20.8758 259.38 20.5374 261.125 20.1991C262.638 19.8964 262.46 19.8964 264.17 20.1279Z" fill="white"/>
<path d="M306 12.6307C304.238 12.8622 300.836 13.8238 300.836 14.091C300.836 14.18 300.676 14.2334 300.48 14.2334C300.284 14.2334 300.124 14.3047 300.124 14.4115C300.124 14.5005 299.964 14.5896 299.768 14.5896C299.572 14.5896 299.412 14.6608 299.412 14.7677C299.412 14.8567 299.305 14.9457 299.18 14.9457C299.055 14.9457 298.788 15.0882 298.592 15.2485C298.414 15.4266 298.04 15.6759 297.773 15.8183C297.488 15.9608 297.275 16.1389 297.275 16.2279C297.275 16.2991 297.186 16.3704 297.097 16.3704C296.865 16.3704 293.891 19.3443 293.891 19.5758C293.891 19.6648 293.82 19.7538 293.713 19.7538C293.624 19.7538 293.535 19.8785 293.535 20.021C293.535 20.1634 293.464 20.2881 293.357 20.2881C293.268 20.2881 293.179 20.4127 293.179 20.5552C293.179 20.6977 293.108 20.8223 293.001 20.8223C292.912 20.8223 292.823 20.947 292.823 21.0894C292.823 21.2319 292.751 21.3566 292.645 21.3566C292.556 21.3566 292.467 21.5168 292.467 21.7127C292.467 21.9086 292.395 22.0689 292.288 22.0689C292.199 22.0689 292.11 22.1935 292.11 22.336C292.11 22.4784 292.039 22.6031 291.932 22.6031C291.843 22.6031 291.754 22.7634 291.754 22.9593C291.754 23.1551 291.683 23.3154 291.576 23.3154C291.487 23.3154 291.398 23.5469 291.398 23.8496C291.398 24.1346 291.345 24.3839 291.273 24.3839C291.149 24.3839 290.543 26.2003 290.152 27.7674C289.582 30.029 289.582 36.6891 290.152 38.0069C290.241 38.2027 290.347 38.6479 290.419 38.9863C290.472 39.3246 290.561 39.8767 290.632 40.1794C290.686 40.4999 290.793 40.7671 290.882 40.7671C290.971 40.7671 291.042 40.9273 291.042 41.1232C291.042 41.3191 291.131 41.4794 291.22 41.4794C291.327 41.4794 291.398 41.7109 291.398 42.0136C291.398 42.2985 291.487 42.5478 291.576 42.5478C291.683 42.5478 291.754 42.7081 291.754 42.904C291.754 43.0999 291.843 43.2602 291.932 43.2602C292.039 43.2602 292.11 43.4204 292.11 43.6163C292.11 43.8122 292.199 43.9725 292.288 43.9725C292.395 43.9725 292.467 44.1149 292.467 44.293C292.467 44.4711 292.627 44.7204 292.823 44.8629C293.019 45.0053 293.179 45.2012 293.179 45.3081C293.179 45.593 294.034 46.608 295.405 47.9792C296.829 49.386 297.382 49.849 297.631 49.849C297.738 49.849 297.809 49.9203 297.809 50.0271C297.809 50.1162 297.934 50.2052 298.076 50.2052C298.218 50.2052 298.343 50.2764 298.343 50.3833C298.343 50.4723 298.468 50.5614 298.61 50.5614C298.753 50.5614 298.877 50.6326 298.877 50.7394C298.877 50.8285 299.073 50.9175 299.323 50.9175C299.572 50.9175 299.768 50.9887 299.768 51.0956C299.768 51.1846 299.928 51.2737 300.124 51.2737C300.32 51.2737 300.48 51.3449 300.48 51.4517C300.48 51.5408 300.64 51.6298 300.836 51.6298C301.032 51.6298 301.192 51.7011 301.192 51.8079C301.192 51.8969 301.388 51.986 301.62 51.986C301.869 51.986 302.101 52.0572 302.154 52.1463C302.207 52.2353 302.564 52.3599 302.92 52.4134C303.294 52.4846 304.042 52.6271 304.576 52.7339C305.894 53.001 310.773 52.9832 312.322 52.7161C313.017 52.6093 313.872 52.4668 314.246 52.4134C314.602 52.3421 314.958 52.2353 315.011 52.1463C315.065 52.0572 315.332 51.986 315.635 51.986C315.919 51.986 316.151 51.8969 316.151 51.8079C316.151 51.7011 316.4 51.6298 316.685 51.6298C316.988 51.6298 317.219 51.5408 317.219 51.4517C317.219 51.3449 317.38 51.2737 317.576 51.2737C317.771 51.2737 317.932 51.1846 317.932 51.0956C317.932 50.9887 318.128 50.9175 318.377 50.9175C318.626 50.9175 318.822 50.8285 318.822 50.7394C318.822 50.6326 318.982 50.5614 319.178 50.5614C319.374 50.5614 319.534 50.4723 319.534 50.3833C319.534 50.2764 319.695 50.2052 319.873 50.2052C320.318 50.2052 320.46 49.7778 320.211 49.1723C320.104 48.9052 319.944 48.4957 319.855 48.2463C319.748 47.997 319.606 47.6587 319.517 47.4984C319.428 47.3203 319.356 47.0532 319.356 46.9108C319.356 46.7683 319.285 46.4834 319.178 46.2875C318.786 45.5039 318.697 45.2724 318.448 44.4533C318.323 43.9903 318.145 43.6163 318.074 43.6163C318.003 43.6163 317.932 43.456 317.932 43.2602C317.932 42.9752 317.807 42.904 317.397 42.904C317.113 42.904 316.863 42.9752 316.863 43.0821C316.863 43.1711 316.703 43.2602 316.507 43.2602C316.311 43.2602 316.151 43.3314 316.151 43.4382C316.151 43.5273 315.991 43.6163 315.795 43.6163C315.599 43.6163 315.439 43.6875 315.439 43.7944C315.439 43.8834 315.278 43.9725 315.1 43.9725C314.904 43.9725 314.691 44.0437 314.637 44.1505C314.584 44.2396 314.352 44.3286 314.121 44.3286C313.907 44.3286 313.658 44.3999 313.569 44.4711C313.355 44.667 312.287 44.9519 310.88 45.2012C309.259 45.4861 307.568 45.4327 306.09 45.0409C304.896 44.7204 304.469 44.5423 303.151 43.7588C302.528 43.4026 300.836 41.6931 300.836 41.426C300.836 41.3013 300.676 41.0876 300.48 40.9451C300.284 40.8027 300.124 40.5534 300.124 40.3753C300.124 40.1972 300.07 40.0548 299.981 40.0548C299.91 40.0548 299.75 39.7876 299.625 39.4671C299.483 39.1644 299.305 38.7014 299.198 38.452C298.788 37.4904 298.717 37.2767 298.61 36.6713C298.308 34.9617 298.183 32.433 298.343 30.8303C298.575 28.2838 298.699 27.7674 299.251 26.6633C299.34 26.4852 299.412 26.2181 299.412 26.0756C299.412 25.9332 299.501 25.8085 299.59 25.8085C299.697 25.8085 299.768 25.6482 299.768 25.4523C299.768 25.2565 299.857 25.0962 299.946 25.0962C300.053 25.0962 300.124 24.9715 300.124 24.8113C300.124 24.6688 300.729 23.9387 301.477 23.1908C302.813 21.8908 304.148 21.0894 306.018 20.484C306.837 20.2347 311.094 20.2347 312.18 20.484C313.319 20.7511 314.762 21.3031 316.026 21.9264C316.934 22.3716 317.095 22.4072 317.308 22.1757C317.451 22.0332 317.576 21.7483 317.576 21.5524C317.576 21.3387 317.665 21.1785 317.754 21.1785C317.86 21.1785 317.932 20.9292 317.932 20.6442C317.932 20.3415 318.021 20.11 318.11 20.11C318.217 20.11 318.288 19.9141 318.288 19.6648C318.288 19.4155 318.377 19.2196 318.466 19.2196C318.573 19.2196 318.644 18.9881 318.644 18.7032C318.644 18.4183 318.697 18.1511 318.786 18.1155C318.965 18.0443 319.713 15.7827 319.713 15.3197C319.713 15.0704 319.606 14.9457 319.356 14.9457C319.16 14.9457 319 14.8923 319 14.8033C319 14.732 318.733 14.5896 318.43 14.4649C315.706 13.5033 314.441 13.1115 313.213 12.88C311.467 12.5595 307.568 12.417 306 12.6307Z" fill="white"/>
<path d="M343.575 12.6487C342.845 12.7378 341.794 12.9337 341.26 13.0939C339.996 13.4857 337.039 14.8747 336.576 15.3199C336.381 15.498 336.149 15.6583 336.06 15.6583C335.864 15.6583 332.534 19.0061 332.534 19.202C332.534 19.291 332.463 19.3979 332.392 19.4335C331.982 19.5938 329.685 23.7964 329.685 24.3841C329.685 24.4909 329.578 24.7937 329.435 25.0608C329.062 25.7731 328.616 28.0525 328.349 30.5634C327.993 34.0003 328.581 38.9153 329.703 41.7111C330.255 43.1357 331.163 44.9165 331.519 45.2905C331.679 45.4863 331.822 45.7 331.822 45.7891C331.822 46.0028 332.32 46.5726 333.994 48.2822C334.849 49.1369 335.633 49.8493 335.739 49.8493C335.828 49.8493 335.918 49.9205 335.918 50.0273C335.918 50.1164 336.042 50.2054 336.185 50.2054C336.327 50.2054 336.452 50.2766 336.452 50.3835C336.452 50.4725 336.612 50.5616 336.808 50.5616C337.004 50.5616 337.164 50.6328 337.164 50.7396C337.164 50.8287 337.324 50.9177 337.52 50.9177C337.716 50.9177 337.876 50.989 337.876 51.0958C337.876 51.1848 338.037 51.2739 338.233 51.2739C338.428 51.2739 338.589 51.3451 338.589 51.452C338.589 51.541 338.785 51.63 339.034 51.63C339.283 51.63 339.479 51.7013 339.479 51.7903C339.479 51.8793 339.693 52.004 339.978 52.0574C340.245 52.1287 340.779 52.2711 341.171 52.3602C343.486 52.9656 348.347 53.1437 351.143 52.7341C351.927 52.6273 352.924 52.4848 353.369 52.4136C353.814 52.3602 354.242 52.2355 354.349 52.1465C354.438 52.0574 354.723 51.9862 354.99 51.9862C355.257 51.9862 355.542 51.8972 355.595 51.8081C355.649 51.7013 355.987 51.63 356.325 51.63C356.664 51.63 356.931 51.541 356.931 51.452C356.931 51.3451 357.18 51.2739 357.465 51.2739C357.768 51.2739 357.999 51.1848 357.999 51.0958C357.999 50.989 358.159 50.9177 358.355 50.9177C358.551 50.9177 358.712 50.8287 358.712 50.7396C358.712 50.6328 358.961 50.5616 359.246 50.5616C359.549 50.5616 359.78 50.4725 359.78 50.3835C359.78 50.2766 359.94 50.2054 360.136 50.2054C360.439 50.2054 360.492 50.0808 360.492 49.5109C360.492 49.1191 360.421 48.7452 360.314 48.6917C360.225 48.6383 360.136 48.3 360.136 47.9616C360.136 47.6233 360.065 47.3562 359.958 47.3562C359.869 47.3562 359.78 47.0712 359.78 46.7329C359.78 46.3945 359.709 46.1096 359.602 46.1096C359.513 46.1096 359.424 45.8247 359.424 45.4863C359.424 45.148 359.353 44.8631 359.246 44.8631C359.157 44.8631 359.068 44.5425 359.068 44.1508C359.068 43.759 358.996 43.4384 358.89 43.4384C358.801 43.4384 358.712 43.2426 358.712 42.9932C358.712 42.7439 358.64 42.5481 358.533 42.5481C358.444 42.5481 358.355 42.6193 358.355 42.7261C358.355 42.8152 358.159 42.9042 357.928 42.9042C357.679 42.9042 357.429 42.9754 357.376 43.0823C357.323 43.1713 357.109 43.2604 356.913 43.2604C356.735 43.2604 356.575 43.3316 356.575 43.4384C356.575 43.5275 356.379 43.6165 356.147 43.6165C355.898 43.6165 355.649 43.6878 355.595 43.7946C355.542 43.8836 355.328 43.9727 355.132 43.9727C354.954 43.9727 354.651 44.0439 354.473 44.1329C354.313 44.222 353.814 44.3823 353.369 44.5069C352.924 44.6138 352.336 44.774 352.034 44.8631C351.749 44.9521 350.556 45.1124 349.398 45.237C347.724 45.4151 346.994 45.4151 345.765 45.237C343.931 44.9877 342.685 44.6672 342.685 44.4713C342.685 44.4001 342.524 44.3288 342.328 44.3288C342.132 44.3288 341.972 44.2398 341.972 44.1508C341.972 44.0439 341.83 43.9727 341.652 43.9727C341.474 43.9727 341.224 43.8124 341.082 43.6165C340.939 43.4206 340.726 43.2604 340.583 43.2604C340.334 43.2604 339.408 42.37 338.838 41.5508C337.912 40.2508 337.218 38.4701 337.128 37.2057L337.075 36.4044L349.825 36.3509L362.594 36.3153L362.7 35.1934C362.879 33.5195 362.843 28.3374 362.647 27.2333C362.558 26.6991 362.416 25.969 362.362 25.6306C362.237 25.0074 361.668 23.1732 361.383 22.5143C361.311 22.3184 361.133 21.891 360.991 21.5704C360.866 21.2677 360.706 21.0006 360.635 21.0006C360.546 21.0006 360.492 20.8403 360.492 20.6444C360.492 20.4486 360.421 20.2883 360.314 20.2883C360.225 20.2883 360.136 20.1814 360.136 20.0568C360.136 19.9321 359.976 19.6472 359.78 19.4335C359.584 19.2198 359.424 18.9705 359.424 18.8637C359.424 18.7746 359.353 18.6856 359.246 18.6856C359.157 18.6856 359.068 18.5965 359.068 18.5075C359.068 18.2582 357.02 16.2281 356.218 15.6583C355.88 15.4268 355.56 15.1774 355.506 15.1062C355.257 14.7679 351.838 13.3432 350.52 13.0227C348.739 12.5775 345.48 12.3994 343.575 12.6487ZM347.19 20.1102C349.754 20.4842 351.143 21.0896 352.55 22.4965C353.992 23.9567 354.58 25.3101 354.883 27.9278C354.954 28.6223 354.918 28.9251 354.758 29.0319C354.491 29.21 337.52 29.2456 337.093 29.0853C336.915 29.0141 336.844 28.836 336.879 28.5867C337.449 25.7909 337.912 24.5444 338.802 23.4225C339.497 22.5499 340.548 21.6061 341.242 21.2499C341.598 21.0718 341.919 20.8759 341.972 20.8225C342.186 20.591 344.394 20.0746 345.676 19.9499C345.801 19.9499 346.495 20.0212 347.19 20.1102Z" fill="white"/>
<path d="M186.724 60.4805C186.599 60.9613 186.421 61.5846 186.332 61.8873C186.225 62.19 186.154 62.5996 186.154 62.8133C186.154 63.0092 186.083 63.2407 185.976 63.2941C185.887 63.3475 185.798 63.7215 185.798 64.1133C185.798 64.4872 185.726 64.8078 185.637 64.8078C185.548 64.8078 185.424 65.1461 185.37 65.5557C185.121 67.4077 185.032 67.8351 184.889 67.8351C184.498 67.8351 184.747 68.9392 185.299 69.5268C185.816 70.0967 185.94 70.1501 186.866 70.1501C187.988 70.1501 188.291 69.9542 188.291 69.2419C188.291 68.7789 188.237 68.7433 187.454 68.6899L186.599 68.6365L186.617 67.7461C186.635 67.2474 186.724 66.5351 186.831 66.1434C187.81 62.4037 188.398 59.8928 188.344 59.7682C188.309 59.6969 187.97 59.6435 187.614 59.6435C186.973 59.6435 186.937 59.6791 186.724 60.4805Z" fill="white"/>
<path d="M91.5944 60.338C91.5944 60.5339 91.5232 60.7476 91.4163 60.801C91.3273 60.8544 91.2382 61.175 91.2382 61.5133C91.2382 61.8517 91.167 62.1722 91.0602 62.2256C90.9711 62.2791 90.8821 62.6352 90.8821 63.0092C90.8821 63.3653 90.8108 63.7393 90.7396 63.8283C90.6506 63.9352 90.4013 64.8078 90.1876 65.7872C89.9739 66.7666 89.6711 67.9776 89.5287 68.494C89.1725 69.7049 89.2438 70.0433 89.867 70.1145C90.5081 70.1857 90.8287 69.9186 90.9355 69.2063C90.9889 68.8858 91.1314 68.2803 91.2382 67.8351C91.3629 67.3899 91.4875 66.6954 91.541 66.268C91.5944 65.8584 91.7012 65.5201 91.7903 65.5201C91.8793 65.5201 91.9505 65.1995 91.9505 64.8078C91.9505 64.416 92.0396 64.0955 92.1286 64.0955C92.2355 64.0955 92.3067 63.8996 92.3067 63.6503C92.3067 63.401 92.3957 63.2051 92.4848 63.2051C92.5916 63.2051 92.6629 63.5256 92.6629 63.9174C92.6629 64.3092 92.7519 64.6297 92.8409 64.6297C92.9478 64.6297 93.019 65.0749 93.019 65.6091C93.019 66.1434 93.1081 66.5886 93.1971 66.5886C93.3039 66.5886 93.3752 66.8557 93.3752 67.194C93.3752 68.5118 94.9066 68.2269 95.6902 66.7666C95.8148 66.5351 95.9929 66.2502 96.082 66.1612C96.171 66.0543 96.634 65.4132 97.097 64.7543C97.649 63.9708 98.023 63.6146 98.0942 63.7393C98.2189 63.9352 98.1477 64.2913 97.649 65.9653C97.3819 66.8379 96.7587 69.6159 96.7587 69.883C96.7587 70.2392 97.8984 70.2392 98.1833 69.883C98.3079 69.7227 98.486 69.2953 98.5572 68.9036C98.7175 68.2091 98.86 67.5858 99.2696 66.0009C99.3764 65.5913 99.5011 64.9502 99.5545 64.5763C99.6079 64.2201 99.7148 63.9174 99.8038 63.9174C99.8928 63.9174 99.9641 63.5968 99.9641 63.2229C99.9641 62.8311 100.053 62.4571 100.142 62.4037C100.249 62.3503 100.32 62.0298 100.32 61.6914C100.32 61.3531 100.409 61.0325 100.498 60.9791C100.605 60.9257 100.676 60.6764 100.676 60.4271C100.676 60.0175 100.623 59.9997 99.6613 59.9997L98.6285 60.0175L97.2929 62.0476C96.5628 63.1695 95.7792 64.3092 95.5655 64.5763C95.334 64.8434 95.156 65.1817 95.156 65.2886C95.156 65.4132 94.9957 65.5201 94.7998 65.5201C94.4971 65.5201 94.4436 65.3954 94.4436 64.7365C94.4436 64.2913 94.3724 63.8818 94.2656 63.8283C94.1765 63.7749 94.0875 63.2763 94.0875 62.7421C94.0875 62.2078 94.0163 61.7804 93.9094 61.7804C93.8204 61.7804 93.7313 61.4243 93.7313 60.9969C93.7313 60.1065 93.5889 59.9997 92.3779 59.9997C91.719 59.9997 91.5944 60.0531 91.5944 60.338Z" fill="white"/>
<path d="M138.465 60.6584C138.358 61.0146 138.304 61.3529 138.358 61.4063C138.411 61.4776 139.034 61.5488 139.729 61.6022C140.886 61.6913 141.011 61.7269 140.958 62.0474C140.762 63.2227 140.708 63.5077 140.584 63.8282C140.495 64.0241 140.334 64.6296 140.228 65.1638C139.996 66.2501 139.782 67.1405 139.48 68.1377C139.373 68.5117 139.284 69.0993 139.266 69.4377C139.23 70.0431 139.248 70.0609 139.943 70.0609C140.601 70.0609 140.655 70.0253 140.797 69.4377C140.869 69.0993 141.029 68.4939 141.118 68.1021C141.225 67.7103 141.349 67.087 141.403 66.7131C141.456 66.3569 141.563 66.0008 141.652 65.9473C141.741 65.8939 141.812 65.5378 141.812 65.146C141.812 64.772 141.901 64.4515 141.99 64.4515C142.097 64.4515 142.169 64.1309 142.169 63.7392C142.169 63.3474 142.258 63.0269 142.347 63.0269C142.453 63.0269 142.525 62.7597 142.525 62.4214C142.525 61.6913 142.703 61.6022 144.181 61.6022C145.427 61.6022 145.623 61.5132 145.784 60.9255C146.015 60.0173 145.944 59.9995 142.186 59.9995H138.66L138.465 60.6584Z" fill="white"/>
<path d="M220.576 60.3914C220.398 60.7832 220.131 61.6914 219.811 63.027C219.722 63.3653 219.579 63.9886 219.472 64.3804C219.365 64.79 219.276 65.2886 219.276 65.5023C219.276 65.6982 219.205 65.8762 219.098 65.8762C219.009 65.8762 218.92 66.1968 218.92 66.5886C218.92 66.9803 218.849 67.3009 218.742 67.3009C218.653 67.3009 218.564 67.6214 218.564 68.0132C218.564 68.405 218.493 68.7255 218.386 68.7255C218.297 68.7255 218.208 69.046 218.208 69.4378C218.208 70.0967 218.244 70.1501 218.707 70.1501C219.526 70.1501 219.633 69.9898 220.149 67.8707C220.576 66.1612 220.683 65.7516 220.879 64.8968C221.217 63.4366 221.235 63.4188 221.485 63.7927C221.627 63.953 221.876 64.879 222.054 65.8406C222.393 67.657 222.571 68.0132 223.194 68.0132C223.604 68.0132 224.797 66.9269 224.797 66.5529C224.797 66.4105 224.957 66.1968 225.153 66.0543C225.349 65.9119 225.509 65.6982 225.509 65.5735C225.509 65.4489 225.598 65.342 225.687 65.342C225.794 65.342 225.865 65.2174 225.865 65.0749C225.865 64.9324 225.954 64.8078 226.043 64.8078C226.15 64.8078 226.221 64.6831 226.221 64.5407C226.221 64.3982 226.31 64.2735 226.399 64.2735C226.506 64.2735 226.578 64.1489 226.578 64.0064C226.578 63.864 226.667 63.7393 226.773 63.7393C226.898 63.7393 226.934 64.0064 226.862 64.4872C226.684 66.0009 226.542 66.5886 226.382 66.5886C226.293 66.5886 226.221 66.9803 226.221 67.4789C226.221 67.9598 226.15 68.3693 226.043 68.3693C225.954 68.3693 225.865 68.7611 225.865 69.2597C225.865 70.0789 225.901 70.1501 226.293 70.1501C226.987 70.1501 227.29 69.9542 227.29 69.5268C227.29 69.2953 227.361 69.0638 227.45 69.0104C227.539 68.957 227.646 68.6008 227.699 68.2447C227.753 67.8707 227.878 67.2296 227.984 66.8022C228.091 66.3927 228.251 65.7516 228.341 65.3776C228.43 65.0215 228.714 63.9174 228.964 62.938C229.213 61.9585 229.427 60.8901 229.427 60.5695C229.427 60.0175 229.409 59.9997 228.625 59.9997C227.753 59.9997 227.254 60.338 226.773 61.2818C226.631 61.5668 226.453 61.7804 226.364 61.7804C226.293 61.7804 226.221 61.9051 226.221 62.0476C226.221 62.19 226.15 62.3147 226.043 62.3147C225.954 62.3147 225.865 62.4393 225.865 62.5818C225.865 62.7243 225.794 62.8489 225.687 62.8489C225.598 62.8489 225.509 62.9736 225.509 63.116C225.509 63.2585 225.438 63.3831 225.331 63.3831C225.242 63.3831 225.153 63.49 225.153 63.6146C225.153 63.7393 225.01 64.0064 224.85 64.2023C224.672 64.3804 224.423 64.7543 224.28 65.0393C223.817 65.9119 223.515 65.5201 223.194 63.6503C222.98 62.3503 222.695 60.8366 222.535 60.3024C222.482 60.0709 222.268 59.9997 221.609 59.9997C220.897 59.9997 220.737 60.0709 220.576 60.3914Z" fill="white"/>
<path d="M269.085 60.3202C268.907 60.4983 268.782 60.8544 268.782 61.1216C268.782 61.3709 268.711 61.638 268.604 61.6914C268.515 61.7448 268.426 62.0832 268.426 62.4215C268.426 62.7599 268.355 63.027 268.248 63.027C268.159 63.027 268.07 63.3831 268.07 63.8283C268.07 64.2735 267.999 64.6297 267.892 64.6297C267.803 64.6297 267.714 64.9502 267.714 65.342C267.714 65.7338 267.642 66.0543 267.536 66.0543C267.446 66.0543 267.357 66.4105 267.357 66.8557C267.357 67.3009 267.286 67.657 267.197 67.657C267.108 67.657 267.001 67.9241 266.948 68.2269C266.894 68.5474 266.788 69.046 266.716 69.331C266.574 69.9008 266.823 70.1501 267.5 70.1501C268.088 70.1501 268.426 69.7405 268.426 69.0104C268.426 68.6721 268.515 68.3337 268.604 68.2803C268.711 68.2269 268.782 67.9241 268.782 67.6392C268.782 66.8735 269.156 66.5886 270.1 66.5886C270.545 66.5886 270.919 66.4995 270.919 66.4105C270.919 66.3036 271.204 66.2324 271.542 66.2324C271.881 66.2324 272.166 66.1434 272.166 66.0543C272.166 65.9475 272.326 65.8762 272.522 65.8762C272.718 65.8762 272.878 65.7872 272.878 65.6982C272.878 65.5913 272.985 65.5201 273.109 65.5201C273.394 65.5201 274.303 64.5941 274.303 64.3092C274.303 64.1845 274.392 64.0955 274.481 64.0955C274.587 64.0955 274.659 63.8996 274.659 63.6681C274.659 63.4188 274.748 63.1695 274.837 63.116C274.944 63.0626 275.015 62.7777 275.015 62.4928C275.015 62.2078 274.944 61.9229 274.837 61.8695C274.748 61.8161 274.659 61.638 274.659 61.4777C274.659 61.1216 273.786 60.3558 273.376 60.3558C273.216 60.3558 273.02 60.2668 272.967 60.1777C272.913 60.0709 272.077 59.9997 271.115 59.9997C269.655 59.9997 269.316 60.0531 269.085 60.3202ZM272.771 61.8517C273.305 62.19 273.376 62.938 272.985 63.7215C272.646 64.3626 272.112 64.7009 270.955 64.9859C270.118 65.1995 269.993 65.1995 269.726 64.9324C269.477 64.6831 269.459 64.5407 269.655 63.8818C269.779 63.4544 269.975 62.7955 270.082 62.4037C270.189 62.0119 270.367 61.6202 270.474 61.5489C270.759 61.3174 272.272 61.5133 272.771 61.8517Z" fill="white"/>
<path d="M106.517 62.653C105.146 63.0982 103.526 64.7009 103.526 65.6091C103.526 65.7516 103.454 65.8762 103.348 65.8762C103.241 65.8762 103.17 66.4283 103.17 67.1584C103.17 68.2447 103.241 68.5118 103.633 69.0282C103.882 69.3488 104.309 69.7405 104.594 69.883C105.378 70.2926 106.909 70.2213 107.817 69.7405C108.743 69.2775 109.758 68.3159 109.758 67.9241C109.758 67.7817 109.847 67.657 109.936 67.657C110.043 67.657 110.115 67.4967 110.115 67.3009C110.115 67.105 110.204 66.9447 110.293 66.9447C110.399 66.9447 110.471 66.3214 110.471 65.431C110.471 64.5407 110.399 63.9174 110.293 63.9174C110.204 63.9174 110.115 63.8283 110.115 63.7393C110.115 63.6325 109.901 63.3297 109.652 63.0804C109.278 62.7064 108.993 62.6174 108.102 62.564C107.497 62.5284 106.785 62.564 106.517 62.653ZM108.245 64.1311C108.494 64.2379 108.69 64.4338 108.69 64.5763C108.69 64.7009 108.779 64.8078 108.868 64.8078C108.975 64.8078 109.046 65.1995 109.046 65.6982C109.046 66.179 108.975 66.5885 108.868 66.5885C108.779 66.5885 108.69 66.7488 108.69 66.9447C108.69 67.1406 108.619 67.3009 108.512 67.3009C108.423 67.3009 108.334 67.4077 108.334 67.5324C108.334 67.7817 107.711 68.3693 107.443 68.3693C107.337 68.3693 107.265 68.4406 107.265 68.5474C107.265 68.8145 105.68 68.7611 105.413 68.494C105.271 68.3693 105.039 68.0132 104.879 67.7104C104.612 67.194 104.63 67.0694 104.897 66.1968C105.467 64.416 106.909 63.5078 108.245 64.1311Z" fill="white"/>
<path d="M117.594 62.8489C116.828 63.2585 116.703 63.2763 116.703 62.938C116.703 62.7421 116.508 62.6708 116.027 62.6708C115.457 62.6708 115.297 62.7599 115.136 63.116C115.012 63.3653 114.923 63.7037 114.923 63.864C114.923 64.0242 114.851 64.3982 114.762 64.7009C114.21 66.4817 113.961 67.5146 113.569 69.5625C113.445 70.1323 113.462 70.1501 114.103 70.1501C114.691 70.1501 114.798 70.0789 115.029 69.5268C115.154 69.1885 115.279 68.7077 115.279 68.4584C115.279 68.2091 115.368 68.0132 115.457 68.0132C115.564 68.0132 115.635 67.6926 115.635 67.3009C115.635 66.9091 115.724 66.5886 115.813 66.5886C115.92 66.5886 115.991 66.4105 115.991 66.179C115.991 65.9475 116.151 65.5913 116.347 65.3776C116.543 65.1639 116.703 64.9146 116.703 64.8256C116.703 64.7365 116.864 64.5941 117.06 64.5407C117.255 64.4872 117.416 64.3448 117.416 64.2557C117.416 64.1667 117.718 64.0955 118.092 64.0955C118.449 64.0955 118.84 64.0242 118.929 63.953C119.197 63.7749 119.553 63.0804 119.553 62.7599C119.553 62.3681 118.377 62.4215 117.594 62.8489Z" fill="white"/>
<path d="M123.898 62.8133C121.779 63.8105 120.354 66.9981 121.244 68.7255C121.832 69.883 122.348 70.1501 123.898 70.1501C125.5 70.1501 126.498 69.6871 126.498 68.9214C126.498 68.5118 125.59 68.1556 125.465 68.5118C125.429 68.6365 125.002 68.7255 124.379 68.7255C123.542 68.7255 123.292 68.6543 122.972 68.3159C122.758 68.0844 122.58 67.6926 122.58 67.4255V66.9447H125.055H127.531L127.637 66.268C127.922 64.6119 127.94 64.3092 127.762 64.2023C127.655 64.1311 127.566 63.953 127.566 63.8105C127.566 63.6681 127.37 63.3475 127.103 63.0982C126.48 62.4571 124.931 62.3325 123.898 62.8133ZM125.661 63.953C126.266 64.2735 126.498 64.5763 126.498 65.0571V65.5201H124.824C123.88 65.5201 123.079 65.4489 123.025 65.342C122.972 65.2352 122.99 65.1639 123.096 65.1639C123.185 65.1639 123.328 65.0037 123.381 64.8078C123.488 64.4516 124.574 63.7571 125.037 63.7393C125.162 63.7393 125.447 63.8283 125.661 63.953Z" fill="white"/>
<path d="M151.072 62.8489C150.307 63.2585 150.182 63.2763 150.182 62.938C150.182 62.7421 149.986 62.6708 149.505 62.6708C148.811 62.6708 148.597 62.938 148.348 64.0955C147.831 66.4105 147.493 67.9063 147.244 68.7789C147.084 69.3488 147.012 69.883 147.066 69.972C147.119 70.0789 147.404 70.1501 147.689 70.1501C148.241 70.1501 148.757 69.6159 148.757 69.0104C148.757 68.8145 148.829 68.4228 148.918 68.12C149.025 67.8173 149.22 67.105 149.399 66.5351C149.773 65.1995 150.752 64.0955 151.571 64.0955C152.283 64.0955 152.675 63.9352 152.675 63.6325C152.675 63.49 152.764 63.3831 152.853 63.3831C152.96 63.3831 153.031 63.1873 153.031 62.938C153.031 62.5462 152.96 62.4928 152.372 62.4928C151.998 62.5106 151.411 62.653 151.072 62.8489Z" fill="white"/>
<path d="M157.946 62.7421C157.234 63.0092 155.863 64.3448 155.382 65.253C155.222 65.5557 155.079 66.4105 155.026 67.2653L154.937 68.7433L155.685 69.4378C156.361 70.0967 156.504 70.1501 157.412 70.1501C158.356 70.1501 159.05 69.9364 159.282 69.5803C159.353 69.4734 159.709 69.5625 160.119 69.7762C161.009 70.2392 160.956 70.2392 161.401 69.7583C161.757 69.3666 161.882 68.7255 161.597 68.7255C161.134 68.7255 161.276 67.6926 162.185 64.3982C162.648 62.7243 162.63 62.653 161.543 62.653C161.027 62.6708 160.154 62.6352 159.62 62.5818C159.015 62.5284 158.374 62.5818 157.946 62.7421ZM160.119 64.0955C160.671 64.4338 160.885 64.8078 160.511 64.8078C160.422 64.8078 160.332 65.1283 160.332 65.5201C160.332 65.9119 160.261 66.2324 160.154 66.2324C160.065 66.2324 159.976 66.5529 159.976 66.9447C159.976 67.3365 159.905 67.657 159.798 67.657C159.709 67.657 159.62 67.7639 159.62 67.9063C159.62 68.0488 159.46 68.2269 159.264 68.2803C159.068 68.3337 158.908 68.4762 158.908 68.5652C158.908 68.6543 158.534 68.7255 158.089 68.7255C157.181 68.7255 156.682 68.3515 156.468 67.5146C156.379 67.1406 156.7 65.7338 156.949 65.5201C157.002 65.4667 157.145 65.2174 157.27 64.968C157.501 64.5228 158.73 63.7749 159.264 63.7571C159.406 63.7393 159.798 63.8996 160.119 64.0955Z" fill="white"/>
<path d="M166.423 62.8133C165.906 63.0626 165.835 63.1694 165.942 63.5612C166.013 63.8105 166.102 64.3625 166.138 64.8077C166.191 65.2529 166.298 65.7694 166.387 65.9652C166.476 66.1611 166.583 66.7132 166.637 67.2118C166.85 69.2419 166.975 69.883 167.171 70.0076C167.563 70.2747 168.346 70.1501 168.667 69.7761C168.827 69.5624 169.058 69.3131 169.147 69.1885C169.254 69.0816 169.432 68.7789 169.575 68.4939C169.717 68.2268 169.895 68.0131 169.984 68.0131C170.056 68.0131 170.127 67.8885 170.127 67.746C170.127 67.5857 170.305 67.2652 170.536 67.0337C170.75 66.8022 171.124 66.2858 171.373 65.8762C171.623 65.4488 172.086 64.7187 172.406 64.2201C173.083 63.1338 173.119 62.8845 172.584 62.6886C172.015 62.4749 171.854 62.5818 171.356 63.4009C171.124 63.7927 170.786 64.2735 170.626 64.4872C170.447 64.6831 170.269 65.0036 170.216 65.1817C170.145 65.3776 170.038 65.52 169.967 65.52C169.878 65.52 169.717 65.7515 169.593 66.0543C169.468 66.3392 169.308 66.5885 169.219 66.5885C169.13 66.5885 169.058 66.7132 169.058 66.8734C169.058 67.0159 168.934 67.2652 168.791 67.4077C168.328 67.8707 167.99 67.3186 167.99 66.1611C167.99 65.6091 167.919 65.1639 167.812 65.1639C167.705 65.1639 167.634 64.6831 167.634 64.0776C167.634 63.3831 167.545 62.9201 167.384 62.742C167.082 62.4393 167.153 62.4393 166.423 62.8133Z" fill="white"/>
<path d="M177.944 62.742C177.214 62.9913 175.647 64.4694 175.647 64.8967C175.647 65.0392 175.576 65.1639 175.469 65.1639C175.38 65.1639 175.291 65.3597 175.291 65.5912C175.291 65.8406 175.22 66.0899 175.113 66.1433C175.024 66.1967 174.935 66.8022 174.935 67.4967C174.935 68.1912 175.006 68.7254 175.113 68.7254C175.22 68.7254 175.291 68.8501 175.291 69.0103C175.291 69.3665 175.718 69.7939 176.075 69.7939C176.235 69.7939 176.36 69.8651 176.36 69.972C176.36 70.2213 178.906 70.1857 179.512 69.9363C180.135 69.6514 180.277 69.4733 180.277 68.8501C180.277 68.4939 180.188 68.3693 179.939 68.3693C179.743 68.3693 179.529 68.4405 179.476 68.5473C179.423 68.6364 178.888 68.7254 178.301 68.7254C177.41 68.7254 177.161 68.6542 176.805 68.2802C176.288 67.7816 176.253 67.5501 176.609 67.1939C176.805 66.9981 177.41 66.9446 179.102 66.9446H181.328L181.506 66.2679C182.272 63.5255 180.544 61.7982 177.944 62.742ZM179.512 63.9529C180.135 64.2378 180.277 64.4159 180.277 65.0214V65.52H178.675C177.339 65.52 177.072 65.4666 177.072 65.2529C177.072 64.8611 177.784 64.1844 178.425 63.9529C178.71 63.8461 178.96 63.757 178.977 63.757C178.995 63.7392 179.244 63.8461 179.512 63.9529Z" fill="white"/>
<path d="M235.571 62.653C234.449 63.0092 232.81 64.3448 232.81 64.8968C232.81 65.0393 232.757 65.1639 232.668 65.1639C232.223 65.1639 231.92 67.8885 232.294 68.583C232.846 69.6159 233.736 70.1501 234.876 70.1501C236.639 70.1501 238.17 69.1529 239.096 67.3899C239.666 66.3214 239.648 64.3982 239.061 63.579C238.829 63.2585 238.366 62.8667 238.046 62.7421C237.44 62.4928 236.194 62.4393 235.571 62.653ZM237.405 64.2379C238.491 65.1817 237.832 67.6036 236.229 68.494C235.784 68.7611 234.591 68.7967 234.591 68.5652C234.591 68.4762 234.431 68.3337 234.235 68.2803C234.003 68.2091 233.879 68.0132 233.879 67.7461C233.879 67.5146 233.772 67.2831 233.665 67.2296C233.487 67.1406 233.487 67.105 233.665 67.0159C233.772 66.9625 233.879 66.6064 233.879 66.2146C233.879 65.8406 233.968 65.5201 234.057 65.5201C234.164 65.5201 234.235 65.3954 234.235 65.253C234.235 65.1105 234.324 64.9859 234.413 64.9859C234.52 64.9859 234.591 64.879 234.591 64.7365C234.591 64.4338 235.731 63.9352 236.479 63.9352C236.781 63.9174 237.191 64.0598 237.405 64.2379Z" fill="white"/>
<path d="M246.879 62.6174C246.736 62.6708 246.398 62.8667 246.131 63.0626C245.668 63.3831 245.65 63.3831 245.543 63.027C245.472 62.7955 245.276 62.6708 245.009 62.6708C244.296 62.6708 244.029 62.8667 244.029 63.3831C244.029 63.6681 243.958 63.953 243.851 64.0064C243.762 64.0598 243.673 64.3804 243.673 64.7187C243.673 65.0571 243.602 65.3776 243.495 65.431C243.406 65.4845 243.317 65.8584 243.317 66.2502C243.317 66.6242 243.246 66.9447 243.139 66.9447C243.05 66.9447 242.961 67.2653 242.961 67.657C242.961 68.0488 242.89 68.3693 242.783 68.3693C242.694 68.3693 242.605 68.7611 242.605 69.2597C242.605 70.1145 242.622 70.1501 243.103 70.1501C243.709 70.1501 244.029 69.8652 244.029 69.331C244.029 69.0995 244.118 68.868 244.207 68.8145C244.314 68.7611 244.385 68.5296 244.385 68.3337C244.385 68.12 244.457 67.7104 244.563 67.4077C244.653 67.105 244.777 66.6598 244.813 66.4105C244.955 65.7516 245.81 64.505 246.291 64.2913C246.522 64.1845 246.985 64.0955 247.306 64.0955C247.965 64.0955 248.481 63.5434 248.481 62.8489C248.481 62.5462 248.374 62.4928 247.822 62.5106C247.448 62.5106 247.021 62.564 246.879 62.6174Z" fill="white"/>
<path d="M252.844 62.8132C251.972 63.2228 250.974 64.131 250.974 64.5228C250.974 64.683 250.903 64.8077 250.796 64.8077C250.707 64.8077 250.618 64.968 250.618 65.1638C250.618 65.3597 250.565 65.52 250.476 65.52C250.28 65.52 249.906 66.8556 249.906 67.5501C249.906 68.2268 250.226 69.0816 250.476 69.0816C250.547 69.0816 250.618 69.1884 250.618 69.3309C250.618 69.4733 250.778 69.6514 250.974 69.7048C251.17 69.7583 251.33 69.9007 251.33 69.9898C251.33 70.2925 254.037 70.1678 254.696 69.8295C255.034 69.6692 255.284 69.4733 255.266 69.3843C255.266 69.3131 255.248 69.0638 255.248 68.8144C255.248 68.4939 255.159 68.3692 254.91 68.3692C254.714 68.3692 254.5 68.4405 254.447 68.5473C254.269 68.8322 252.239 68.761 251.936 68.4761C251.793 68.3336 251.687 67.9241 251.687 67.5857V66.9446H254.055H256.406L256.637 66.2323C257.065 64.8611 256.833 63.7392 255.996 62.9735C255.444 62.4749 253.752 62.3858 252.844 62.8132ZM254.607 63.9885C255.195 64.2378 255.569 64.9501 255.337 65.3419C255.159 65.6268 252.043 65.5734 252.043 65.2885C252.061 64.9145 252.506 64.4515 253.218 64.0954C254.055 63.6858 253.895 63.6858 254.607 63.9885Z" fill="white"/>
<path d="M279.716 62.6886C279.057 62.8667 277.508 64.2023 277.508 64.5585C277.508 64.7009 277.437 64.8078 277.33 64.8078C277.241 64.8078 277.152 64.968 277.152 65.1639C277.152 65.3598 277.081 65.5201 276.974 65.5201C276.885 65.5201 276.796 65.8406 276.796 66.2324C276.796 66.6242 276.724 66.9447 276.618 66.9447C276.172 66.9447 276.635 68.7433 277.259 69.3666C277.864 69.9898 278.309 70.1501 279.485 70.1501C281.354 70.1501 282.263 69.5803 281.889 68.6365C281.782 68.3337 281.141 68.2803 280.98 68.5474C280.927 68.6365 280.428 68.7255 279.912 68.7255C278.719 68.7255 278.22 68.3693 278.22 67.5324V66.9447H280.589C282.975 66.9447 282.975 66.9447 283.171 66.4995C283.438 65.9297 283.456 63.7393 283.206 63.7393C283.117 63.7393 283.028 63.6503 283.028 63.5434C283.028 62.7421 281.194 62.2613 279.716 62.6886ZM281.39 64.0955C281.835 64.3626 281.96 64.5763 281.96 64.9859V65.5201H280.268C279.324 65.5201 278.576 65.4489 278.576 65.3598C278.576 65.0037 279.431 64.2023 280.019 63.9886C280.82 63.7037 280.713 63.6859 281.39 64.0955Z" fill="white"/>
<path d="M289.439 62.7596C286.483 64.0952 285.415 68.6896 287.783 69.9362C288.389 70.2745 289.724 70.1855 290.525 69.7937C291.167 69.4554 291.256 69.4554 291.505 69.7047C291.932 70.1143 292.591 70.2211 292.912 69.9184C293.214 69.6156 293.286 68.7253 293.001 68.7253C292.912 68.7253 292.823 68.4047 292.823 68.0129C292.823 67.6212 292.912 67.3006 293.001 67.3006C293.108 67.3006 293.179 66.9801 293.179 66.5883C293.179 66.1965 293.268 65.876 293.357 65.876C293.464 65.876 293.535 65.5555 293.535 65.1815C293.535 64.7897 293.624 64.4158 293.713 64.3623C293.82 64.3089 293.891 63.8993 293.891 63.4541C293.891 62.6884 293.873 62.6706 293.303 62.6706C292.965 62.6706 292.11 62.635 291.38 62.5816C290.401 62.5103 289.902 62.5459 289.439 62.7596ZM291.719 64.0418C292.039 64.113 292.11 64.2555 292.11 64.8253C292.11 65.2171 292.039 65.5198 291.95 65.5198C291.861 65.5198 291.754 65.787 291.701 66.0897C291.362 67.9951 291.184 68.3691 290.614 68.3691C290.454 68.3691 290.33 68.4403 290.33 68.5472C290.33 68.8143 288.923 68.7609 288.656 68.4938C287.926 67.7814 287.872 66.6595 288.495 65.4486C289.012 64.4336 290.33 63.6144 291.042 63.8637C291.184 63.9171 291.487 64.0062 291.719 64.0418Z" fill="white"/>
<path d="M300.818 62.6528C299.768 62.9733 298.343 64.0774 298.343 64.576C298.343 64.7007 298.272 64.8075 298.183 64.8075C298.005 64.8075 297.738 65.4664 297.453 66.5349C297.114 67.8883 297.702 69.3485 298.842 69.954C299.305 70.2033 301.548 70.2211 301.548 69.9718C301.548 69.865 301.709 69.7937 301.905 69.7937C302.207 69.7937 302.261 69.6691 302.261 69.0814C302.261 68.4938 302.207 68.3691 301.905 68.3691C301.709 68.3691 301.548 68.4403 301.548 68.5472C301.548 68.6362 301.192 68.7253 300.747 68.7253C299.554 68.7253 299.055 68.1732 299.055 66.8554C299.055 66.3212 299.144 65.876 299.233 65.876C299.34 65.876 299.412 65.7513 299.412 65.5911C299.412 65.4308 299.696 65.0212 300.07 64.6473C300.694 64.024 300.747 64.0062 301.958 64.024C303.311 64.0596 303.685 63.8637 303.685 63.2048C303.685 62.5816 302.1 62.2788 300.818 62.6528Z" fill="white"/>
<path d="M309.259 62.6174C309.028 62.6531 308.85 62.7599 308.85 62.8489C308.85 62.938 308.689 63.0626 308.476 63.1161C307.959 63.2941 307.194 64.1311 306.748 65.0215C305.644 67.2653 305.894 69.0995 307.425 69.883C308.048 70.2036 309.669 70.2214 310.63 69.9364C311.289 69.7228 311.343 69.6693 311.343 69.0461C311.343 68.494 311.272 68.3694 310.987 68.3694C310.791 68.3694 310.63 68.4406 310.63 68.5474C310.63 68.6543 310.114 68.7255 309.455 68.7255C308.102 68.7255 307.781 68.5118 307.781 67.5858V66.9447H310.025C311.645 66.9447 312.322 66.8735 312.5 66.7132C312.625 66.5708 312.785 66.0365 312.856 65.5023C313.141 63.2407 311.735 62.1366 309.259 62.6174ZM310.702 63.9886C311.289 64.238 311.663 64.9503 311.432 65.342C311.254 65.627 308.137 65.5735 308.137 65.2886C308.137 64.9503 308.885 64.2023 309.473 63.9708C309.776 63.864 310.025 63.7749 310.061 63.7571C310.078 63.7393 310.381 63.8462 310.702 63.9886Z" fill="white"/>
</svg>
