<svg width="13" height="13" viewBox="0 0 13 13" fill="none" xmlns="http://www.w3.org/2000/svg">
<mask id="path-1-inside-1_35_59" fill="white">
<path d="M2.87632 1.28396L2.94853 2.25616L10.4959 1.88725L0.111437 12.2717L0.808424 12.9687L11.1929 2.58424L10.824 10.1316L11.7962 10.2038L12.2361 1.2047L11.8754 0.84408L2.87632 1.28396Z"/>
</mask>
<path d="M2.87632 1.28396L2.94853 2.25616L10.4959 1.88725L0.111437 12.2717L0.808424 12.9687L11.1929 2.58424L10.824 10.1316L11.7962 10.2038L12.2361 1.2047L11.8754 0.84408L2.87632 1.28396Z" fill="#005417"/>
<path d="M2.87632 1.28396L2.53457 -5.70769L-4.63625 -5.35718L-4.10445 1.80247L2.87632 1.28396ZM2.94853 2.25616L-4.03224 2.77467L-3.52668 9.58102L3.29028 9.24781L2.94853 2.25616ZM10.4959 1.88725L15.4456 6.837L28.2727 -5.99001L10.1542 -5.1044L10.4959 1.88725ZM0.111437 12.2717L-4.83831 7.32197L-9.78806 12.2717L-4.83831 17.2215L0.111437 12.2717ZM0.808424 12.9687L-4.14132 17.9184L0.808424 22.8682L5.75817 17.9184L0.808424 12.9687ZM11.1929 2.58424L18.1845 2.92598L19.0702 -15.1925L6.24314 -2.36551L11.1929 2.58424ZM10.824 10.1316L3.83233 9.78986L3.49912 16.6068L10.3055 17.1124L10.824 10.1316ZM11.7962 10.2038L11.2777 17.1846L18.4373 17.7164L18.7878 10.5456L11.7962 10.2038ZM12.2361 1.2047L19.2277 1.54645L19.3791 -1.5517L17.1858 -3.74505L12.2361 1.2047ZM11.8754 0.84408L16.8252 -4.10567L14.6318 -6.29901L11.5337 -6.14757L11.8754 0.84408ZM-4.10445 1.80247L-4.03224 2.77467L9.9293 1.73765L9.85709 0.765448L-4.10445 1.80247ZM3.29028 9.24781L10.8376 8.87891L10.1542 -5.1044L2.60679 -4.73549L3.29028 9.24781ZM5.54615 -3.06249L-4.83831 7.32197L5.06118 17.2215L15.4456 6.837L5.54615 -3.06249ZM-4.83831 17.2215L-4.14132 17.9184L5.75817 8.01896L5.06118 7.32197L-4.83831 17.2215ZM5.75817 17.9184L16.1426 7.53399L6.24314 -2.36551L-4.14132 8.01896L5.75817 17.9184ZM4.20123 2.2425L3.83233 9.78986L17.8156 10.4734L18.1845 2.92598L4.20123 2.2425ZM10.3055 17.1124L11.2777 17.1846L12.3147 3.22305L11.3425 3.15084L10.3055 17.1124ZM18.7878 10.5456L19.2277 1.54645L5.24441 0.862949L4.80453 9.86207L18.7878 10.5456ZM17.1858 -3.74505L16.8252 -4.10567L6.92569 5.79383L7.28631 6.15445L17.1858 -3.74505ZM11.5337 -6.14757L2.53457 -5.70769L3.21807 8.27561L12.2172 7.83573L11.5337 -6.14757Z" fill="#005417" mask="url(#path-1-inside-1_35_59)"/>
</svg>
