<svg width="16" height="15" viewBox="0 0 16 15" fill="none" xmlns="http://www.w3.org/2000/svg">
<g clip-path="url(#clip0_28_835)">
<path d="M15.0624 2.63625C14.9439 2.25469 14.5996 1.9725 14.1772 1.9725H13.2366V2.91V3.4275C13.2366 4.20281 12.6035 4.83375 11.8256 4.83375C11.0477 4.83375 10.4146 4.20281 10.4146 3.4275V2.91V1.9725H4.76596V2.91V3.4275C4.76596 4.20281 4.1329 4.83375 3.35498 4.83375C2.57705 4.83375 1.94399 4.20281 1.94399 3.4275V2.91V1.9725H1.00804C0.585685 1.9725 0.241404 2.25469 0.122882 2.63625H0.0673828V2.91V5.83031V14.0625C0.0673828 14.58 0.488797 15 1.00804 15H14.1772C14.6965 15 15.1179 14.58 15.1179 14.0625V5.83031V2.91V2.63625H15.0624ZM14.1772 14.0625H1.00804V6.5625H14.1772V14.0625ZM3.35498 3.89625C3.6146 3.89625 3.82531 3.68625 3.82531 3.4275V0.46875C3.82531 0.21 3.6146 0 3.35498 0C3.09536 0 2.88465 0.21 2.88465 0.46875V3.4275C2.88465 3.68625 3.09536 3.89625 3.35498 3.89625ZM11.8256 3.89625C12.0852 3.89625 12.2959 3.68625 12.2959 3.4275V0.46875C12.2959 0.21 12.0852 0 11.8256 0C11.566 0 11.3553 0.21 11.3553 0.46875V3.4275C11.3553 3.68625 11.566 3.89625 11.8256 3.89625Z" fill="#FF681A"/>
</g>
<defs>
<clipPath id="clip0_28_835">
<rect width="15.0505" height="15" fill="white" transform="translate(0.0673828)"/>
</clipPath>
</defs>
</svg>
