<svg width="158" height="11" viewBox="0 0 158 11" fill="none" xmlns="http://www.w3.org/2000/svg">
<line x1="0.154297" y1="6.28151" x2="153.855" y2="6.28151" stroke="url(#paint0_linear_105_240)" stroke-width="0.718229"/>
<path d="M157.278 5.89001C157.277 5.81458 157.234 5.74589 157.166 5.71304L150.791 2.65883C150.716 2.62278 150.626 2.63813 150.568 2.69708C150.509 2.75597 150.494 2.84556 150.53 2.92065L151.867 5.69145L153.745 5.6922C153.852 5.69387 153.938 5.78122 153.938 5.8884C153.938 5.99557 153.853 6.08285 153.746 6.08442L151.868 6.08373L150.544 8.85349C150.508 8.92839 150.524 9.01784 150.582 9.07679L150.583 9.07704C150.641 9.13594 150.731 9.15132 150.806 9.11549L157.167 6.06697C157.234 6.03424 157.278 5.96553 157.278 5.89001Z" fill="#FF681A"/>
<defs>
<linearGradient id="paint0_linear_105_240" x1="3.67033" y1="6.64062" x2="148.785" y2="6.64062" gradientUnits="userSpaceOnUse">
<stop stop-color="#FF681A"/>
<stop offset="1" stop-color="#FF681A" stop-opacity="0"/>
</linearGradient>
</defs>
</svg>
