<svg width="34" height="34" viewBox="0 0 34 34" fill="none" xmlns="http://www.w3.org/2000/svg">
<circle cx="16.8884" cy="16.9946" r="16.5193" fill="#094174"/>
<g clip-path="url(#clip0_105_279)">
<path d="M23.907 16.5974C23.9069 16.5972 23.9067 16.597 23.9065 16.5968L20.9746 13.679C20.7549 13.4604 20.3997 13.4613 20.181 13.6809C19.9624 13.9006 19.9633 14.2558 20.1829 14.4745L22.1514 16.4334H10.2681C9.95824 16.4334 9.70703 16.6846 9.70703 16.9945C9.70703 17.3045 9.95824 17.5557 10.2681 17.5557H22.1514L20.1829 19.5146C19.9633 19.7332 19.9624 20.0885 20.1811 20.3082C20.3997 20.5279 20.755 20.5286 20.9746 20.3101L23.9066 17.3923C23.9067 17.3921 23.9069 17.3919 23.9071 17.3917C24.1268 17.1724 24.1261 16.816 23.907 16.5974Z" fill="white"/>
</g>
<defs>
<clipPath id="clip0_105_279">
<rect width="14.3646" height="14.3646" fill="white" transform="translate(9.70703 9.81226)"/>
</clipPath>
</defs>
</svg>
