<svg width="7" height="8" viewBox="0 0 7 8" fill="none" xmlns="http://www.w3.org/2000/svg">
<path d="M6.88699 4.20055C6.88657 4.12512 6.84331 4.05643 6.7754 4.02359L0.400148 0.969374C0.325082 0.933328 0.235636 0.948678 0.177115 1.00762C0.118544 1.06652 0.103543 1.15611 0.139713 1.2312L1.47641 4.002L3.35426 4.00275C3.46124 4.00442 3.54727 4.09177 3.54752 4.19895C3.54777 4.30612 3.46214 4.39339 3.35518 4.39497L1.47738 4.39428L0.1534 7.16403C0.117629 7.23894 0.132995 7.32839 0.191638 7.38734L0.191892 7.38759C0.250686 7.44649 0.340051 7.46187 0.4149 7.42604L6.77602 4.37752C6.84383 4.34479 6.88692 4.27608 6.88699 4.20055Z" fill="white"/>
</svg>
