<svg width="18" height="18" viewBox="0 0 18 18" fill="none" xmlns="http://www.w3.org/2000/svg">
<path d="M17.9359 3.64037C17.8001 3.20145 17.4055 2.87684 16.9214 2.87684H15.8433V3.95527V4.55057C15.8433 5.44243 15.1177 6.16822 14.2261 6.16822C13.3345 6.16822 12.6089 5.44243 12.6089 4.55057V3.95527V2.87684H6.13475V3.95527V4.55057C6.13475 5.44243 5.40917 6.16822 4.51756 6.16822C3.62595 6.16822 2.90037 5.44243 2.90037 4.55057V3.95527V2.87684H1.82764C1.34356 2.87684 0.948965 3.20145 0.813121 3.64037H0.749512V3.95527V7.31459V16.7843C0.749512 17.3796 1.23251 17.8627 1.82764 17.8627H16.9214C17.5165 17.8627 17.9995 17.3796 17.9995 16.7843V7.31459V3.95527V3.64037H17.9359ZM16.9214 16.7843H1.82764V8.15685H16.9214V16.7843ZM4.51756 5.08978C4.81512 5.08978 5.05662 4.84822 5.05662 4.55057V1.14703C5.05662 0.849388 4.81512 0.607819 4.51756 0.607819C4.22 0.607819 3.9785 0.849388 3.9785 1.14703V4.55057C3.9785 4.84822 4.22 5.08978 4.51756 5.08978ZM14.2261 5.08978C14.5236 5.08978 14.7651 4.84822 14.7651 4.55057V1.14703C14.7651 0.849388 14.5236 0.607819 14.2261 0.607819C13.9285 0.607819 13.687 0.849388 13.687 1.14703V4.55057C13.687 4.84822 13.9285 5.08978 14.2261 5.08978Z" fill="#B3B3B3"/>
</svg>
