<svg width="17" height="17" viewBox="0 0 17 17" fill="none" xmlns="http://www.w3.org/2000/svg">
<g clip-path="url(#clip0_278_417)">
<path d="M7.28333 9.4257C7.28333 8.52076 6.54711 7.78455 5.64217 7.78455C4.73723 7.78455 4.00098 8.52076 4.00098 9.4257H4.99707C4.99707 9.07001 5.28647 8.78064 5.64217 8.78064C5.99786 8.78064 6.28724 9.07001 6.28724 9.4257H7.28333Z" fill="#666666"/>
<path d="M11.356 7.78455C10.4511 7.78455 9.71484 8.52076 9.71484 9.4257H10.7109C10.7109 9.07001 11.0003 8.78064 11.356 8.78064C11.7117 8.78064 12.0011 9.07001 12.0011 9.4257H12.9972C12.9972 8.52076 12.261 7.78455 11.356 7.78455Z" fill="#666666"/>
<path d="M8.49855 12.3407C7.86881 12.3407 7.27833 12.003 6.95748 11.4593L6.09961 11.9655C6.59873 12.8113 7.51795 13.3368 8.49852 13.3368C9.47909 13.3368 10.3983 12.8113 10.8974 11.9655L10.0396 11.4593C9.71877 12.003 9.12827 12.3407 8.49855 12.3407Z" fill="#666666"/>
<path d="M16.3519 7.66145C16.0347 7.3446 15.6363 7.13509 15.2039 7.05304C14.2701 4.16744 11.5613 2.18067 8.5 2.18067H8.16608C7.36418 2.18067 6.71179 1.52824 6.71179 0.726379H5.7157C5.7157 1.27052 5.8942 1.77361 6.1954 2.18067H5.87982C5.07792 2.18067 4.42553 1.52824 4.42553 0.726379H3.42944C3.42944 1.80865 4.13495 2.72864 5.10997 3.05218C3.56789 3.89997 2.3592 5.31294 1.79611 7.05304C1.36371 7.13509 0.965249 7.34467 0.647755 7.66182C0.23004 8.07997 0 8.63561 0 9.22638C0 9.8099 0.225102 10.3604 0.633879 10.7766C0.953355 11.1018 1.35682 11.3165 1.79611 11.3998C2.72984 14.2853 5.43865 16.2721 8.5 16.2721C11.5613 16.2721 14.2701 14.2853 15.2039 11.3998C15.6432 11.3165 16.0466 11.1018 16.3661 10.7766C16.7749 10.3604 17 9.8099 17 9.22638C17 8.63561 16.77 8.07997 16.3519 7.66145ZM14.8115 10.4423L14.4377 10.4494L14.3401 10.8103C13.6291 13.4396 11.2275 15.276 8.49997 15.276C5.77241 15.276 3.37091 13.4396 2.65989 10.8103L2.56229 10.4494L2.18852 10.4423C1.53099 10.4299 0.996057 9.88445 0.996057 9.22638C0.996057 8.90146 1.12262 8.59583 1.35202 8.36616C1.57574 8.14267 1.87281 8.01631 2.18842 8.01039L2.56226 8.00337L2.65986 7.64244C3.37091 5.01315 5.77244 3.17679 8.5 3.17679C9.40024 3.17679 10.1326 3.90918 10.1326 4.80942C10.1326 5.70966 9.40024 6.44208 8.5 6.44208C7.59976 6.44208 6.86738 5.70969 6.86738 4.80945H5.87128C5.87128 6.25894 7.05051 7.43817 8.5 7.43817C9.94948 7.43817 11.1287 6.25894 11.1287 4.80945C11.1287 4.39694 11.033 4.00651 10.8629 3.65871C12.5335 4.36933 13.8456 5.81404 14.3401 7.64247L14.4377 8.00341L14.8115 8.01043C15.1272 8.01634 15.4242 8.1427 15.6476 8.36579C15.8774 8.59586 16.0039 8.90149 16.0039 9.22641C16.0039 9.88448 15.469 10.4299 14.8115 10.4423Z" fill="#666666"/>
</g>
<defs>
<clipPath id="clip0_278_417">
<rect width="17" height="17" fill="white"/>
</clipPath>
</defs>
</svg>
