<svg width="18" height="14" viewBox="0 0 18 14" fill="none" xmlns="http://www.w3.org/2000/svg">
<path d="M4.37059 6.0421C4.22599 6.008 4.09236 5.93516 3.9857 5.82853L3.61659 5.45963C3.30166 5.14474 3.30166 4.63434 3.61659 4.31945L3.9857 3.95034C4.13691 3.79938 4.34211 3.71409 4.55565 3.71409H7.05217C7.26602 3.71409 7.4712 3.79938 7.6224 3.95034L7.9913 4.31945C8.30619 4.63434 8.30619 5.14474 7.9913 5.45963L7.6224 5.82853C7.51577 5.93516 7.38211 6.00797 7.23751 6.0421H10.7635C10.6192 6.008 10.4855 5.93516 10.3786 5.82853L10.0097 5.45963C9.69479 5.14474 9.69479 4.63434 10.0097 4.31945L10.3786 3.95034C10.53 3.79938 10.735 3.71409 10.9488 3.71409H13.4453C13.6592 3.71409 13.8641 3.79938 14.0156 3.95034L14.3842 4.31945C14.6991 4.63434 14.6991 5.14474 14.3842 5.45963L14.0155 5.82853C13.9086 5.93516 13.775 6.00797 13.6306 6.0421H16.607H16.665V2.1913C16.665 1.46402 16.0758 0.874451 15.3484 0.874451H2.65282C1.92554 0.874451 1.33594 1.46402 1.33594 2.1913V6.0421H1.39398H4.37059Z" fill="black"/>
<path d="M17.6518 6.50674H16.6065H1.39349H0.812848H0V13.1262H1.39349V11.8488H16.6065V13.1262H18V11.8488V6.50674H17.6518Z" fill="black"/>
</svg>
