<svg width="16" height="16" viewBox="0 0 16 16" fill="none" xmlns="http://www.w3.org/2000/svg">
<g clip-path="url(#clip0_278_378)">
<path d="M7.96977 8.13971L6.43514 7.67433L6.26821 7.34046C6.21618 7.23636 6.09721 7.18821 5.98958 7.22155V7.16346C6.62508 6.70436 7.05636 5.97924 7.11752 5.15246C7.41533 5.06924 7.64967 4.82709 7.69874 4.52521C7.7297 4.33481 7.68927 4.14734 7.5967 3.99153C7.89295 3.83643 8.0957 3.52612 8.0957 3.16922C8.0957 2.84553 7.92417 2.55059 7.65745 2.38444C7.67217 2.32394 7.6797 2.26159 7.6797 2.19853C7.6797 1.76344 7.32574 1.40947 6.89064 1.40947C6.78627 1.40947 6.68664 1.43003 6.59539 1.467C6.14374 1.05669 5.56543 0.832001 4.94924 0.832001H3.83987C3.2264 0.832001 2.64568 1.05706 2.19365 1.46697C2.1024 1.43 2.00281 1.40947 1.89847 1.40947C1.46337 1.40947 1.1094 1.76344 1.1094 2.19853C1.1094 2.26162 1.11694 2.32397 1.13165 2.38444C0.864905 2.55059 0.693405 2.84553 0.693405 3.16922C0.693405 3.52593 0.895905 3.83606 1.19184 3.99125C1.0995 4.14653 1.05928 4.33393 1.09037 4.52521C1.13944 4.82709 1.37378 5.06924 1.67159 5.15246C1.73262 5.97812 2.16284 6.70233 2.7969 7.16152V7.22068C2.68996 7.18893 2.5725 7.23721 2.52087 7.34043L2.35406 7.67402L0.759999 8.15224C0.305406 8.28864 0 8.69914 0 9.17374V14.9336C0 15.063 0.104937 15.1679 0.234375 15.1679C0.363812 15.1679 0.468749 15.063 0.468749 14.9336V9.17374C0.468749 9.15655 0.46953 9.13955 0.470937 9.12267L1.40778 10.0595C1.57306 10.2248 1.66406 10.4445 1.66406 10.6782V14.9335C1.66406 15.063 1.769 15.1679 1.89843 15.1679C2.02787 15.1679 2.13281 15.063 2.13281 14.9335V10.6782C2.13281 10.3193 1.99303 9.98186 1.73922 9.72805L0.707092 8.69592C0.762342 8.65467 0.825248 8.62208 0.894686 8.60127L1.95065 8.28449C2.03334 8.51689 2.6474 10.113 4.26452 11.1911C4.3039 11.2173 4.34921 11.2305 4.39452 11.2305C4.43984 11.2305 4.48515 11.2173 4.52452 11.1911C6.1958 10.0769 6.79199 8.42986 6.84105 8.28727L7.83377 8.5883C7.85645 8.59517 7.87933 8.59845 7.90186 8.59845C8.00239 8.59845 8.09536 8.53324 8.12605 8.43202C8.16361 8.30814 8.09364 8.1773 7.96977 8.13971ZM6.05924 7.97071L5.26721 8.96077C5.25633 8.97436 5.24327 8.97714 5.23296 8.97689C5.22337 8.97674 5.20971 8.97364 5.19927 8.9597L4.75055 8.36139L5.95377 7.75977L6.05924 7.97071ZM4.39452 8.0153L3.26562 7.45086V7.43514C3.60987 7.59208 3.99215 7.67968 4.39452 7.67968C4.7959 7.67968 5.17724 7.59246 5.52083 7.43624V7.45214L4.39452 8.0153ZM6.89061 1.87825C7.06724 1.87825 7.21092 2.02194 7.21092 2.19856C7.21092 2.26112 7.19249 2.32203 7.15764 2.37469C7.11624 2.43722 7.10727 2.51578 7.13352 2.58603C7.15977 2.65628 7.21802 2.70972 7.29024 2.72984C7.48849 2.78503 7.62695 2.96572 7.62695 3.16925C7.62695 3.42234 7.42105 3.62825 7.16796 3.62825C6.91486 3.62825 6.70896 3.42234 6.70896 3.16925C6.70896 3.05584 6.75255 2.946 6.83171 2.86C6.88246 2.80487 6.90377 2.72881 6.88908 2.65534C6.87439 2.58187 6.82546 2.51984 6.75746 2.48847C6.64377 2.436 6.5703 2.32222 6.5703 2.19856C6.5703 2.02194 6.71399 1.87825 6.89061 1.87825ZM1.16209 3.16925C1.16212 2.96575 1.30056 2.78506 1.49881 2.72987C1.57106 2.70975 1.62931 2.65631 1.65553 2.58606C1.68175 2.51581 1.67278 2.43725 1.6314 2.37472C1.59656 2.32206 1.57812 2.26115 1.57812 2.19859C1.57812 2.02197 1.72181 1.87828 1.89843 1.87828C2.07506 1.87828 2.21875 2.02194 2.21875 2.19856C2.21875 2.32222 2.14528 2.43603 2.03159 2.48847C1.96356 2.51984 1.91462 2.58187 1.89997 2.65534C1.88528 2.72881 1.90659 2.80487 1.95734 2.86C2.0365 2.946 2.08009 3.05584 2.08009 3.16925C2.08009 3.42234 1.87418 3.62825 1.62109 3.62825C1.368 3.62825 1.16209 3.42234 1.16209 3.16925ZM2.13281 4.94921C2.13281 4.81977 2.02787 4.71484 1.89843 4.71484C1.72606 4.71484 1.57753 4.60099 1.553 4.45003C1.52503 4.27803 1.63028 4.11981 1.79778 4.08206C1.80684 4.08003 1.81556 4.07734 1.82412 4.07434C2.23831 3.98146 2.54881 3.61106 2.54881 3.16928C2.54881 3.02593 2.51518 2.88597 2.45181 2.75912C2.59968 2.61322 2.68749 2.41197 2.68749 2.19856C2.68749 2.04034 2.6405 1.89294 2.56 1.76928C2.91771 1.46647 3.36668 1.30078 3.83984 1.30078H4.94921C5.42446 1.30078 5.87208 1.46566 6.22943 1.76872C6.14868 1.8925 6.10155 2.04009 6.10155 2.19856C6.10155 2.41197 6.18936 2.61322 6.33724 2.75912C6.27383 2.88597 6.24024 3.02593 6.24024 3.16928C6.24024 3.61996 6.56336 3.99646 6.99008 4.07971C6.99727 4.08265 7.00464 4.08531 7.01224 4.08756C7.14627 4.12759 7.26617 4.26493 7.23608 4.45006C7.21155 4.60103 7.06302 4.71487 6.89064 4.71487C6.76121 4.71487 6.65627 4.81981 6.65627 4.94924C6.65627 6.19637 5.64168 7.21096 4.39455 7.21096C3.14743 7.21096 2.13281 6.19633 2.13281 4.94921ZM2.76103 7.90824L2.83528 7.75977L4.03852 8.36139L3.58981 8.9597C3.57937 8.97364 3.56571 8.97674 3.55612 8.97689C3.54587 8.97771 3.53274 8.97436 3.52187 8.96077L2.73609 7.97855C2.74806 7.95668 2.75646 7.93296 2.76103 7.90824ZM4.39452 10.7116C3.34528 9.96586 2.78056 8.98989 2.54056 8.48449L3.15584 9.25358C3.25374 9.37595 3.3989 9.44564 3.55518 9.44564C3.55793 9.44564 3.56068 9.44561 3.56343 9.44558C3.72284 9.44308 3.86912 9.36849 3.96477 9.24095L4.16012 8.98049V9.94142C4.16012 10.0709 4.26505 10.1758 4.39449 10.1758C4.52393 10.1758 4.62887 10.0709 4.62887 9.94142V8.98049L4.82421 9.24095C4.91987 9.36852 5.06615 9.44308 5.22555 9.44558C5.2283 9.44561 5.23105 9.44564 5.2338 9.44564C5.39008 9.44564 5.53524 9.37595 5.63315 9.25358L6.2503 8.48211C6.01224 8.98614 5.44921 9.96239 4.39452 10.7116Z" fill="#666666"/>
<path d="M5.09682 5.59924C4.99629 5.51768 4.8487 5.53309 4.76717 5.63362C4.66748 5.75656 4.53514 5.82424 4.39451 5.82424C4.25389 5.82424 4.12154 5.75656 4.02186 5.63362C3.94036 5.53309 3.79273 5.51771 3.6922 5.59924C3.59167 5.68078 3.57629 5.82837 3.65783 5.9289C3.84548 6.16027 4.11401 6.29296 4.39454 6.29296C4.67507 6.29296 4.94351 6.16024 5.1312 5.9289C5.21273 5.82837 5.19735 5.68078 5.09682 5.59924Z" fill="#666666"/>
<path d="M3.28516 4.16022C3.15572 4.16022 3.05078 4.26515 3.05078 4.39459V4.67194C3.05078 4.80137 3.15572 4.90631 3.28516 4.90631C3.41459 4.90631 3.51953 4.80137 3.51953 4.67194V4.39459C3.51953 4.26515 3.41459 4.16022 3.28516 4.16022Z" fill="#666666"/>
<path d="M5.50391 4.16022C5.37447 4.16022 5.26953 4.26515 5.26953 4.39459V4.67194C5.26953 4.80137 5.37447 4.90631 5.50391 4.90631C5.63334 4.90631 5.73828 4.80137 5.73828 4.67194V4.39459C5.73828 4.26515 5.63334 4.16022 5.50391 4.16022Z" fill="#666666"/>
<path d="M7.88837 9.22093C7.79684 9.1294 7.64844 9.1294 7.55694 9.22093L7.04984 9.72802C6.79603 9.98184 6.65625 10.3193 6.65625 10.6782V14.9335C6.65625 15.063 6.76119 15.1679 6.89062 15.1679C7.02006 15.1679 7.125 15.063 7.125 14.9335V10.6782C7.125 10.4445 7.21603 10.2247 7.38128 10.0595L7.88837 9.5524C7.9799 9.46087 7.9799 9.31246 7.88837 9.22093Z" fill="#666666"/>
<path d="M12.5851 7.54071C12.4846 7.45915 12.3369 7.47456 12.2554 7.57509C12.1558 7.69802 12.0234 7.76571 11.8828 7.76571C11.7422 7.76571 11.6098 7.69802 11.5101 7.57509C11.4286 7.47456 11.281 7.45918 11.1805 7.54071C11.08 7.62224 11.0646 7.76984 11.1461 7.87037C11.3337 8.10171 11.6022 8.23443 11.8828 8.23443C12.1633 8.23443 12.4318 8.10171 12.6195 7.87037C12.701 7.76984 12.6856 7.62224 12.5851 7.54071Z" fill="#666666"/>
<path d="M9.38672 11.6485C9.25728 11.6485 9.15234 11.7534 9.15234 11.8829V14.9336C9.15234 15.0631 9.25728 15.168 9.38672 15.168C9.51616 15.168 9.62109 15.0631 9.62109 14.9336V11.8829C9.62109 11.7534 9.51616 11.6485 9.38672 11.6485Z" fill="#666666"/>
<path d="M14.3789 11.6485C14.2495 11.6485 14.1445 11.7534 14.1445 11.8829V14.9336C14.1445 15.0631 14.2495 15.168 14.3789 15.168C14.5083 15.168 14.6133 15.0631 14.6133 14.9336V11.8829C14.6133 11.7534 14.5083 11.6485 14.3789 11.6485Z" fill="#666666"/>
<path d="M15.4518 10.1056C15.5982 9.91989 15.6806 9.68842 15.6806 9.44551C15.6806 9.05054 15.464 8.69708 15.1251 8.5132C15.1257 8.50039 15.126 8.48761 15.126 8.47483C15.126 8.17017 14.9785 7.8913 14.7377 7.71967C14.7536 7.66561 14.7684 7.61117 14.7809 7.55605C14.8113 7.4222 14.8307 7.28077 14.8398 7.12577C15.2087 6.58145 15.4033 5.94646 15.4033 5.28536C15.4033 3.47393 13.9296 2.00021 12.1182 2.00021C10.3067 2.00021 8.83301 3.47393 8.83301 5.28536C8.83301 5.94652 9.02766 6.58152 9.39657 7.1258C9.40566 7.28089 9.42504 7.4223 9.45538 7.55602C9.46788 7.61111 9.48269 7.66555 9.49863 7.71964C9.25785 7.89126 9.11035 8.17014 9.11035 8.47483C9.11035 8.48761 9.11066 8.50039 9.11126 8.5132C8.77226 8.69708 8.55566 9.05057 8.55566 9.44551C8.55566 9.68842 8.6381 9.91989 8.78447 10.1056C8.30148 10.3954 8.00098 10.916 8.00098 11.4937V14.9925C8.00098 15.1219 8.10591 15.2269 8.23535 15.2269C8.36479 15.2269 8.46973 15.1219 8.46973 14.9925V11.4937C8.46973 11.0198 8.75407 10.5998 9.1941 10.4238L9.23894 10.4059C9.93216 11.3427 11.0001 11.8986 12.1182 11.8986C13.2516 11.8986 14.2961 11.3555 14.9972 10.4058L15.0422 10.4238C15.4823 10.5998 15.7666 11.0198 15.7666 11.4937V14.9924C15.7666 15.1218 15.8716 15.2268 16.001 15.2268C16.1304 15.2268 16.2354 15.1218 16.2354 14.9924V11.4937C16.2353 10.916 15.9348 10.3954 15.4518 10.1056ZM9.30176 5.28536C9.30176 3.7324 10.5652 2.46896 12.1182 2.46896C13.6711 2.46896 14.9346 3.7324 14.9346 5.28536C14.9346 5.68039 14.8534 6.06442 14.6973 6.41886C14.3596 5.69221 13.609 5.48858 12.8789 5.29102C12.2886 5.1313 11.6782 4.96611 11.1552 4.54768C11.0999 4.50346 11.0275 4.48655 10.9585 4.50177C10.8893 4.51696 10.8308 4.56255 10.7991 4.62586C10.7967 4.63071 10.5512 5.11346 10.0719 5.35308C9.95613 5.41096 9.90919 5.55174 9.9671 5.66752C10.025 5.7833 10.1657 5.83027 10.2815 5.77233C10.663 5.58158 10.9258 5.27871 11.074 5.06902C11.62 5.43596 12.2198 5.5983 12.7564 5.74349C12.9326 5.79114 13.0947 5.83633 13.2428 5.88342C13.2377 5.88333 13.2326 5.88305 13.2275 5.88305C12.9419 5.88305 12.6912 6.03558 12.5527 6.26349C12.4232 6.1968 12.2744 6.16039 12.1182 6.16039C11.9618 6.16039 11.8131 6.1968 11.6836 6.26349C11.545 6.03561 11.2944 5.88305 11.0088 5.88305C10.5737 5.88305 10.2197 6.23702 10.2197 6.67211C10.2197 7.1072 10.5737 7.46117 11.0088 7.46117C11.4143 7.46117 11.7492 7.15367 11.7929 6.75961C11.8693 6.67824 11.9889 6.62914 12.1182 6.62914C12.2474 6.62914 12.3669 6.67824 12.4434 6.75961C12.4871 7.15367 12.822 7.46117 13.2275 7.46117C13.6626 7.46117 14.0166 7.1072 14.0166 6.67211C14.0166 6.44417 13.9193 6.23861 13.7642 6.09446C14.0994 6.27711 14.3056 6.53211 14.382 6.98249C14.3781 6.9982 14.3756 7.01452 14.3749 7.03136C14.3693 7.18764 14.3526 7.32533 14.3238 7.45233C14.2122 7.94398 13.9334 8.39042 13.5387 8.70945C13.1327 9.0377 12.6414 9.2112 12.1181 9.2112C11.5948 9.2112 11.1036 9.0377 10.6975 8.70945C10.3028 8.39045 10.0241 7.94398 9.91247 7.45233C9.88372 7.32558 9.86697 7.18802 9.86135 7.03177C9.8591 6.9697 9.83288 6.91398 9.79175 6.87342C9.47104 6.40464 9.30176 5.85646 9.30176 5.28536ZM13.5478 6.67208C13.5478 6.8487 13.4042 6.99239 13.2275 6.99239C13.0509 6.99239 12.9072 6.8487 12.9072 6.67208C12.9072 6.49545 13.0509 6.35177 13.2275 6.35177C13.4042 6.35177 13.5478 6.49545 13.5478 6.67208ZM11.3291 6.67208C11.3291 6.8487 11.1854 6.99239 11.0088 6.99239C10.8322 6.99239 10.6885 6.8487 10.6885 6.67208C10.6885 6.49545 10.8322 6.35177 11.0088 6.35177C11.1854 6.35177 11.3291 6.49545 11.3291 6.67208ZM13.4656 9.79239C13.1012 10.1307 12.6245 10.3205 12.1181 10.3205C11.6123 10.3205 11.1353 10.1305 10.7708 9.79232C10.9172 9.72826 11.0384 9.62311 11.1216 9.49076C11.4373 9.61442 11.7756 9.67989 12.1182 9.67989C12.4607 9.67989 12.799 9.61442 13.1147 9.49076C13.1979 9.62317 13.3192 9.72832 13.4656 9.79239ZM9.23657 9.90195C9.10279 9.78889 9.02444 9.62264 9.02444 9.44548C9.02441 9.18632 9.19247 8.95886 9.4426 8.87945C9.56235 8.84145 9.63079 8.71579 9.59785 8.59458C9.58504 8.54754 9.5791 8.50948 9.5791 8.47483C9.5791 8.36614 9.61722 8.26426 9.68304 8.18395C9.85675 8.52548 10.1018 8.83058 10.4028 9.07395C10.496 9.14926 10.594 9.21792 10.6957 9.27989C10.6628 9.31782 10.6212 9.34811 10.5731 9.36736L9.23657 9.90195ZM12.1182 11.4299C11.1735 11.4299 10.3005 10.9935 9.69091 10.2251L10.299 9.98185C10.7643 10.4967 11.4192 10.7893 12.1182 10.7893C12.8178 10.7893 13.4721 10.4968 13.9373 9.98182L14.5456 10.2252C13.9358 10.9933 13.0613 11.4299 12.1182 11.4299ZM14.9997 9.90198L13.6632 9.36736C13.6151 9.34811 13.5735 9.31782 13.5406 9.27989C13.6423 9.21789 13.7403 9.14926 13.8335 9.07395C14.1346 8.83058 14.3796 8.52545 14.5533 8.18395C14.6191 8.26426 14.6572 8.36614 14.6572 8.47483C14.6572 8.50948 14.6513 8.54754 14.6385 8.59458C14.6055 8.71579 14.674 8.84145 14.7937 8.87945C15.0438 8.95886 15.2119 9.18632 15.2119 9.44551C15.2119 9.62267 15.1335 9.78892 14.9997 9.90198Z" fill="#666666"/>
</g>
<defs>
<clipPath id="clip0_278_378">
<rect width="16" height="16" fill="white"/>
</clipPath>
</defs>
</svg>
