<svg width="18" height="18" viewBox="0 0 18 18" fill="none" xmlns="http://www.w3.org/2000/svg">
<path d="M6.74989 15.4688H6.18739C6.18739 10.9598 3.37095 9.59316 1.62523 9.17944C2.84051 10.0901 4.49989 11.9748 4.49989 15.4688H3.93739C3.93739 10.3992 0.339074 9.03881 0.186074 8.98341C0.123774 8.961 0.0713754 8.91734 0.0381016 8.8601C0.00482784 8.80286 -0.00718769 8.73572 0.00417025 8.6705C0.0155282 8.60528 0.0495315 8.54615 0.100194 8.50353C0.150857 8.46091 0.214931 8.43753 0.281136 8.4375C0.345824 8.4375 6.74989 8.51794 6.74989 15.4688Z" fill="#707070"/>
<path d="M2.90218 5.99055C4.14876 7.30009 5.05298 8.89697 5.53468 10.6396C5.25712 10.2963 4.94309 9.98417 4.59812 9.70868C3.39718 6.7443 1.56906 5.59962 1.54093 5.58555C1.48506 5.55237 1.44241 5.50086 1.42022 5.43978C1.39803 5.3787 1.39768 5.31183 1.41922 5.25052C1.44076 5.18921 1.48287 5.13725 1.53838 5.10348C1.5939 5.0697 1.65939 5.05619 1.72374 5.06524C1.77437 5.07087 5.60499 5.63337 7.45281 10.0068C7.39093 10.3668 7.33468 10.7437 7.28687 11.1346C6.28562 7.90305 4.23812 6.54743 2.90218 5.99055Z" fill="#707070"/>
<path d="M8.4375 15.469H8.15625C8.15625 14.5325 8.18719 13.6662 8.24625 12.8618C8.37764 13.7246 8.44158 14.5963 8.4375 15.469Z" fill="#707070"/>
<path d="M10.125 15.469H9.5625C9.5625 8.55168 10.4572 5.16318 11.1423 3.58256C9.864 4.8659 7.875 8.055 7.875 15.469H7.3125C7.3125 4.15434 11.8038 2.33971 11.9947 2.268C12.0564 2.2448 12.1243 2.244 12.1865 2.26574C12.2487 2.28747 12.3013 2.33035 12.3351 2.38691C12.3689 2.44346 12.3818 2.51009 12.3715 2.57518C12.3612 2.64026 12.3284 2.69967 12.2788 2.74303C12.2605 2.76046 10.125 4.8659 10.125 15.469Z" fill="#707070"/>
<path d="M8.62007 5.92895C8.43444 5.79958 8.25726 5.68708 8.09132 5.59145C8.22351 5.76864 8.36413 5.97114 8.50757 6.19895C8.41757 6.41552 8.3332 6.64052 8.24882 6.87958C7.86298 6.19035 7.38934 5.5541 6.83976 4.98677C6.79409 4.94308 6.76447 4.88529 6.75567 4.82271C6.74687 4.76013 6.7594 4.69641 6.79124 4.64183C6.82308 4.58724 6.87238 4.54497 6.93119 4.52183C6.98999 4.49868 7.05488 4.49602 7.11538 4.51427C7.73117 4.74373 8.31376 5.05394 8.84788 5.43677C8.76913 5.59427 8.69319 5.75739 8.62007 5.92895Z" fill="#707070"/>
<path d="M9.67625 8.46012C9.62 8.86512 9.57219 9.28981 9.53 9.74262C9.37514 9.25832 9.19297 8.78319 8.98438 8.31949C9.06594 8.02699 9.15031 7.75137 9.2375 7.48981C9.38656 7.78793 9.53281 8.11137 9.67625 8.46012Z" fill="#707070"/>
<path d="M10.9688 15.469H10.4062C10.4062 13.8827 10.4541 12.4877 10.5384 11.2615C10.831 12.6447 10.9753 14.0552 10.9688 15.469Z" fill="#707070"/>
<path d="M10.0194 6.38144C9.98 6.57832 9.94063 6.78644 9.90125 7.00301C9.78313 6.88207 9.665 6.76957 9.54688 6.66269C9.62 6.48269 9.69313 6.31394 9.76625 6.15082C9.85063 6.22394 9.935 6.30269 10.0194 6.38144Z" fill="#707070"/>
<path d="M13.4995 15.4683H12.937C12.937 12.0737 11.9976 9.73366 10.8613 8.1446C10.8979 7.89147 10.9345 7.65241 10.9738 7.42178C12.321 9.10085 13.4995 11.6602 13.4995 15.4683Z" fill="#707070"/>
<path d="M12.3458 12.3274C12.1704 13.3653 12.0857 14.4164 12.0927 15.469H11.5302C11.5087 14.0042 11.676 12.5428 12.028 11.1208C12.1542 11.5174 12.2603 11.9201 12.3458 12.3274Z" fill="#707070"/>
<path d="M15.6798 6.93586C15.6629 6.95554 13.7814 9.21398 13.7814 15.469C13.7893 14.3137 13.6695 13.1611 13.4242 12.0321C13.5871 10.5085 13.9896 9.0202 14.6167 7.62211C13.8373 8.34765 13.2482 9.25358 12.9011 10.2602C12.8026 9.99867 12.6986 9.75117 12.5889 9.51211C13.6942 7.03992 15.2861 6.51398 15.3873 6.48023C15.4459 6.46234 15.5088 6.4641 15.5663 6.48523C15.6239 6.50636 15.673 6.54571 15.7061 6.5973C15.7392 6.64888 15.7545 6.70987 15.7498 6.77099C15.7451 6.8321 15.7205 6.89 15.6798 6.93586Z" fill="#707070"/>
<path d="M17.8442 10.3755C17.8329 10.3839 16.3114 11.2502 16.3114 15.4689H15.7489C15.7489 12.9686 16.2664 11.5483 16.7529 10.7636C15.9992 11.1568 15.3839 11.7712 14.9895 12.5243C14.9501 12.2374 14.9051 11.9646 14.8545 11.7002C15.5368 10.7585 16.5402 10.0991 17.6754 9.84676C17.7417 9.83699 17.8092 9.85117 17.8659 9.88675C17.9226 9.92232 17.9648 9.97695 17.9848 10.0408C18.0055 10.1042 18.0026 10.1729 17.9768 10.2343C17.951 10.2958 17.9039 10.3459 17.8442 10.3755Z" fill="#707070"/>
<path d="M12.864 8.3979C12.7134 8.10579 12.5453 7.82308 12.3605 7.55134C12.4421 7.90572 12.5208 8.33884 12.594 8.86478C12.5377 8.96884 12.4843 9.07572 12.4308 9.18822C12.2803 8.88178 12.1142 8.58326 11.933 8.29384C11.6658 6.74978 11.3677 6.42072 11.3452 6.39822C11.3165 6.37633 11.2923 6.34898 11.2742 6.31772C11.2561 6.28646 11.2443 6.25193 11.2396 6.21611C11.2349 6.18029 11.2374 6.14389 11.2468 6.10901C11.2562 6.07413 11.2725 6.04147 11.2946 6.0129C11.342 5.95407 11.4101 5.91571 11.485 5.90576C11.5599 5.89581 11.6357 5.91504 11.6968 5.95947C12.3283 6.48794 12.8492 7.13597 13.2296 7.86634C13.1087 8.02947 12.9849 8.20384 12.864 8.3979Z" fill="#707070"/>
<path d="M14.9074 15.4692H14.3449C14.3474 14.5976 14.2939 13.7267 14.1846 12.862C14.2493 12.201 14.3393 11.6048 14.4405 11.0704C14.7641 12.5139 14.9207 13.9899 14.9074 15.4692Z" fill="#707070"/>
<path d="M7.84508 7.43926C7.62972 8.02459 7.48525 8.63362 7.41477 9.25332C7.28225 8.98977 7.1358 8.73347 6.97602 8.48551C6.99008 8.41801 7.00133 8.35613 7.01539 8.29707C6.98727 8.33363 6.96195 8.37301 6.93102 8.41238C6.82133 8.23801 6.70602 8.07207 6.58789 7.91457C6.81943 7.57827 7.11469 7.29065 7.45695 7.06801C7.50943 7.03893 7.56983 7.0274 7.62933 7.0351C7.68882 7.0428 7.7443 7.06932 7.78765 7.11078C7.83101 7.15225 7.85996 7.2065 7.8703 7.26559C7.88063 7.32469 7.87179 7.38554 7.84508 7.43926Z" fill="#707070"/>
</svg>
