<svg width="18" height="18" viewBox="0 0 18 18" fill="none" xmlns="http://www.w3.org/2000/svg">
<path d="M0.522461 5.69893H17.5338" stroke="#707070" stroke-width="0.527344" stroke-miterlimit="10" stroke-linecap="round" stroke-linejoin="round"/>
<path d="M1.24023 7.17143H3.3076" stroke="#707070" stroke-width="0.527344" stroke-miterlimit="10" stroke-linecap="round" stroke-linejoin="round"/>
<path d="M11.6357 7.17143H13.7031" stroke="#707070" stroke-width="0.527344" stroke-miterlimit="10" stroke-linecap="round" stroke-linejoin="round"/>
<path d="M14.749 7.17143H16.8164" stroke="#707070" stroke-width="0.527344" stroke-miterlimit="10" stroke-linecap="round" stroke-linejoin="round"/>
<path d="M4.89941 7.17143H10.4589" stroke="#707070" stroke-width="0.527344" stroke-miterlimit="10" stroke-linecap="round" stroke-linejoin="round"/>
<path d="M14.1412 8.64394H12.7842" stroke="#707070" stroke-width="0.527344" stroke-miterlimit="10" stroke-linecap="round" stroke-linejoin="round"/>
<path d="M2.79959 8.64394H2.27344" stroke="#707070" stroke-width="0.527344" stroke-miterlimit="10" stroke-linecap="round" stroke-linejoin="round"/>
<path d="M15.784 8.64394H15.2578" stroke="#707070" stroke-width="0.527344" stroke-miterlimit="10" stroke-linecap="round" stroke-linejoin="round"/>
<path d="M5.19684 8.64394H3.83984" stroke="#707070" stroke-width="0.527344" stroke-miterlimit="10" stroke-linecap="round" stroke-linejoin="round"/>
<path d="M11.738 8.64394H6.7207" stroke="#707070" stroke-width="0.527344" stroke-miterlimit="10" stroke-linecap="round" stroke-linejoin="round"/>
<path d="M4.07205 10.2314H3.5459" stroke="#707070" stroke-width="0.527344" stroke-miterlimit="10" stroke-linecap="round" stroke-linejoin="round"/>
<path d="M7.01929 10.2314H5.1123" stroke="#707070" stroke-width="0.527344" stroke-miterlimit="10" stroke-linecap="round" stroke-linejoin="round"/>
<path d="M12.2947 10.2314H11.7686" stroke="#707070" stroke-width="0.527344" stroke-miterlimit="10" stroke-linecap="round" stroke-linejoin="round"/>
<path d="M15.241 10.2314H13.334" stroke="#707070" stroke-width="0.527344" stroke-miterlimit="10" stroke-linecap="round" stroke-linejoin="round"/>
<path d="M9.88868 10.2314H7.99316" stroke="#707070" stroke-width="0.527344" stroke-miterlimit="10" stroke-linecap="round" stroke-linejoin="round"/>
<path d="M13.6621 5.05214C13.6896 5.25738 13.7039 5.46684 13.7039 5.67961" stroke="#707070" stroke-width="0.527344" stroke-miterlimit="10" stroke-linecap="round" stroke-linejoin="round"/>
<path d="M12.7744 2.88417C12.9201 3.07911 13.0509 3.28576 13.1652 3.50253" stroke="#707070" stroke-width="0.527344" stroke-miterlimit="10" stroke-linecap="round" stroke-linejoin="round"/>
<path d="M7.42188 1.28819C7.92261 1.10506 8.46345 1.00511 9.0276 1.00511C10.2116 1.00511 11.2928 1.4453 12.1165 2.17096" stroke="#707070" stroke-width="0.527344" stroke-miterlimit="10" stroke-linecap="round" stroke-linejoin="round"/>
<path d="M4.35352 5.67997C4.35352 4.2605 4.98619 2.98879 5.98494 2.13147" stroke="#707070" stroke-width="0.527344" stroke-miterlimit="10" stroke-linecap="round" stroke-linejoin="round"/>
<path d="M4.35956 15.6918H3.19989L1.19434 11.5461H4.98376L6.98932 15.6918H5.16038" stroke="#707070" stroke-width="0.527344" stroke-miterlimit="10" stroke-linecap="round" stroke-linejoin="round"/>
<path d="M1.97646 13.1642L1.07129 17.1377" stroke="#707070" stroke-width="0.527344" stroke-miterlimit="10" stroke-linecap="round" stroke-linejoin="round"/>
<path d="M5.73525 13.1642L4.83008 17.1377" stroke="#707070" stroke-width="0.527344" stroke-miterlimit="10" stroke-linecap="round" stroke-linejoin="round"/>
<path d="M6.98915 15.6918L8.2412 14.5939H6.45801" stroke="#707070" stroke-width="0.527344" stroke-miterlimit="10" stroke-linecap="round" stroke-linejoin="round"/>
<path d="M8.24121 14.5939L8.60793 15.3729" stroke="#707070" stroke-width="0.527344" stroke-miterlimit="10" stroke-linecap="round" stroke-linejoin="round"/>
<path d="M6.98828 15.6919L7.66898 17.1378" stroke="#707070" stroke-width="0.527344" stroke-miterlimit="10" stroke-linecap="round" stroke-linejoin="round"/>
<path d="M3.20215 15.6919L3.88284 17.1378" stroke="#707070" stroke-width="0.527344" stroke-miterlimit="10" stroke-linecap="round" stroke-linejoin="round"/>
<path d="M13.8319 15.6918H14.9916L16.9971 11.5461H13.2077L11.2021 15.6918H13.0311" stroke="#707070" stroke-width="0.527344" stroke-miterlimit="10" stroke-linecap="round" stroke-linejoin="round"/>
<path d="M16.2139 13.1642L17.119 17.1377" stroke="#707070" stroke-width="0.527344" stroke-miterlimit="10" stroke-linecap="round" stroke-linejoin="round"/>
<path d="M12.4551 13.1642L13.3602 17.1377" stroke="#707070" stroke-width="0.527344" stroke-miterlimit="10" stroke-linecap="round" stroke-linejoin="round"/>
<path d="M11.2013 15.6918L9.94922 14.5939H11.7324" stroke="#707070" stroke-width="0.527344" stroke-miterlimit="10" stroke-linecap="round" stroke-linejoin="round"/>
<path d="M9.94972 14.5939L9.58301 15.3729" stroke="#707070" stroke-width="0.527344" stroke-miterlimit="10" stroke-linecap="round" stroke-linejoin="round"/>
<path d="M11.2012 15.6919L10.5205 17.1378" stroke="#707070" stroke-width="0.527344" stroke-miterlimit="10" stroke-linecap="round" stroke-linejoin="round"/>
<path d="M14.9873 15.6919L14.3066 17.1378" stroke="#707070" stroke-width="0.527344" stroke-miterlimit="10" stroke-linecap="round" stroke-linejoin="round"/>
<path d="M14.7764 3.57182H14.8652" stroke="#707070" stroke-width="0.527344" stroke-miterlimit="10" stroke-linecap="round" stroke-linejoin="round"/>
<path d="M11.001 3.57182H13.8835" stroke="#707070" stroke-width="0.527344" stroke-miterlimit="10" stroke-linecap="round" stroke-linejoin="round"/>
<path d="M4.68164 2.13582H7.99965" stroke="#707070" stroke-width="0.527344" stroke-miterlimit="10" stroke-linecap="round" stroke-linejoin="round"/>
<path d="M3.50293 4.00316H5.52339" stroke="#707070" stroke-width="0.527344" stroke-miterlimit="10" stroke-linecap="round" stroke-linejoin="round"/>
<path d="M11.8047 4.42639H12.8708" stroke="#707070" stroke-width="0.527344" stroke-miterlimit="10" stroke-linecap="round" stroke-linejoin="round"/>
</svg>
