<svg width="18" height="18" viewBox="0 0 18 18" fill="none" xmlns="http://www.w3.org/2000/svg">
<g clip-path="url(#clip0_278_521)">
<path d="M14.4844 14.6251H14.3438V14.4845C14.3434 14.2302 14.2448 13.9859 14.0686 13.8027C13.8924 13.6194 13.6521 13.5114 13.398 13.5012C13.57 13.3503 13.692 13.1506 13.7475 12.9287C13.8031 12.7068 13.7897 12.4732 13.7091 12.2591C13.6285 12.045 13.4846 11.8605 13.2965 11.7303C13.1084 11.6001 12.885 11.5304 12.6562 11.5304C12.4275 11.5304 12.2041 11.6001 12.016 11.7303C11.8279 11.8605 11.684 12.045 11.6034 12.2591C11.5228 12.4732 11.5094 12.7068 11.565 12.9287C11.6205 13.1506 11.7425 13.3503 11.9145 13.5012C11.6604 13.5114 11.4201 13.6194 11.2439 13.8027C11.0677 13.9859 10.9691 14.2302 10.9688 14.4845V14.6251H10.6875V14.4845C10.6872 14.2302 10.5886 13.9859 10.4123 13.8027C10.2361 13.6194 9.99584 13.5114 9.7418 13.5012C9.91379 13.3503 10.0357 13.1506 10.0913 12.9287C10.1469 12.7068 10.1335 12.4732 10.0529 12.2591C9.9723 12.045 9.82834 11.8605 9.64023 11.7303C9.45211 11.6001 9.22878 11.5304 9 11.5304C8.77122 11.5304 8.54789 11.6001 8.35977 11.7303C8.17166 11.8605 8.0277 12.045 7.94711 12.2591C7.86652 12.4732 7.85313 12.7068 7.90871 12.9287C7.96429 13.1506 8.08621 13.3503 8.2582 13.5012C8.00416 13.5114 7.7639 13.6194 7.58765 13.8027C7.41141 13.9859 7.31282 14.2302 7.3125 14.4845V14.6251H7.03125V14.4845C7.03093 14.2302 6.93234 13.9859 6.7561 13.8027C6.57985 13.6194 6.33959 13.5114 6.08555 13.5012C6.25754 13.3503 6.37946 13.1506 6.43504 12.9287C6.49062 12.7068 6.47723 12.4732 6.39664 12.2591C6.31605 12.045 6.17209 11.8605 5.98398 11.7303C5.79586 11.6001 5.57253 11.5304 5.34375 11.5304C5.11497 11.5304 4.89164 11.6001 4.70352 11.7303C4.51541 11.8605 4.37145 12.045 4.29086 12.2591C4.21027 12.4732 4.19688 12.7068 4.25246 12.9287C4.30804 13.1506 4.42996 13.3503 4.60195 13.5012C4.34791 13.5114 4.10765 13.6194 3.9314 13.8027C3.75516 13.9859 3.65657 14.2302 3.65625 14.4845V14.6251H3.51562C3.25464 14.6254 3.00443 14.7292 2.81989 14.9137C2.63534 15.0983 2.53154 15.3485 2.53125 15.6095V17.1564C2.53125 17.2309 2.56088 17.3025 2.61363 17.3552C2.66637 17.408 2.73791 17.4376 2.8125 17.4376H15.1875C15.2621 17.4376 15.3336 17.408 15.3864 17.3552C15.4391 17.3025 15.4688 17.2309 15.4688 17.1564V15.6095C15.4685 15.3485 15.3647 15.0983 15.1801 14.9137C14.9956 14.7292 14.7454 14.6254 14.4844 14.6251ZM12.6562 12.0939C12.7675 12.0939 12.8763 12.1268 12.9688 12.1886C13.0613 12.2505 13.1334 12.3383 13.1759 12.4411C13.2185 12.5439 13.2296 12.657 13.2079 12.7661C13.1862 12.8752 13.1327 12.9754 13.054 13.0541C12.9753 13.1328 12.8751 13.1863 12.766 13.208C12.6569 13.2297 12.5438 13.2186 12.441 13.176C12.3382 13.1335 12.2504 13.0614 12.1885 12.9689C12.1267 12.8764 12.0938 12.7676 12.0938 12.6564C12.0939 12.5072 12.1533 12.3643 12.2587 12.2588C12.3642 12.1534 12.5071 12.094 12.6562 12.0939ZM11.5312 14.4845C11.5313 14.3726 11.5758 14.2654 11.6549 14.1863C11.734 14.1072 11.8413 14.0627 11.9531 14.0626H13.3594C13.4712 14.0627 13.5785 14.1072 13.6576 14.1863C13.7367 14.2654 13.7812 14.3726 13.7812 14.4845V14.6251H11.5312V14.4845ZM9 12.0939C9.11125 12.0939 9.22001 12.1268 9.31251 12.1886C9.40501 12.2505 9.47711 12.3383 9.51968 12.4411C9.56226 12.5439 9.5734 12.657 9.55169 12.7661C9.52999 12.8752 9.47642 12.9754 9.39775 13.0541C9.31908 13.1328 9.21885 13.1863 9.10974 13.208C9.00062 13.2297 8.88752 13.2186 8.78474 13.176C8.68196 13.1335 8.59411 13.0614 8.5323 12.9689C8.47049 12.8764 8.4375 12.7676 8.4375 12.6564C8.4377 12.5072 8.49702 12.3643 8.60247 12.2588C8.70792 12.1534 8.85088 12.094 9 12.0939ZM7.875 14.4845C7.87509 14.3726 7.91957 14.2654 7.99867 14.1863C8.07776 14.1072 8.18502 14.0627 8.29688 14.0626H9.70312C9.81498 14.0627 9.92224 14.1072 10.0013 14.1863C10.0804 14.2654 10.1249 14.3726 10.125 14.4845V14.6251H7.875V14.4845ZM5.34375 12.0939C5.455 12.0939 5.56376 12.1268 5.65626 12.1886C5.74876 12.2505 5.82086 12.3383 5.86343 12.4411C5.90601 12.5439 5.91715 12.657 5.89544 12.7661C5.87374 12.8752 5.82016 12.9754 5.7415 13.0541C5.66283 13.1328 5.5626 13.1863 5.45349 13.208C5.34437 13.2297 5.23127 13.2186 5.12849 13.176C5.02571 13.1335 4.93786 13.0614 4.87605 12.9689C4.81424 12.8764 4.78125 12.7676 4.78125 12.6564C4.78145 12.5072 4.84077 12.3643 4.94622 12.2588C5.05167 12.1534 5.19463 12.094 5.34375 12.0939ZM4.21875 14.4845C4.21884 14.3726 4.26332 14.2654 4.34242 14.1863C4.42151 14.1072 4.52877 14.0627 4.64062 14.0626H6.04688C6.15873 14.0627 6.26599 14.1072 6.34508 14.1863C6.42418 14.2654 6.46866 14.3726 6.46875 14.4845V14.6251H4.21875V14.4845ZM14.9062 16.8751H3.09375V15.6095C3.09384 15.4976 3.13832 15.3904 3.21742 15.3113C3.29651 15.2322 3.40377 15.1877 3.51562 15.1876H14.4844C14.5962 15.1877 14.7035 15.2322 14.7826 15.3113C14.8617 15.3904 14.9062 15.4976 14.9062 15.6095V16.8751Z" fill="#707070"/>
<path d="M3.1204 10.9675C7.03133 10.596 10.9687 10.596 14.8796 10.9675C14.8885 10.9683 14.8974 10.9687 14.9062 10.9687C14.9808 10.9687 15.0524 10.9391 15.1051 10.8864C15.1579 10.8336 15.1875 10.7621 15.1875 10.6875V3.375C15.1875 3.33582 15.1793 3.29707 15.1635 3.26124C15.1476 3.2254 15.1245 3.19328 15.0955 3.16692C15.0665 3.14056 15.0323 3.12054 14.9951 3.10816C14.958 3.09578 14.9186 3.0913 14.8796 3.09502C10.9687 3.46655 7.03133 3.46655 3.1204 3.09502C3.08139 3.0913 3.04204 3.09578 3.00487 3.10816C2.9677 3.12054 2.93352 3.14056 2.90453 3.16692C2.87554 3.19328 2.85238 3.2254 2.83654 3.26124C2.82069 3.29707 2.8125 3.33582 2.8125 3.375V10.6875C2.8125 10.7267 2.82069 10.7654 2.83654 10.8013C2.85238 10.8371 2.87554 10.8692 2.90453 10.8956C2.93352 10.9219 2.9677 10.942 3.00487 10.9543C3.04204 10.9667 3.08139 10.9712 3.1204 10.9675ZM3.375 3.68353C7.11744 4.02033 10.8826 4.02033 14.625 3.68353V10.379C12.7579 10.2106 10.8789 10.1263 9 10.1263C7.12107 10.1263 5.24211 10.2107 3.375 10.379V3.68353Z" fill="#707070"/>
<path d="M10.6875 7.03124C10.6875 6.97901 10.673 6.92782 10.6455 6.88339C10.618 6.83896 10.5788 6.80306 10.532 6.7797L8.28204 5.6547C8.23916 5.63326 8.19151 5.62313 8.14362 5.62528C8.09573 5.62744 8.04918 5.6418 8.0084 5.667C7.96761 5.6922 7.93395 5.72741 7.91061 5.76928C7.88726 5.81115 7.875 5.8583 7.875 5.90624V8.15624C7.875 8.20418 7.88726 8.25133 7.91061 8.2932C7.93395 8.33507 7.96761 8.37028 8.0084 8.39548C8.04918 8.42068 8.09573 8.43504 8.14362 8.4372C8.19151 8.43935 8.23916 8.42922 8.28204 8.40778L10.532 7.28278C10.5788 7.25942 10.618 7.22352 10.6455 7.17909C10.673 7.13466 10.6875 7.08347 10.6875 7.03124ZM8.4375 7.70118V6.3613L9.77734 7.03124L8.4375 7.70118Z" fill="#707070"/>
<path d="M1.96875 9.5625C2.11788 9.56232 2.26085 9.503 2.3663 9.39755C2.47175 9.2921 2.53107 9.14913 2.53125 9V6.1875C2.53107 6.03837 2.47175 5.8954 2.3663 5.78995C2.26085 5.6845 2.11788 5.62518 1.96875 5.625H0.84375C0.69462 5.62518 0.551649 5.6845 0.446198 5.78995C0.340747 5.8954 0.281427 6.03837 0.28125 6.1875V9C0.281427 9.14913 0.340747 9.2921 0.446198 9.39755C0.551649 9.503 0.69462 9.56232 0.84375 9.5625H1.125V10.6875H0.84375C0.769158 10.6875 0.697621 10.7171 0.644876 10.7699C0.592132 10.8226 0.5625 10.8942 0.5625 10.9688C0.5625 11.0433 0.592132 11.1149 0.644876 11.1676C0.697621 11.2204 0.769158 11.25 0.84375 11.25H1.96875C2.04334 11.25 2.11488 11.2204 2.16762 11.1676C2.22037 11.1149 2.25 11.0433 2.25 10.9688C2.25 10.8942 2.22037 10.8226 2.16762 10.7699C2.11488 10.7171 2.04334 10.6875 1.96875 10.6875H1.6875V9.5625H1.96875ZM0.84375 6.1875H1.96875L1.9691 9H0.84375V6.1875Z" fill="#707070"/>
<path d="M1.40625 7.03125C1.56158 7.03125 1.6875 6.90533 1.6875 6.75C1.6875 6.59467 1.56158 6.46875 1.40625 6.46875C1.25092 6.46875 1.125 6.59467 1.125 6.75C1.125 6.90533 1.25092 7.03125 1.40625 7.03125Z" fill="#707070"/>
<path d="M1.40625 7.875C1.56158 7.875 1.6875 7.74908 1.6875 7.59375C1.6875 7.43842 1.56158 7.3125 1.40625 7.3125C1.25092 7.3125 1.125 7.43842 1.125 7.59375C1.125 7.74908 1.25092 7.875 1.40625 7.875Z" fill="#707070"/>
<path d="M1.40625 8.71875C1.56158 8.71875 1.6875 8.59283 1.6875 8.4375C1.6875 8.28217 1.56158 8.15625 1.40625 8.15625C1.25092 8.15625 1.125 8.28217 1.125 8.4375C1.125 8.59283 1.25092 8.71875 1.40625 8.71875Z" fill="#707070"/>
<path d="M17.1562 5.625H16.0312C15.8821 5.62518 15.7391 5.6845 15.6337 5.78995C15.5282 5.8954 15.4689 6.03837 15.4688 6.1875V9C15.4689 9.14913 15.5282 9.2921 15.6337 9.39755C15.7391 9.503 15.8821 9.56232 16.0312 9.5625H16.3125V10.6875H16.0312C15.9567 10.6875 15.8851 10.7171 15.8324 10.7699C15.7796 10.8226 15.75 10.8942 15.75 10.9688C15.75 11.0433 15.7796 11.1149 15.8324 11.1676C15.8851 11.2204 15.9567 11.25 16.0312 11.25H17.1562C17.2308 11.25 17.3024 11.2204 17.3551 11.1676C17.4079 11.1149 17.4375 11.0433 17.4375 10.9688C17.4375 10.8942 17.4079 10.8226 17.3551 10.7699C17.3024 10.7171 17.2308 10.6875 17.1562 10.6875H16.875V9.5625H17.1562C17.3054 9.56232 17.4484 9.503 17.5538 9.39755C17.6593 9.2921 17.7186 9.14913 17.7188 9V6.1875C17.7186 6.03837 17.6593 5.8954 17.5538 5.78995C17.4484 5.6845 17.3054 5.62518 17.1562 5.625ZM17.1562 9H16.0312V6.1875H17.1562L17.1566 9H17.1562Z" fill="#707070"/>
<path d="M16.5938 7.875C16.7491 7.875 16.875 7.74908 16.875 7.59375C16.875 7.43842 16.7491 7.3125 16.5938 7.3125C16.4384 7.3125 16.3125 7.43842 16.3125 7.59375C16.3125 7.74908 16.4384 7.875 16.5938 7.875Z" fill="#707070"/>
<path d="M16.5938 7.03125C16.7491 7.03125 16.875 6.90533 16.875 6.75C16.875 6.59467 16.7491 6.46875 16.5938 6.46875C16.4384 6.46875 16.3125 6.59467 16.3125 6.75C16.3125 6.90533 16.4384 7.03125 16.5938 7.03125Z" fill="#707070"/>
<path d="M16.5938 8.71875C16.7491 8.71875 16.875 8.59283 16.875 8.4375C16.875 8.28217 16.7491 8.15625 16.5938 8.15625C16.4384 8.15625 16.3125 8.28217 16.3125 8.4375C16.3125 8.59283 16.4384 8.71875 16.5938 8.71875Z" fill="#707070"/>
<path d="M7.59375 2.8125H10.4062C10.5554 2.81232 10.6984 2.753 10.8038 2.64755C10.9093 2.5421 10.9686 2.39913 10.9688 2.25V1.125C10.9686 0.97587 10.9093 0.832899 10.8038 0.727448C10.6984 0.621997 10.5554 0.562677 10.4062 0.5625H7.59375C7.44462 0.562677 7.30165 0.621997 7.1962 0.727448C7.09075 0.832899 7.03143 0.97587 7.03125 1.125V2.25C7.03143 2.39913 7.09075 2.5421 7.1962 2.64755C7.30165 2.753 7.44462 2.81232 7.59375 2.8125ZM7.59375 1.125L10.4062 1.12465V2.25H7.59375V1.125Z" fill="#707070"/>
<path d="M9 1.96875C9.15533 1.96875 9.28125 1.84283 9.28125 1.6875C9.28125 1.53217 9.15533 1.40625 9 1.40625C8.84467 1.40625 8.71875 1.53217 8.71875 1.6875C8.71875 1.84283 8.84467 1.96875 9 1.96875Z" fill="#707070"/>
<path d="M8.15625 1.96875C8.31158 1.96875 8.4375 1.84283 8.4375 1.6875C8.4375 1.53217 8.31158 1.40625 8.15625 1.40625C8.00092 1.40625 7.875 1.53217 7.875 1.6875C7.875 1.84283 8.00092 1.96875 8.15625 1.96875Z" fill="#707070"/>
<path d="M9.84375 1.96875C9.99908 1.96875 10.125 1.84283 10.125 1.6875C10.125 1.53217 9.99908 1.40625 9.84375 1.40625C9.68842 1.40625 9.5625 1.53217 9.5625 1.6875C9.5625 1.84283 9.68842 1.96875 9.84375 1.96875Z" fill="#707070"/>
</g>
<defs>
<clipPath id="clip0_278_521">
<rect width="18" height="18" fill="white"/>
</clipPath>
</defs>
</svg>
