<svg width="19" height="19" viewBox="0 0 19 19" fill="none" xmlns="http://www.w3.org/2000/svg">
<g clip-path="url(#clip0_278_510)">
<path d="M18.9989 15.7003L18.7866 10.8178L18.9984 2.92227C19.0271 2.644 18.7215 2.12271 18.2491 2.23281C17.6665 2.32087 17.2408 3.14759 17.1607 3.31391C17.1605 3.31446 17.1602 3.31495 17.1599 3.3155C16.4113 4.88646 16.3109 6.1073 16.307 6.15907C16.1934 7.68991 16.4068 9.26936 16.9404 10.8545L16.7449 13.6694C16.7343 13.8227 16.85 13.9557 17.0033 13.9663C17.1566 13.9765 17.2896 13.8613 17.3002 13.708L17.4815 11.0981L18.2416 11.0986L18.4427 15.7238C18.4575 16.0863 18.1806 16.3934 17.8252 16.4083C17.4843 16.4291 17.1688 16.1329 17.1554 15.7926L17.2097 15.011C17.2204 14.8576 17.1047 14.7247 16.9514 14.714C16.7979 14.7039 16.6651 14.8191 16.6544 14.9724L16.5991 15.7706C16.59 16.4268 17.1949 17.0062 17.8487 16.9643C18.5102 16.9365 19.0262 16.3698 18.9989 15.7003ZM16.862 6.20081C16.8629 6.18931 16.9579 5.03355 17.6622 3.55555C17.8026 3.26366 18.1128 2.81637 18.3324 2.78319C18.4112 2.76193 18.4266 2.82412 18.4417 2.92157L18.2372 10.5419L17.4234 10.5414C16.9465 9.07265 16.7572 7.61317 16.862 6.20081Z" fill="#707070"/>
<path d="M3.91675 2.76314C3.8786 2.363 3.46504 2.02989 3.08045 2.03664C2.85361 2.03664 2.66318 2.10974 2.51092 2.25465C2.31848 2.07256 2.08942 2.03664 1.9388 2.03664C1.93731 2.03664 1.93579 2.03664 1.93431 2.03664C1.78847 2.03735 1.56549 2.07238 1.3758 2.24619C1.23004 2.10689 1.04316 2.03664 0.816844 2.03664C0.418233 1.98888 -0.0163722 2.44898 0.000474723 2.76343L0.00329491 5.5244C0.00411128 6.13196 0.194734 6.71422 0.554456 7.2082L0.684704 7.38705C0.929577 7.72332 1.05359 8.13566 1.03396 8.54819L0.691383 15.7406C0.687116 16.4127 1.30247 17.007 1.97305 16.9644C2.65126 16.9357 3.18031 16.3515 3.15237 15.6624L3.08594 13.9623C3.07997 13.8087 2.95072 13.6881 2.79699 13.6951C2.6434 13.7011 2.52376 13.8305 2.52977 13.9841L2.5962 15.6846C2.61174 16.0679 2.32164 16.3925 1.94952 16.4083C1.58872 16.4303 1.26013 16.113 1.248 15.7538L1.52697 9.89654H2.37002L2.47886 12.6817C2.48484 12.8352 2.61356 12.9549 2.76782 12.9489C2.92141 12.9429 3.04104 12.8135 3.03503 12.6599L2.87424 8.54511C2.85821 8.13563 2.9839 7.72681 3.22807 7.39399L3.35646 7.21907C3.72019 6.72338 3.91289 6.13823 3.91385 5.52673L3.91675 2.76314ZM3.35724 5.52607C3.35646 6.01852 3.20105 6.49009 2.90775 6.88985L2.77936 7.06477C2.46098 7.49867 2.29718 8.03213 2.31807 8.56689L2.34828 9.33996H1.55347L1.58991 8.57465C1.61555 8.03592 1.45387 7.49778 1.13463 7.05943L1.00439 6.88057C0.714279 6.48218 0.560578 6.01296 0.559873 5.52373L0.557053 2.78288C0.567814 2.74406 0.62214 2.5933 0.816807 2.5933C0.989989 2.5933 1.03767 2.67987 1.09066 2.81201C1.09255 2.81668 1.09456 2.82143 1.09645 2.82615V5.89955C1.09645 6.05329 1.22102 6.17786 1.37476 6.17786C1.5285 6.17786 1.65307 6.05329 1.65307 5.89955V2.81535C1.71385 2.65879 1.79712 2.59389 1.93687 2.59326H1.93906C2.07917 2.59326 2.16319 2.6582 2.22452 2.81513V5.89948C2.22452 6.05322 2.3491 6.17779 2.50283 6.17779C2.65657 6.17779 2.78114 6.05322 2.78114 5.89948V2.83212C2.78166 2.83093 2.78225 2.82975 2.78277 2.82856C2.85187 2.67597 2.91974 2.59326 3.08041 2.59326C3.23916 2.59326 3.33605 2.74469 3.36002 2.79483L3.35724 5.52607Z" fill="#707070"/>
<path d="M12.9989 4.59311C12.87 4.50936 12.6976 4.54602 12.6139 4.67486C12.5301 4.80377 12.5667 4.97614 12.6956 5.05985C14.2924 6.0972 15.2457 7.85172 15.2457 9.75323C15.2457 12.837 12.7369 15.3458 9.65306 15.3458C6.5693 15.3458 4.06048 12.837 4.06048 9.75323C4.06048 6.66943 6.5693 4.16062 9.65306 4.16062C10.3229 4.16062 10.978 4.27773 11.6 4.5088C11.7442 4.56224 11.9043 4.48887 11.9579 4.34479C12.0113 4.2007 11.9379 4.0405 11.7938 3.98696C11.1096 3.73284 10.3893 3.604 9.6531 3.604C6.26242 3.604 3.50391 6.36255 3.50391 9.75323C3.50391 13.1439 6.26242 15.9024 9.6531 15.9024C13.0438 15.9024 15.8023 13.1439 15.8023 9.75323C15.8023 7.66251 14.7543 5.7335 12.9989 4.59311Z" fill="#707070"/>
<path d="M9.65329 13.9746C7.61396 13.9746 5.8676 12.5212 5.50082 10.5187C5.47318 10.3676 5.32831 10.2674 5.17691 10.2952C5.02573 10.3228 4.92562 10.4678 4.95334 10.6191C5.36853 12.886 7.34515 14.5313 9.65329 14.5313C12.2881 14.5313 14.4316 12.3877 14.4316 9.75297C14.4316 7.11817 12.2881 4.97461 9.65329 4.97461C8.46269 4.97461 7.322 5.41515 6.44135 6.21512C5.56687 7.00949 5.01942 8.09155 4.8999 9.262C4.88428 9.41488 4.99556 9.55151 5.14849 9.56713C5.30137 9.58272 5.438 9.47147 5.45362 9.31855C5.67415 7.15944 7.47963 5.53123 9.65329 5.53123C11.9811 5.53123 13.875 7.42509 13.875 9.75297C13.875 12.0808 11.9812 13.9746 9.65329 13.9746Z" fill="#707070"/>
</g>
<defs>
<clipPath id="clip0_278_510">
<rect width="19" height="19" fill="white"/>
</clipPath>
</defs>
</svg>
