<svg width="17" height="17" viewBox="0 0 17 17" fill="none" xmlns="http://www.w3.org/2000/svg">
<g clip-path="url(#clip0_278_431)">
<path d="M16.4332 16.057C16.2535 16.2367 16.0146 16.3357 15.7604 16.3357C15.5063 16.3357 15.2674 16.2367 15.0877 16.057C14.4578 15.4271 13.4329 15.4271 12.803 16.057C12.6233 16.2367 12.3844 16.3357 12.1302 16.3357C11.8761 16.3357 11.6372 16.2367 11.4575 16.057C10.8276 15.4271 9.8027 15.4271 9.1728 16.057C8.99307 16.2367 8.75414 16.3357 8.5 16.3357C8.24587 16.3357 8.00694 16.2367 7.82721 16.057C7.19735 15.4271 6.17243 15.4271 5.54254 16.057C5.36284 16.2367 5.12391 16.3357 4.86977 16.3357C4.61564 16.3357 4.37671 16.2367 4.19701 16.057C3.56715 15.4271 2.54223 15.4271 1.91234 16.057C1.73264 16.2367 1.49371 16.3357 1.23958 16.3357C0.98544 16.3357 0.74651 16.2367 0.566815 16.057C0.43719 15.9274 0.226948 15.9273 0.0972561 16.057C-0.0324021 16.1866 -0.0324353 16.3968 0.0972561 16.5265C0.402393 16.8317 0.808069 16.9997 1.23958 16.9997C1.67108 16.9997 2.07676 16.8317 2.3819 16.5265C2.75291 16.1556 3.35651 16.1556 3.72745 16.5265C4.03259 16.8317 4.43827 16.9997 4.86977 16.9997C5.30131 16.9997 5.70699 16.8317 6.01213 16.5265C6.38307 16.1556 6.98667 16.1555 7.35765 16.5265C7.66279 16.8317 8.0685 16.9997 8.5 16.9997C8.93151 16.9997 9.33722 16.8317 9.64236 16.5265C10.0133 16.1556 10.6169 16.1555 10.9879 16.5265C11.293 16.8317 11.6987 16.9997 12.1302 16.9997C12.5617 16.9997 12.9674 16.8317 13.2726 16.5265C13.6436 16.1556 14.2472 16.1556 14.6181 16.5265C14.9232 16.8317 15.3289 16.9997 15.7604 16.9997C16.192 16.9997 16.5976 16.8317 16.9028 16.5265C17.0324 16.3969 17.0324 16.1866 16.9028 16.057C16.7731 15.9273 16.5629 15.9273 16.4332 16.057Z" fill="#707070"/>
<path d="M16.4332 13.3827C16.2535 13.5624 16.0146 13.6614 15.7604 13.6614C15.5063 13.6614 15.2674 13.5624 15.0877 13.3827C14.4578 12.7528 13.4329 12.7528 12.803 13.3827C12.6233 13.5624 12.3844 13.6614 12.1302 13.6614C11.8761 13.6614 11.6372 13.5624 11.4575 13.3827C10.8276 12.7528 9.80268 12.7528 9.17279 13.3827C8.80181 13.7536 8.19821 13.7536 7.82723 13.3827C7.1974 12.7528 6.17245 12.7528 5.54256 13.3827C5.36286 13.5624 5.12393 13.6614 4.86979 13.6614C4.61566 13.6614 4.37673 13.5624 4.19703 13.3827C3.56714 12.7528 2.54229 12.7528 1.91236 13.3827C1.73266 13.5624 1.49373 13.6614 1.2396 13.6614C0.98546 13.6614 0.746531 13.5624 0.566835 13.3827C0.437177 13.253 0.226935 13.253 0.0972437 13.3827C-0.0324145 13.5123 -0.0324145 13.7226 0.0972437 13.8523C0.727173 14.4822 1.75205 14.4822 2.38192 13.8523C2.75293 13.4813 3.35653 13.4813 3.72747 13.8523C4.35734 14.4822 5.38225 14.4822 6.01215 13.8523C6.38309 13.4813 6.98673 13.4813 7.35767 13.8523C7.98757 14.4822 9.01242 14.4822 9.64235 13.8523C10.0133 13.4813 10.6169 13.4812 10.9879 13.8523C11.3029 14.1672 11.7164 14.3247 12.1302 14.3247C12.5439 14.3246 12.9576 14.1672 13.2725 13.8523C13.6436 13.4813 14.2472 13.4813 14.6181 13.8523C15.248 14.4822 16.2729 14.4822 16.9028 13.8523C17.0324 13.7226 17.0324 13.5124 16.9028 13.3827C16.7731 13.253 16.5628 13.253 16.4332 13.3827Z" fill="#707070"/>
<path d="M0.332056 3.45312H5.68882V10.5788C5.63818 10.6186 5.58917 10.6613 5.54256 10.7079C5.36286 10.8876 5.12393 10.9866 4.86979 10.9866C4.61566 10.9866 4.37673 10.8876 4.19703 10.7079C3.56714 10.078 2.54229 10.078 1.91236 10.7079C1.73266 10.8876 1.49373 10.9866 1.2396 10.9866C0.985461 10.9866 0.746531 10.8876 0.566835 10.7079C0.437177 10.5783 0.226935 10.5783 0.0972437 10.7079C-0.0324145 10.8376 -0.0324145 11.0478 0.0972437 11.1775C0.727173 11.8074 1.75205 11.8074 2.38192 11.1775C2.75293 10.8065 3.35653 10.8065 3.72747 11.1775C4.35734 11.8074 5.38225 11.8074 6.01215 11.1775C6.38309 10.8065 6.98673 10.8065 7.35767 11.1775C7.98757 11.8074 9.01242 11.8074 9.64235 11.1775C10.0133 10.8065 10.6169 10.8065 10.9879 11.1775C11.3029 11.4925 11.7164 11.6499 12.1302 11.6499C12.5439 11.6499 12.9576 11.4924 13.2725 11.1775C13.6436 10.8065 14.2472 10.8065 14.6181 11.1775C15.248 11.8074 16.2729 11.8074 16.9028 11.1775C17.0324 11.0478 17.0324 10.8376 16.9028 10.7079C16.7731 10.5783 16.5629 10.5783 16.4332 10.7079C16.2535 10.8876 16.0146 10.9866 15.7604 10.9866C15.5063 10.9866 15.2674 10.8876 15.0877 10.7079C15.041 10.6613 14.992 10.6186 14.9414 10.5788V3.45312H16.668C16.8514 3.45312 17 3.30444 17 3.12109C17 2.93775 16.8514 2.78906 16.668 2.78906H14.9238C14.7575 1.2236 13.4292 0 11.8203 0C10.2115 0 8.88322 1.2236 8.71691 2.78906H7.66334C7.49702 1.2236 6.16873 0 4.55991 0C2.95109 0 1.62283 1.2236 1.45651 2.78906H0.332056C0.148675 2.78906 2.49025e-05 2.93775 2.49025e-05 3.12109C2.49025e-05 3.30444 0.148675 3.45312 0.332056 3.45312ZM3.48091 2.78906C3.62305 2.3281 4.05296 1.99219 4.55991 1.99219C5.06685 1.99219 5.4968 2.3281 5.63891 2.78906H3.48091ZM12.9492 3.45312V4.38281H7.681V3.45312H12.9492ZM12.9492 5.71094H7.681V5.04687H12.9492V5.71094ZM7.681 6.375H12.9492V7.30469H7.681V6.375ZM10.7413 2.78906C10.8835 2.3281 11.3134 1.99219 11.8203 1.99219C12.3273 1.99219 12.7572 2.3281 12.8993 2.78906H10.7413ZM12.1302 10.9866C11.8761 10.9866 11.6372 10.8876 11.4575 10.7079C10.8276 10.078 9.80268 10.078 9.17279 10.7079C8.80181 11.0789 8.19821 11.0789 7.82723 10.7079C7.78061 10.6613 7.73164 10.6186 7.681 10.5788V9.29687H8.82097C9.00435 9.29687 9.153 9.14819 9.153 8.96484C9.153 8.7815 9.00435 8.63281 8.82097 8.63281H7.681V7.96875H12.9492V8.63281H11.8093C11.6259 8.63281 11.4773 8.7815 11.4773 8.96484C11.4773 9.14819 11.6259 9.29687 11.8093 9.29687H12.9492V10.5788C12.8986 10.6186 12.8496 10.6613 12.803 10.7079C12.6233 10.8876 12.3844 10.9866 12.1302 10.9866ZM11.8203 0.664062C13.1752 0.664062 14.2774 1.76627 14.2774 3.12109V10.2701C14.0585 10.2245 13.8321 10.2245 13.6133 10.2701V3.12109C13.6133 2.13247 12.809 1.32812 11.8203 1.32812C10.9452 1.32812 10.2149 1.95859 10.0587 2.78906H9.38635C9.54904 1.59079 10.5782 0.664062 11.8203 0.664062ZM4.55991 0.664062C5.91473 0.664062 7.01694 1.76627 7.01694 3.12109V10.2701C6.7981 10.2245 6.57172 10.2245 6.35288 10.2701V3.12109C6.35288 2.13247 5.54857 1.32812 4.55991 1.32812C3.68474 1.32812 2.95447 1.95859 2.79825 2.78906H2.12595C2.28862 1.59079 3.31778 0.664062 4.55991 0.664062Z" fill="#707070"/>
<path d="M10.3164 8.63281C10.2287 8.63281 10.1434 8.66831 10.0813 8.7301C10.0196 8.79186 9.98438 8.87752 9.98438 8.96484C9.98438 9.05217 10.0196 9.13783 10.0813 9.19956C10.1434 9.26131 10.2287 9.29688 10.3164 9.29688C10.4037 9.29688 10.4894 9.26135 10.5512 9.19956C10.6129 9.13783 10.6484 9.05217 10.6484 8.96484C10.6484 8.87752 10.6129 8.79186 10.5512 8.7301C10.4894 8.66834 10.4037 8.63281 10.3164 8.63281Z" fill="#707070"/>
</g>
<defs>
<clipPath id="clip0_278_431">
<rect width="17" height="17" fill="white"/>
</clipPath>
</defs>
</svg>
